<svg width="500" height="500" viewBox="0 0 500 500" fill="none" xmlns="http://www.w3.org/2000/svg">
<path d="M500 250C500 388.071 388.071 500 250 500C111.929 500 0 388.071 0 250C0 111.929 111.929 0 250 0C388.071 0 500 111.929 500 250Z" fill="#A9BBCA"/>
<path d="M500 250C500 388.071 388.071 500 250 500C111.929 500 0 388.071 0 250C0 111.929 111.929 0 250 0C388.071 0 500 111.929 500 250Z" fill="#A9BBCA"/>
<path d="M500 250C500 388.071 388.071 500 250 500C111.929 500 0 388.071 0 250C0 111.929 111.929 0 250 0C388.071 0 500 111.929 500 250Z" fill="#F4F4F4"/>
<g filter="url(#filter0_i)">
<path d="M280.17 153.123C275.433 148.81 278.14 140.947 284.4 140.836L393.276 138.908C428.21 138.29 454.03 173.342 443.471 207.049C432.55 241.916 389.902 253.03 362.558 228.134L280.17 153.123Z" fill="#A9BBCA"/>
</g>
<path d="M280.818 152.377C276.758 148.68 279.078 141.94 284.444 141.846L393.32 139.918C427.566 139.312 452.879 173.674 442.528 206.718C431.821 240.9 390.012 251.794 363.206 227.388L280.818 152.377Z" stroke="black" stroke-width="2"/>
<g filter="url(#filter1_i)">
<path d="M253.276 104.086C254.872 102.934 257.015 102.906 258.684 103.949L323.001 144.139L312.02 176.317L239.377 161.613C237.303 161.193 235.711 159.504 235.438 157.406C232.041 131.316 234.384 117.72 253.276 104.086Z" fill="#99B5CC"/>
</g>
<path d="M253.861 104.897C255.113 103.993 256.814 103.96 258.154 104.797L321.799 144.567L311.357 175.163L239.575 160.633C237.915 160.296 236.647 158.946 236.429 157.277C234.734 144.254 234.498 134.513 236.956 126.364C239.398 118.267 244.537 111.625 253.861 104.897Z" stroke="black" stroke-width="2"/>
<path d="M134.097 77.4715C52.4435 24.9418 245.129 127.871 229.308 103.172" stroke="black" stroke-width="3"/>
<path d="M87.2801 107.234C5.62631 54.7043 198.312 157.634 182.491 132.934" stroke="black" stroke-width="3"/>
<path d="M111.92 91.4369C30.2664 38.9072 222.952 141.837 207.131 117.137" stroke="black" stroke-width="3"/>
<g filter="url(#filter2_i)">
<path d="M360.731 237.319L409.688 245.573L373.979 333.318C371.982 338.227 366.502 340.725 361.487 339.013L329.725 328.174L360.731 237.319Z" fill="#A9BBCA"/>
</g>
<path d="M330.995 327.551L361.403 238.446L408.292 246.352L373.053 332.942C371.255 337.359 366.324 339.607 361.81 338.067L330.995 327.551Z" stroke="black" stroke-width="2"/>
<mask id="path-11-inside-1" fill="white">
<path fill-rule="evenodd" clip-rule="evenodd" d="M358.627 390.882C354.602 389.745 350.921 387.865 347.936 385.248C337.727 376.295 339.533 362.104 351.97 353.551C356.743 350.269 362.387 348.294 368.109 347.613L371.526 356.414C367.402 356.575 363.157 357.864 359.643 360.28C352.129 365.447 350.801 373.813 356.676 378.965C361.582 383.268 369.96 383.969 376.965 381.075C379.697 378.386 383.442 376.17 388.048 374.73C402.435 370.23 419.781 375.001 426.792 385.385C430.775 391.285 430.566 397.727 427.004 403.015C433.563 403.879 439.409 406.496 443.029 410.679C450.381 419.176 445.766 430.92 432.721 436.909C421.864 441.894 408.589 441.322 400.202 436.091C400.201 436.178 400.2 436.265 400.2 436.353C400.196 445.781 408.051 454.549 417.744 455.936C427.217 457.292 434.941 451.097 435.29 442.014L447.895 448.809C444.133 459.224 432.32 465.53 418.332 463.528C401.942 461.182 388.546 448.285 387.595 434.297C378.134 434.525 367.884 431.116 360.316 424.48C348.195 413.851 347.493 398.915 358.627 390.882ZM374.694 401.678C373.589 400.042 372.807 398.364 372.329 396.68C370.872 397.164 369.504 397.826 368.273 398.673C361.281 403.481 361.338 412.399 368.401 418.593C374.221 423.696 382.982 425.357 389.797 423.092C390.549 421.613 391.475 420.236 392.556 418.975L392.975 419.2C393.6 417.266 394.648 415.372 396.088 413.591C387.12 412.272 378.977 408.023 374.694 401.678ZM404.408 425.364C405.44 422.335 408.259 419.43 412.509 417.479C420.39 413.86 430.209 414.891 434.441 419.781C438.672 424.671 435.713 431.568 427.831 435.187C419.95 438.805 410.13 437.775 405.899 432.885C404.13 430.84 403.618 428.444 404.197 426.084C404.375 425.899 404.557 425.72 404.745 425.546L404.408 425.364ZM384.885 398.276C380.85 392.3 384.626 385.252 393.318 382.534C402.01 379.816 412.327 382.457 416.361 388.433C420.396 394.408 416.62 401.456 407.929 404.174C399.237 406.893 388.92 404.252 384.885 398.276Z"/>
</mask>
<path fill-rule="evenodd" clip-rule="evenodd" d="M358.627 390.882C354.602 389.745 350.921 387.865 347.936 385.248C337.727 376.295 339.533 362.104 351.97 353.551C356.743 350.269 362.387 348.294 368.109 347.613L371.526 356.414C367.402 356.575 363.157 357.864 359.643 360.28C352.129 365.447 350.801 373.813 356.676 378.965C361.582 383.268 369.96 383.969 376.965 381.075C379.697 378.386 383.442 376.17 388.048 374.73C402.435 370.23 419.781 375.001 426.792 385.385C430.775 391.285 430.566 397.727 427.004 403.015C433.563 403.879 439.409 406.496 443.029 410.679C450.381 419.176 445.766 430.92 432.721 436.909C421.864 441.894 408.589 441.322 400.202 436.091C400.201 436.178 400.2 436.265 400.2 436.353C400.196 445.781 408.051 454.549 417.744 455.936C427.217 457.292 434.941 451.097 435.29 442.014L447.895 448.809C444.133 459.224 432.32 465.53 418.332 463.528C401.942 461.182 388.546 448.285 387.595 434.297C378.134 434.525 367.884 431.116 360.316 424.48C348.195 413.851 347.493 398.915 358.627 390.882ZM374.694 401.678C373.589 400.042 372.807 398.364 372.329 396.68C370.872 397.164 369.504 397.826 368.273 398.673C361.281 403.481 361.338 412.399 368.401 418.593C374.221 423.696 382.982 425.357 389.797 423.092C390.549 421.613 391.475 420.236 392.556 418.975L392.975 419.2C393.6 417.266 394.648 415.372 396.088 413.591C387.12 412.272 378.977 408.023 374.694 401.678ZM404.408 425.364C405.44 422.335 408.259 419.43 412.509 417.479C420.39 413.86 430.209 414.891 434.441 419.781C438.672 424.671 435.713 431.568 427.831 435.187C419.95 438.805 410.13 437.775 405.899 432.885C404.13 430.84 403.618 428.444 404.197 426.084C404.375 425.899 404.557 425.72 404.745 425.546L404.408 425.364ZM384.885 398.276C380.85 392.3 384.626 385.252 393.318 382.534C402.01 379.816 412.327 382.457 416.361 388.433C420.396 394.408 416.62 401.456 407.929 404.174C399.237 406.893 388.92 404.252 384.885 398.276Z" fill="#99B5CC"/>
<path d="M358.627 390.882L359.171 388.957L363.154 390.081L359.797 392.504L358.627 390.882ZM347.936 385.248L346.618 386.752L347.936 385.248ZM351.97 353.551L350.837 351.903L350.837 351.903L351.97 353.551ZM368.109 347.613L367.872 345.627L369.412 345.443L369.973 346.889L368.109 347.613ZM371.526 356.414L373.39 355.69L374.405 358.303L371.604 358.412L371.526 356.414ZM359.643 360.28L358.51 358.632L358.51 358.632L359.643 360.28ZM356.676 378.965L357.995 377.462L356.676 378.965ZM376.965 381.075L378.368 382.5L378.09 382.774L377.729 382.923L376.965 381.075ZM388.048 374.73L388.645 376.638L388.048 374.73ZM426.792 385.385L428.45 384.266L426.792 385.385ZM427.004 403.015L426.743 404.998L423.541 404.577L425.345 401.898L427.004 403.015ZM443.029 410.679L444.541 409.37L443.029 410.679ZM432.721 436.909L433.556 438.727L432.721 436.909ZM400.202 436.091L398.203 436.059L398.259 432.522L401.261 434.394L400.202 436.091ZM400.2 436.353L402.2 436.354L402.2 436.354L400.2 436.353ZM417.744 455.936L417.461 457.916L417.744 455.936ZM435.29 442.014L433.291 441.937L433.415 438.731L436.239 440.253L435.29 442.014ZM447.895 448.809L448.844 447.049L450.362 447.867L449.776 449.489L447.895 448.809ZM418.332 463.528L418.049 465.508L418.049 465.508L418.332 463.528ZM387.595 434.297L387.547 432.298L389.461 432.251L389.591 434.161L387.595 434.297ZM360.316 424.48L361.635 422.976L360.316 424.48ZM372.329 396.68L371.699 394.782L373.683 394.123L374.253 396.134L372.329 396.68ZM374.694 401.678L376.351 400.559L374.694 401.678ZM368.273 398.673L369.406 400.321L368.273 398.673ZM368.401 418.593L369.719 417.089L368.401 418.593ZM389.797 423.092L391.58 423.999L391.207 424.731L390.427 424.99L389.797 423.092ZM392.556 418.975L391.037 417.673L392.086 416.449L393.505 417.214L392.556 418.975ZM392.975 419.2L394.877 419.816L394.138 422.1L392.025 420.961L392.975 419.2ZM396.088 413.591L396.379 411.613L399.849 412.123L397.643 414.849L396.088 413.591ZM412.509 417.479L411.674 415.661L411.674 415.661L412.509 417.479ZM404.408 425.364L403.459 427.125L401.969 426.322L402.515 424.72L404.408 425.364ZM434.441 419.781L432.928 421.09L432.928 421.09L434.441 419.781ZM427.831 435.187L426.997 433.369L426.997 433.369L427.831 435.187ZM405.899 432.885L407.412 431.576L407.412 431.576L405.899 432.885ZM404.197 426.084L402.255 425.607L402.383 425.084L402.757 424.696L404.197 426.084ZM404.745 425.546L405.694 423.785L408.15 425.11L406.107 427.01L404.745 425.546ZM393.318 382.534L392.721 380.625L392.721 380.625L393.318 382.534ZM384.885 398.276L386.543 397.157L386.543 397.157L384.885 398.276ZM407.929 404.174L407.332 402.266L407.332 402.266L407.929 404.174ZM358.084 392.806C353.815 391.601 349.857 389.593 346.618 386.752L349.255 383.745C351.984 386.138 355.388 387.889 359.171 388.957L358.084 392.806ZM346.618 386.752C341.043 381.863 338.658 375.431 339.477 368.997C340.291 362.6 344.235 356.443 350.837 351.903L353.103 355.199C347.268 359.212 344.091 364.427 343.445 369.502C342.804 374.54 344.621 379.68 349.255 383.745L346.618 386.752ZM350.837 351.903C355.903 348.419 361.863 346.343 367.872 345.627L368.345 349.599C362.912 350.246 357.582 352.119 353.103 355.199L350.837 351.903ZM369.973 346.889L373.39 355.69L369.661 357.138L366.244 348.336L369.973 346.889ZM371.604 358.412C367.826 358.56 363.954 359.743 360.777 361.928L358.51 358.632C362.361 355.984 366.978 354.59 371.448 354.415L371.604 358.412ZM360.777 361.928C357.378 364.265 355.549 367.204 355.114 369.942C354.687 372.629 355.561 375.327 357.995 377.462L355.357 380.469C351.916 377.451 350.516 373.391 351.163 369.315C351.803 365.29 354.395 361.462 358.51 358.632L360.777 361.928ZM357.995 377.462C362.18 381.133 369.697 381.914 376.202 379.226L377.729 382.923C370.223 386.024 360.983 385.403 355.357 380.469L357.995 377.462ZM375.562 379.649C378.552 376.707 382.587 374.342 387.451 372.821L388.645 376.638C384.297 377.998 380.842 380.066 378.368 382.5L375.562 379.649ZM387.451 372.821C395.04 370.448 403.366 370.526 410.717 372.548C418.048 374.564 424.606 378.573 428.45 384.266L425.135 386.504C421.968 381.814 416.347 378.245 409.656 376.405C402.984 374.57 395.443 374.512 388.645 376.638L387.451 372.821ZM428.45 384.266C432.89 390.842 432.679 398.169 428.663 404.133L425.345 401.898C428.453 397.284 428.661 391.727 425.135 386.504L428.45 384.266ZM427.265 401.033C434.144 401.938 440.506 404.707 444.541 409.37L441.516 411.988C438.312 408.284 432.983 405.82 426.743 404.998L427.265 401.033ZM444.541 409.37C448.713 414.192 449.517 420.041 447.385 425.466C445.285 430.81 440.421 435.575 433.556 438.727L431.887 435.091C438.066 432.254 442.032 428.152 443.663 424.003C445.261 419.935 444.697 415.663 441.516 411.988L444.541 409.37ZM433.556 438.727C422.182 443.949 408.184 443.426 399.144 437.788L401.261 434.394C408.994 439.217 421.546 439.839 431.887 435.091L433.556 438.727ZM402.202 436.123C402.201 436.2 402.2 436.277 402.2 436.354L398.2 436.352C398.2 436.254 398.201 436.156 398.203 436.059L402.202 436.123ZM402.2 436.354C402.197 444.729 409.262 452.702 418.027 453.956L417.461 457.916C406.84 456.396 398.196 446.833 398.2 436.352L402.2 436.354ZM418.027 453.956C426.417 455.157 432.991 449.745 433.291 441.937L437.289 442.09C436.891 452.449 428.018 459.427 417.461 457.916L418.027 453.956ZM436.239 440.253L448.844 447.049L446.946 450.57L434.341 443.774L436.239 440.253ZM449.776 449.489C445.613 461.015 432.723 467.608 418.049 465.508L418.616 461.548C431.916 463.452 442.653 457.434 446.014 448.13L449.776 449.489ZM418.049 465.508C400.937 463.058 386.628 449.561 385.6 434.433L389.591 434.161C390.464 447.009 402.947 459.305 418.616 461.548L418.049 465.508ZM387.643 436.296C377.707 436.536 366.962 432.968 358.998 425.984L361.635 422.976C368.806 429.265 378.562 432.514 387.547 432.298L387.643 436.296ZM358.998 425.984C352.612 420.384 349.084 413.514 348.753 406.806C348.42 400.05 351.351 393.665 357.457 389.26L359.797 392.504C354.769 396.132 352.484 401.232 352.749 406.609C353.016 412.035 355.9 417.947 361.635 422.976L358.998 425.984ZM374.253 396.134C374.669 397.6 375.357 399.086 376.351 400.559L373.036 402.797C371.821 400.997 370.944 399.127 370.405 397.226L374.253 396.134ZM367.14 397.025C368.539 396.063 370.079 395.319 371.699 394.782L372.959 398.578C371.665 399.008 370.469 399.59 369.406 400.321L367.14 397.025ZM367.082 420.096C363.199 416.691 361.094 412.399 361.067 408.126C361.039 403.818 363.131 399.782 367.14 397.025L369.406 400.321C366.423 402.373 365.048 405.199 365.067 408.101C365.085 411.038 366.54 414.301 369.719 417.089L367.082 420.096ZM390.427 424.99C382.933 427.481 373.431 425.664 367.082 420.096L369.719 417.089C375.01 421.729 383.03 423.233 389.166 421.194L390.427 424.99ZM394.074 420.276C393.095 421.419 392.258 422.664 391.58 423.999L388.014 422.186C388.839 420.562 389.855 419.052 391.037 417.673L394.074 420.276ZM392.025 420.961L391.607 420.735L393.505 417.214L393.924 417.44L392.025 420.961ZM397.643 414.849C396.34 416.46 395.42 418.14 394.877 419.816L391.072 418.585C391.781 416.392 392.956 414.283 394.533 412.333L397.643 414.849ZM376.351 400.559C380.228 406.301 387.78 410.348 396.379 411.613L395.797 415.57C386.46 414.197 377.727 409.745 373.036 402.797L376.351 400.559ZM413.343 419.297C409.432 421.092 407.106 423.646 406.301 426.009L402.515 424.72C403.773 421.024 407.085 417.768 411.674 415.661L413.343 419.297ZM432.928 421.09C431.254 419.155 428.293 417.812 424.635 417.428C421.012 417.048 416.948 417.642 413.343 419.297L411.674 415.661C415.951 413.698 420.738 412.997 425.052 413.45C429.332 413.899 433.396 415.517 435.953 418.472L432.928 421.09ZM426.997 433.369C430.616 431.707 432.889 429.389 433.84 427.172C434.753 425.044 434.512 422.92 432.928 421.09L435.953 418.472C438.6 421.532 438.995 425.302 437.516 428.749C436.075 432.108 432.927 435.048 428.666 437.004L426.997 433.369ZM407.412 431.576C409.086 433.511 412.047 434.853 415.705 435.237C419.328 435.618 423.392 435.024 426.997 433.369L428.666 437.004C424.389 438.968 419.602 439.668 415.287 439.215C411.008 438.766 406.944 437.148 404.387 434.193L407.412 431.576ZM406.14 426.561C405.715 428.291 406.067 430.022 407.412 431.576L404.387 434.193C402.193 431.658 401.521 428.597 402.255 425.607L406.14 426.561ZM406.107 427.01C405.946 427.16 405.79 427.313 405.638 427.471L402.757 424.696C402.96 424.486 403.168 424.281 403.382 424.081L406.107 427.01ZM405.357 423.604L405.694 423.785L403.796 427.306L403.459 427.125L405.357 423.604ZM393.915 384.443C389.932 385.689 387.31 387.853 386.092 390.128C384.915 392.325 384.942 394.786 386.543 397.157L383.227 399.395C380.793 395.79 380.691 391.74 382.566 388.239C384.399 384.816 388.011 382.098 392.721 380.625L393.915 384.443ZM414.704 389.552C413.041 387.089 409.947 385.148 406.09 384.161C402.258 383.18 397.885 383.201 393.915 384.443L392.721 380.625C397.442 379.149 402.574 379.132 407.082 380.286C411.565 381.433 415.647 383.8 418.019 387.314L414.704 389.552ZM407.332 402.266C411.314 401.02 413.936 398.855 415.154 396.581C416.331 394.384 416.304 391.923 414.704 389.552L418.019 387.314C420.453 390.918 420.556 394.969 418.68 398.47C416.847 401.892 413.235 404.611 408.525 406.083L407.332 402.266ZM386.543 397.157C388.205 399.619 391.299 401.561 395.156 402.548C398.988 403.529 403.361 403.507 407.332 402.266L408.525 406.083C403.804 407.56 398.673 407.577 394.164 406.423C389.681 405.276 385.599 402.909 383.227 399.395L386.543 397.157Z" fill="black" mask="url(#path-11-inside-1)"/>
<g filter="url(#filter3_i)">
<path d="M216.656 310.38L254.822 298.405L294.308 424.255C297.614 434.794 291.751 446.018 281.212 449.325C270.673 452.632 259.449 446.768 256.142 436.229L216.656 310.38Z" fill="#DBD1D1"/>
</g>
<path d="M217.91 311.034L254.167 299.659L293.354 424.554C296.495 434.566 290.925 445.229 280.913 448.371C270.901 451.512 260.238 445.942 257.096 435.93L217.91 311.034Z" stroke="black" stroke-width="2"/>
<rect x="172.517" y="217.586" width="67.6203" height="121.418" rx="9" transform="rotate(-17.4194 172.517 217.586)" fill="#E9D5CD" stroke="black" stroke-width="2"/>
<rect x="228.258" y="220.826" width="34.3924" height="4.32911" rx="2.16456" transform="rotate(-17.4194 228.258 220.826)" fill="#DBD1D1" stroke="black" stroke-width="2"/>
<rect x="232.758" y="235.168" width="34.3924" height="4.32911" rx="2.16456" transform="rotate(-17.4194 232.758 235.168)" fill="#DBD1D1" stroke="black" stroke-width="2"/>
<rect x="247.205" y="281.214" width="34.3924" height="4.32911" rx="2.16456" transform="rotate(-17.4194 247.205 281.214)" fill="#DBD1D1" stroke="black" stroke-width="2"/>
<rect x="251.705" y="295.557" width="34.3924" height="4.32911" rx="2.16456" transform="rotate(-17.4194 251.705 295.557)" fill="#DBD1D1" stroke="black" stroke-width="2"/>
<rect x="237.732" y="251.02" width="34.3924" height="4.32911" rx="2.16456" transform="rotate(-17.4194 237.732 251.02)" fill="#DBD1D1" stroke="black" stroke-width="2"/>
<rect x="242.232" y="265.362" width="34.3924" height="4.32911" rx="2.16456" transform="rotate(-17.4194 242.232 265.362)" fill="#DBD1D1" stroke="black" stroke-width="2"/>
<rect x="161.831" y="241.667" width="34.3924" height="4.32911" rx="2.16456" transform="rotate(-17.4194 161.831 241.667)" fill="#DBD1D1" stroke="black" stroke-width="2"/>
<rect x="166.331" y="256.01" width="34.3924" height="4.32911" rx="2.16456" transform="rotate(-17.4194 166.331 256.01)" fill="#DBD1D1" stroke="black" stroke-width="2"/>
<rect x="180.778" y="302.056" width="34.3924" height="4.32911" rx="2.16456" transform="rotate(-17.4194 180.778 302.056)" fill="#DBD1D1" stroke="black" stroke-width="2"/>
<rect x="185.278" y="316.398" width="34.3924" height="4.32911" rx="2.16456" transform="rotate(-17.4194 185.278 316.398)" fill="#DBD1D1" stroke="black" stroke-width="2"/>
<rect x="171.304" y="271.862" width="34.3924" height="4.32911" rx="2.16456" transform="rotate(-17.4194 171.304 271.862)" fill="#DBD1D1" stroke="black" stroke-width="2"/>
<rect x="175.804" y="286.204" width="34.3924" height="4.32911" rx="2.16456" transform="rotate(-17.4194 175.804 286.204)" fill="#DBD1D1" stroke="black" stroke-width="2"/>
<circle cx="218.473" cy="249.796" r="5.43354" transform="rotate(-17.4194 218.473 249.796)" fill="#DBD1D1" stroke="black"/>
<circle cx="224.63" cy="269.422" r="5.43354" transform="rotate(-17.4194 224.63 269.422)" fill="#DBD1D1" stroke="black"/>
<circle cx="212.315" cy="230.17" r="5.43354" transform="rotate(-17.4194 212.315 230.17)" fill="#DBD1D1" stroke="black"/>
<circle cx="218.473" cy="249.796" r="5.43354" transform="rotate(-17.4194 218.473 249.796)" fill="#DBD1D1" stroke="black"/>
<circle cx="230.788" cy="289.048" r="5.43354" transform="rotate(-17.4194 230.788 289.048)" fill="#DBD1D1" stroke="black"/>
<circle cx="236.946" cy="308.675" r="5.43354" transform="rotate(-17.4194 236.946 308.675)" fill="#DBD1D1" stroke="black"/>
<defs>
<filter id="filter0_i" x="277.765" y="138.9" width="168.096" height="109.7" filterUnits="userSpaceOnUse" color-interpolation-filters="sRGB">
<feFlood flood-opacity="0" result="BackgroundImageFix"/>
<feBlend mode="normal" in="SourceGraphic" in2="BackgroundImageFix" result="shape"/>
<feColorMatrix in="SourceAlpha" type="matrix" values="0 0 0 0 0 0 0 0 0 0 0 0 0 0 0 0 0 0 127 0" result="hardAlpha"/>
<feOffset dy="7"/>
<feGaussianBlur stdDeviation="5"/>
<feComposite in2="hardAlpha" operator="arithmetic" k2="-1" k3="1"/>
<feColorMatrix type="matrix" values="0 0 0 0 0.956863 0 0 0 0 0.956863 0 0 0 0 0.956863 0 0 0 1 0"/>
<feBlend mode="normal" in2="shape" result="effect1_innerShadow"/>
</filter>
<filter id="filter1_i" x="225.453" y="99.1912" width="107.167" height="90.1993" filterUnits="userSpaceOnUse" color-interpolation-filters="sRGB">
<feFlood flood-opacity="0" result="BackgroundImageFix"/>
<feBlend mode="normal" in="SourceGraphic" in2="BackgroundImageFix" result="shape"/>
<feColorMatrix in="SourceAlpha" type="matrix" values="0 0 0 0 0 0 0 0 0 0 0 0 0 0 0 0 0 0 127 0" result="hardAlpha"/>
<feOffset dx="4" dy="4"/>
<feGaussianBlur stdDeviation="5"/>
<feComposite in2="hardAlpha" operator="arithmetic" k2="-1" k3="1"/>
<feColorMatrix type="matrix" values="0 0 0 0 0.956863 0 0 0 0 0.956863 0 0 0 0 0.956863 0 0 0 1 0"/>
<feBlend mode="normal" in2="shape" result="effect1_innerShadow"/>
</filter>
<filter id="filter2_i" x="329.725" y="229.748" width="84.9632" height="114.252" filterUnits="userSpaceOnUse" color-interpolation-filters="sRGB">
<feFlood flood-opacity="0" result="BackgroundImageFix"/>
<feBlend mode="normal" in="SourceGraphic" in2="BackgroundImageFix" result="shape"/>
<feColorMatrix in="SourceAlpha" type="matrix" values="0 0 0 0 0 0 0 0 0 0 0 0 0 0 0 0 0 0 127 0" result="hardAlpha"/>
<feOffset dx="5"/>
<feGaussianBlur stdDeviation="5"/>
<feComposite in2="hardAlpha" operator="arithmetic" k2="-1" k3="1"/>
<feColorMatrix type="matrix" values="0 0 0 0 0.956863 0 0 0 0 0.956863 0 0 0 0 0.956863 0 0 0 1 0"/>
<feBlend mode="normal" in2="shape" result="effect1_innerShadow"/>
</filter>
<filter id="filter3_i" x="216.656" y="298.405" width="87.6387" height="160.907" filterUnits="userSpaceOnUse" color-interpolation-filters="sRGB">
<feFlood flood-opacity="0" result="BackgroundImageFix"/>
<feBlend mode="normal" in="SourceGraphic" in2="BackgroundImageFix" result="shape"/>
<feColorMatrix in="SourceAlpha" type="matrix" values="0 0 0 0 0 0 0 0 0 0 0 0 0 0 0 0 0 0 127 0" result="hardAlpha"/>
<feOffset dx="4" dy="4"/>
<feGaussianBlur stdDeviation="5"/>
<feComposite in2="hardAlpha" operator="arithmetic" k2="-1" k3="1"/>
<feColorMatrix type="matrix" values="0 0 0 0 0.956863 0 0 0 0 0.956863 0 0 0 0 0.956863 0 0 0 1 0"/>
<feBlend mode="normal" in2="shape" result="effect1_innerShadow"/>
</filter>
</defs>
</svg>
