<svg width="202" height="203" viewBox="0 0 202 203" fill="none" xmlns="http://www.w3.org/2000/svg">
<path d="M201.592 101.547C201.592 157.109 156.55 202.151 100.989 202.151C45.4268 202.151 0.38501 157.109 0.38501 101.547C0.38501 45.9856 45.4268 0.943848 100.989 0.943848C156.55 0.943848 201.592 45.9856 201.592 101.547Z" fill="#A9BBCA"/>
<path d="M201.592 101.547C201.592 157.109 156.55 202.151 100.989 202.151C45.4268 202.151 0.38501 157.109 0.38501 101.547C0.38501 45.9856 45.4268 0.943848 100.989 0.943848C156.55 0.943848 201.592 45.9856 201.592 101.547Z" fill="#A9BBCA"/>
<path d="M201.592 101.547C201.592 157.109 156.55 202.151 100.989 202.151C45.4268 202.151 0.38501 157.109 0.38501 101.547C0.38501 45.9856 45.4268 0.943848 100.989 0.943848C156.55 0.943848 201.592 45.9856 201.592 101.547Z" fill="white"/>
<g filter="url(#filter0_i)">
<path d="M116.507 67.9964C113.095 64.89 115.045 59.2266 119.554 59.1467L155.301 58.5139C168.656 58.2774 178.527 71.6777 174.49 84.564V84.564C170.315 97.8937 154.011 102.142 143.557 92.6246L116.507 67.9964Z" fill="#A9BBCA"/>
</g>
<path d="M119.598 60.1565L155.345 59.5237C168.012 59.2994 177.376 72.0101 173.547 84.2333C169.586 96.877 154.121 100.907 144.205 91.8792L117.155 67.2509C114.42 64.7607 115.983 60.2205 119.598 60.1565Z" stroke="black" stroke-width="2"/>
<g filter="url(#filter1_i)">
<path d="M100.2 46.4249C101.71 45.1615 103.872 45.1649 105.541 46.208L128.435 60.5139L124.237 72.8154L98.6025 67.6265C96.5284 67.2066 94.9207 65.5248 94.7061 63.4195C93.9049 55.557 94.8997 50.8618 100.2 46.4249Z" fill="#99B5CC"/>
</g>
<path d="M105.011 47.056L127.232 60.9416L123.574 71.661L98.8009 66.6463C97.131 66.3083 95.8686 64.9627 95.701 63.3182C95.305 59.4321 95.3681 56.4478 96.1231 53.9242C96.8683 51.4335 98.3134 49.3086 100.842 47.1918C101.97 46.248 103.65 46.2057 105.011 47.056Z" stroke="black" stroke-width="2"/>
<path d="M56.2174 35.027C25.0013 14.945 98.6645 54.2948 92.6163 44.8521" stroke="black" stroke-width="3"/>
<path d="M38.3192 46.405C7.10313 26.323 80.7663 65.6727 74.7181 56.23" stroke="black" stroke-width="3"/>
<path d="M47.7391 40.3659C16.5231 20.2839 90.1862 59.6336 84.138 50.191" stroke="black" stroke-width="3"/>
<g filter="url(#filter2_i)">
<path d="M142.859 96.1367L161.575 99.2923L150.122 127.436C148.124 132.345 142.645 134.842 137.63 133.131L131.006 130.87L142.859 96.1367Z" fill="#A9BBCA"/>
</g>
<path d="M132.275 130.247L143.531 97.2641L160.179 100.071L149.195 127.059C147.398 131.477 142.466 133.725 137.953 132.185L132.275 130.247Z" stroke="black" stroke-width="2"/>
<mask id="path-11-inside-1" fill="white">
<path fill-rule="evenodd" clip-rule="evenodd" d="M142.055 154.842C140.516 154.408 139.109 153.689 137.968 152.689C134.065 149.266 134.755 143.841 139.51 140.571C141.334 139.316 143.492 138.561 145.679 138.301L146.986 141.666C145.409 141.727 143.787 142.22 142.443 143.144C139.571 145.119 139.063 148.317 141.309 150.287C143.185 151.932 146.388 152.2 149.066 151.093C150.111 150.066 151.542 149.219 153.302 148.668C158.802 146.948 165.434 148.772 168.114 152.742C169.637 154.997 169.557 157.46 168.195 159.482C170.703 159.812 172.937 160.812 174.321 162.412C177.132 165.66 175.368 170.15 170.381 172.439C166.23 174.345 161.155 174.126 157.949 172.126C157.948 172.16 157.948 172.193 157.948 172.227C157.947 175.831 160.949 179.183 164.655 179.713C168.277 180.232 171.229 177.863 171.363 174.391L176.182 176.989C174.744 180.97 170.227 183.381 164.88 182.616C158.614 181.719 153.492 176.788 153.129 171.44C149.512 171.527 145.593 170.224 142.701 167.687C138.067 163.624 137.798 157.914 142.055 154.842ZM148.197 158.971C147.774 158.345 147.475 157.703 147.293 157.059C146.736 157.244 146.213 157.497 145.742 157.821C143.069 159.659 143.091 163.068 145.791 165.436C148.016 167.387 151.366 168.022 153.971 167.156C154.259 166.591 154.613 166.065 155.026 165.583L155.186 165.669C155.425 164.93 155.825 164.206 156.376 163.525C152.947 163.021 149.835 161.396 148.197 158.971ZM159.557 168.026C159.951 166.868 161.029 165.757 162.653 165.011C165.666 163.628 169.42 164.022 171.038 165.891C172.655 167.761 171.524 170.398 168.511 171.781C165.498 173.164 161.744 172.77 160.127 170.901C159.45 170.119 159.254 169.203 159.476 168.301C159.544 168.231 159.614 168.162 159.685 168.095L159.557 168.026ZM152.093 157.67C150.55 155.385 151.994 152.691 155.317 151.652C158.64 150.612 162.584 151.622 164.126 153.907C165.669 156.191 164.225 158.885 160.902 159.925C157.579 160.964 153.635 159.954 152.093 157.67Z"/>
</mask>
<path fill-rule="evenodd" clip-rule="evenodd" d="M142.055 154.842C140.516 154.408 139.109 153.689 137.968 152.689C134.065 149.266 134.755 143.841 139.51 140.571C141.334 139.316 143.492 138.561 145.679 138.301L146.986 141.666C145.409 141.727 143.787 142.22 142.443 143.144C139.571 145.119 139.063 148.317 141.309 150.287C143.185 151.932 146.388 152.2 149.066 151.093C150.111 150.066 151.542 149.219 153.302 148.668C158.802 146.948 165.434 148.772 168.114 152.742C169.637 154.997 169.557 157.46 168.195 159.482C170.703 159.812 172.937 160.812 174.321 162.412C177.132 165.66 175.368 170.15 170.381 172.439C166.23 174.345 161.155 174.126 157.949 172.126C157.948 172.16 157.948 172.193 157.948 172.227C157.947 175.831 160.949 179.183 164.655 179.713C168.277 180.232 171.229 177.863 171.363 174.391L176.182 176.989C174.744 180.97 170.227 183.381 164.88 182.616C158.614 181.719 153.492 176.788 153.129 171.44C149.512 171.527 145.593 170.224 142.701 167.687C138.067 163.624 137.798 157.914 142.055 154.842ZM148.197 158.971C147.774 158.345 147.475 157.703 147.293 157.059C146.736 157.244 146.213 157.497 145.742 157.821C143.069 159.659 143.091 163.068 145.791 165.436C148.016 167.387 151.366 168.022 153.971 167.156C154.259 166.591 154.613 166.065 155.026 165.583L155.186 165.669C155.425 164.93 155.825 164.206 156.376 163.525C152.947 163.021 149.835 161.396 148.197 158.971ZM159.557 168.026C159.951 166.868 161.029 165.757 162.653 165.011C165.666 163.628 169.42 164.022 171.038 165.891C172.655 167.761 171.524 170.398 168.511 171.781C165.498 173.164 161.744 172.77 160.127 170.901C159.45 170.119 159.254 169.203 159.476 168.301C159.544 168.231 159.614 168.162 159.685 168.095L159.557 168.026ZM152.093 157.67C150.55 155.385 151.994 152.691 155.317 151.652C158.64 150.612 162.584 151.622 164.126 153.907C165.669 156.191 164.225 158.885 160.902 159.925C157.579 160.964 153.635 159.954 152.093 157.67Z" fill="#99B5CC"/>
<path d="M142.055 154.842L142.598 152.918L146.583 154.042L143.225 156.464L142.055 154.842ZM137.968 152.689L139.286 151.185L139.286 151.185L137.968 152.689ZM139.51 140.571L138.376 138.923L138.376 138.923L139.51 140.571ZM145.679 138.301L145.443 136.315L146.983 136.131L147.544 137.577L145.679 138.301ZM146.986 141.666L148.85 140.942L149.865 143.555L147.064 143.664L146.986 141.666ZM142.443 143.144L141.31 141.496L141.31 141.496L142.443 143.144ZM141.309 150.287L142.627 148.783L142.627 148.783L141.309 150.287ZM149.066 151.093L150.469 152.519L150.191 152.792L149.83 152.941L149.066 151.093ZM153.302 148.668L152.705 146.759L152.705 146.759L153.302 148.668ZM168.114 152.742L169.772 151.623L169.772 151.623L168.114 152.742ZM168.195 159.482L167.934 161.465L164.732 161.043L166.536 158.365L168.195 159.482ZM174.321 162.412L175.834 161.103L175.834 161.103L174.321 162.412ZM170.381 172.439L169.546 170.622L169.546 170.622L170.381 172.439ZM157.949 172.126L155.949 172.095L156.006 168.557L159.007 170.43L157.949 172.126ZM157.948 172.227L155.948 172.226L155.948 172.226L157.948 172.227ZM164.655 179.713L164.372 181.693L164.372 181.693L164.655 179.713ZM171.363 174.391L169.364 174.314L169.487 171.108L172.312 172.63L171.363 174.391ZM176.182 176.989L177.131 175.228L178.648 176.047L178.063 177.668L176.182 176.989ZM164.88 182.616L165.163 180.636L165.163 180.636L164.88 182.616ZM153.129 171.44L153.081 169.441L154.995 169.395L155.124 171.305L153.129 171.44ZM142.701 167.687L144.019 166.184L144.019 166.184L142.701 167.687ZM147.293 157.059L146.662 155.161L148.647 154.502L149.217 156.513L147.293 157.059ZM148.197 158.971L149.854 157.851L149.854 157.851L148.197 158.971ZM145.742 157.821L144.609 156.173L144.609 156.173L145.742 157.821ZM145.791 165.436L147.11 163.932L147.11 163.932L145.791 165.436ZM153.971 167.156L155.754 168.063L155.382 168.795L154.602 169.054L153.971 167.156ZM155.026 165.583L153.507 164.282L154.556 163.058L155.975 163.823L155.026 165.583ZM155.186 165.669L157.089 166.285L156.35 168.569L154.237 167.43L155.186 165.669ZM156.376 163.525L156.667 161.546L160.137 162.057L157.931 164.783L156.376 163.525ZM162.653 165.011L161.819 163.194L161.819 163.194L162.653 165.011ZM159.557 168.026L158.607 169.786L157.118 168.983L157.663 167.381L159.557 168.026ZM171.038 165.891L172.55 164.583L172.55 164.583L171.038 165.891ZM168.511 171.781L169.346 173.599L169.346 173.599L168.511 171.781ZM160.127 170.901L158.614 172.21L158.614 172.21L160.127 170.901ZM159.476 168.301L157.534 167.824L157.662 167.301L158.035 166.914L159.476 168.301ZM159.685 168.095L160.634 166.335L163.091 167.659L161.048 169.56L159.685 168.095ZM155.317 151.652L154.72 149.743L154.72 149.743L155.317 151.652ZM152.093 157.67L153.75 156.551L153.75 156.551L152.093 157.67ZM164.126 153.907L162.469 155.026L164.126 153.907ZM160.902 159.925L160.305 158.016L160.305 158.016L160.902 159.925ZM141.512 156.767C139.729 156.264 138.045 155.417 136.649 154.192L139.286 151.185C140.172 151.962 141.303 152.552 142.598 152.918L141.512 156.767ZM136.649 154.192C134.227 152.069 133.14 149.211 133.508 146.32C133.871 143.466 135.616 140.821 138.376 138.923L140.643 142.219C138.649 143.59 137.671 145.293 137.476 146.825C137.286 148.32 137.805 149.886 139.286 151.185L136.649 154.192ZM138.376 138.923C140.495 137.466 142.967 136.61 145.443 136.315L145.916 140.287C144.017 140.513 142.174 141.166 140.643 142.219L138.376 138.923ZM147.544 137.577L148.85 140.942L145.121 142.389L143.815 139.024L147.544 137.577ZM147.064 143.664C145.833 143.712 144.583 144.099 143.576 144.792L141.31 141.496C142.99 140.34 144.985 139.742 146.908 139.667L147.064 143.664ZM143.576 144.792C142.499 145.533 142.035 146.382 141.932 147.031C141.837 147.629 142.008 148.24 142.627 148.783L139.99 151.791C138.363 150.364 137.666 148.391 137.981 146.404C138.289 144.467 139.515 142.73 141.31 141.496L143.576 144.792ZM142.627 148.783C143.783 149.797 146.125 150.145 148.302 149.245L149.83 152.941C146.651 154.255 142.586 154.067 139.99 151.791L142.627 148.783ZM147.664 149.667C148.966 148.386 150.687 147.391 152.705 146.759L153.899 150.577C152.397 151.047 151.256 151.745 150.469 152.519L147.664 149.667ZM152.705 146.759C155.851 145.776 159.276 145.812 162.296 146.643C165.297 147.468 168.093 149.137 169.772 151.623L166.457 153.861C165.455 152.377 163.595 151.149 161.235 150.5C158.894 149.856 156.254 149.841 153.899 150.577L152.705 146.759ZM169.772 151.623C171.751 154.555 171.67 157.902 169.854 160.599L166.536 158.365C167.443 157.017 167.522 155.439 166.457 153.861L169.772 151.623ZM168.456 157.499C171.283 157.871 174.034 159.024 175.834 161.103L172.809 163.72C171.84 162.601 170.122 161.753 167.934 161.465L168.456 157.499ZM175.834 161.103C177.735 163.3 178.116 166.023 177.137 168.516C176.189 170.928 174.051 172.955 171.215 174.257L169.546 170.622C171.697 169.634 172.935 168.271 173.414 167.053C173.86 165.917 173.718 164.771 172.809 163.72L175.834 161.103ZM171.215 174.257C166.548 176.4 160.75 176.231 156.89 173.823L159.007 170.43C161.56 172.022 165.912 172.29 169.546 170.622L171.215 174.257ZM159.949 172.158C159.948 172.181 159.948 172.204 159.948 172.228L155.948 172.226C155.948 172.182 155.948 172.138 155.949 172.095L159.949 172.158ZM159.948 172.228C159.947 174.779 162.16 177.336 164.938 177.734L164.372 181.693C159.738 181.03 155.946 176.883 155.948 172.226L159.948 172.228ZM164.938 177.734C167.476 178.097 169.28 176.511 169.364 174.314L173.361 174.468C173.179 179.215 169.077 182.367 164.372 181.693L164.938 177.734ZM172.312 172.63L177.131 175.228L175.232 178.749L170.414 176.151L172.312 172.63ZM178.063 177.668C176.223 182.761 170.631 185.459 164.596 184.596L165.163 180.636C169.824 181.303 173.264 179.18 174.3 176.309L178.063 177.668ZM164.596 184.596C157.608 183.595 151.574 178.064 151.134 171.576L155.124 171.305C155.41 175.512 159.619 179.842 165.163 180.636L164.596 184.596ZM153.177 173.44C149.085 173.538 144.671 172.076 141.382 169.191L144.019 166.184C146.515 168.373 149.939 169.516 153.081 169.441L153.177 173.44ZM141.382 169.191C138.74 166.874 137.192 163.952 137.046 160.991C136.898 157.982 138.218 155.145 140.885 153.22L143.225 156.464C141.636 157.611 140.961 159.164 141.041 160.794C141.124 162.472 142.027 164.437 144.019 166.184L141.382 169.191ZM149.217 156.513C149.338 156.94 149.542 157.389 149.854 157.851L146.539 160.09C146.006 159.3 145.613 158.466 145.368 157.605L149.217 156.513ZM144.609 156.173C145.248 155.734 145.943 155.4 146.662 155.161L147.923 158.957C147.529 159.088 147.178 159.261 146.876 159.469L144.609 156.173ZM144.473 166.94C142.771 165.448 141.765 163.488 141.752 161.443C141.739 159.361 142.76 157.444 144.609 156.173L146.876 159.469C146.051 160.036 145.748 160.742 145.752 161.417C145.757 162.128 146.112 163.057 147.11 163.932L144.473 166.94ZM154.602 169.054C151.317 170.146 147.227 169.355 144.473 166.94L147.11 163.932C148.806 165.42 151.414 165.898 153.34 165.258L154.602 169.054ZM156.544 166.884C156.232 167.248 155.968 167.643 155.754 168.063L152.189 166.25C152.55 165.54 152.993 164.881 153.507 164.282L156.544 166.884ZM154.237 167.43L154.076 167.343L155.975 163.823L156.135 163.909L154.237 167.43ZM157.931 164.783C157.518 165.294 157.244 165.804 157.089 166.285L153.283 165.054C153.606 164.056 154.133 163.117 154.821 162.267L157.931 164.783ZM149.854 157.851C151.085 159.675 153.607 161.096 156.667 161.546L156.085 165.504C152.288 164.945 148.584 163.118 146.539 160.09L149.854 157.851ZM163.488 166.829C162.202 167.419 161.617 168.178 161.45 168.671L157.663 167.381C158.285 165.557 159.856 164.095 161.819 163.194L163.488 166.829ZM169.525 167.2C169.158 166.775 168.366 166.347 167.16 166.221C165.989 166.098 164.658 166.291 163.488 166.829L161.819 163.194C163.661 162.348 165.715 162.047 167.578 162.242C169.406 162.434 171.3 163.138 172.55 164.583L169.525 167.2ZM167.677 169.963C168.862 169.419 169.461 168.724 169.673 168.23C169.847 167.824 169.802 167.52 169.525 167.2L172.55 164.583C173.891 166.132 174.089 168.082 173.349 169.807C172.647 171.444 171.173 172.759 169.346 173.599L167.677 169.963ZM161.639 169.592C162.006 170.017 162.798 170.445 164.004 170.572C165.176 170.695 166.506 170.501 167.677 169.963L169.346 173.599C167.503 174.444 165.45 174.745 163.587 174.55C161.758 174.358 159.864 173.654 158.614 172.21L161.639 169.592ZM161.418 168.778C161.351 169.051 161.387 169.301 161.639 169.592L158.614 172.21C157.513 170.938 157.158 169.356 157.534 167.824L161.418 168.778ZM161.048 169.56C161.003 169.601 160.959 169.644 160.916 169.688L158.035 166.914C158.129 166.817 158.225 166.722 158.323 166.631L161.048 169.56ZM160.506 166.265L160.634 166.335L158.736 169.856L158.607 169.786L160.506 166.265ZM155.914 153.56C154.616 153.966 153.919 154.623 153.643 155.138C153.409 155.575 153.396 156.025 153.75 156.551L150.435 158.789C149.247 157.029 149.185 154.99 150.117 153.249C151.008 151.586 152.695 150.376 154.72 149.743L155.914 153.56ZM162.469 155.026C162.052 154.409 161.175 153.798 159.893 153.47C158.637 153.149 157.2 153.158 155.914 153.56L154.72 149.743C156.756 149.106 158.953 149.101 160.885 149.595C162.792 150.083 164.658 151.12 165.784 152.787L162.469 155.026ZM160.305 158.016C161.603 157.61 162.3 156.953 162.576 156.438C162.81 156.001 162.823 155.551 162.469 155.026L165.784 152.787C166.972 154.547 167.034 156.586 166.102 158.327C165.211 159.99 163.524 161.2 161.499 161.833L160.305 158.016ZM153.75 156.551C154.167 157.167 155.045 157.778 156.326 158.106C157.582 158.427 159.019 158.418 160.305 158.016L161.499 161.833C159.463 162.47 157.267 162.476 155.334 161.981C153.427 161.493 151.561 160.457 150.435 158.789L153.75 156.551Z" fill="black" mask="url(#path-11-inside-1)"/>
<g filter="url(#filter3_i)">
<path d="M87.7795 124.067L102.37 119.489L117.465 167.601C118.73 171.63 116.488 175.921 112.459 177.185V177.185C108.43 178.449 104.139 176.208 102.875 172.179L87.7795 124.067Z" fill="#DBD1D1"/>
</g>
<path d="M89.033 124.722L101.715 120.743L116.511 167.9C117.61 171.403 115.662 175.132 112.16 176.231C108.658 177.33 104.928 175.382 103.829 171.88L89.033 124.722Z" stroke="black" stroke-width="2"/>
<rect x="71.6793" y="88.9966" width="24.6157" height="45.1823" rx="9" transform="rotate(-17.4194 71.6793 88.9966)" fill="#E9D5CD" stroke="black" stroke-width="2"/>
<rect x="92.4938" y="89.9766" width="12.7029" height="1.2098" rx="0.604902" transform="rotate(-17.4194 92.4938 89.9766)" fill="#DBD1D1" stroke="black" stroke-width="1.2098"/>
<rect x="94.2143" y="95.4596" width="12.7029" height="1.2098" rx="0.604902" transform="rotate(-17.4194 94.2143 95.4596)" fill="#DBD1D1" stroke="black" stroke-width="1.2098"/>
<rect x="99.7373" y="113.063" width="12.7029" height="1.2098" rx="0.604902" transform="rotate(-17.4194 99.7373 113.063)" fill="#DBD1D1" stroke="black" stroke-width="1.2098"/>
<rect x="101.457" y="118.546" width="12.7029" height="1.2098" rx="0.604902" transform="rotate(-17.4194 101.457 118.546)" fill="#DBD1D1" stroke="black" stroke-width="1.2098"/>
<rect x="96.1157" y="101.52" width="12.7029" height="1.2098" rx="0.604902" transform="rotate(-17.4194 96.1157 101.52)" fill="#DBD1D1" stroke="black" stroke-width="1.2098"/>
<rect x="97.8359" y="107.003" width="12.7029" height="1.2098" rx="0.604902" transform="rotate(-17.4194 97.8359 107.003)" fill="#DBD1D1" stroke="black" stroke-width="1.2098"/>
<rect x="67.0988" y="97.9444" width="12.7029" height="1.2098" rx="0.604902" transform="rotate(-17.4194 67.0988 97.9444)" fill="#DBD1D1" stroke="black" stroke-width="1.2098"/>
<rect x="68.8193" y="103.428" width="12.7029" height="1.2098" rx="0.604902" transform="rotate(-17.4194 68.8193 103.428)" fill="#DBD1D1" stroke="black" stroke-width="1.2098"/>
<rect x="74.3422" y="121.031" width="12.7029" height="1.2098" rx="0.604902" transform="rotate(-17.4194 74.3422 121.031)" fill="#DBD1D1" stroke="black" stroke-width="1.2098"/>
<rect x="76.0624" y="126.514" width="12.7029" height="1.2098" rx="0.604902" transform="rotate(-17.4194 76.0624 126.514)" fill="#DBD1D1" stroke="black" stroke-width="1.2098"/>
<rect x="70.7206" y="109.487" width="12.7029" height="1.2098" rx="0.604902" transform="rotate(-17.4194 70.7206 109.487)" fill="#DBD1D1" stroke="black" stroke-width="1.2098"/>
<rect x="72.4409" y="114.971" width="12.7029" height="1.2098" rx="0.604902" transform="rotate(-17.4194 72.4409 114.971)" fill="#DBD1D1" stroke="black" stroke-width="1.2098"/>
<circle cx="88.4738" cy="100.906" r="1.76838" transform="rotate(-17.4194 88.4738 100.906)" fill="#DBD1D1" stroke="black"/>
<circle cx="90.8278" cy="108.409" r="1.76838" transform="rotate(-17.4194 90.8278 108.409)" fill="#DBD1D1" stroke="black"/>
<circle cx="86.1198" cy="93.4028" r="1.76838" transform="rotate(-17.4194 86.1198 93.4028)" fill="#DBD1D1" stroke="black"/>
<circle cx="88.4738" cy="100.906" r="1.76838" transform="rotate(-17.4194 88.4738 100.906)" fill="#DBD1D1" stroke="black"/>
<circle cx="93.182" cy="115.913" r="1.76838" transform="rotate(-17.4194 93.182 115.913)" fill="#DBD1D1" stroke="black"/>
<circle cx="95.536" cy="123.415" r="1.76838" transform="rotate(-17.4194 95.536 123.415)" fill="#DBD1D1" stroke="black"/>
<defs>
<filter id="filter0_i" x="114.775" y="58.5107" width="60.6289" height="46.262" filterUnits="userSpaceOnUse" color-interpolation-filters="sRGB">
<feFlood flood-opacity="0" result="BackgroundImageFix"/>
<feBlend mode="normal" in="SourceGraphic" in2="BackgroundImageFix" result="shape"/>
<feColorMatrix in="SourceAlpha" type="matrix" values="0 0 0 0 0 0 0 0 0 0 0 0 0 0 0 0 0 0 127 0" result="hardAlpha"/>
<feOffset dy="7"/>
<feGaussianBlur stdDeviation="5"/>
<feComposite in2="hardAlpha" operator="arithmetic" k2="-1" k3="1"/>
<feColorMatrix type="matrix" values="0 0 0 0 0.956863 0 0 0 0 0.956863 0 0 0 0 0.956863 0 0 0 1 0"/>
<feBlend mode="normal" in2="shape" result="effect1_innerShadow"/>
</filter>
<filter id="filter1_i" x="91.2246" y="43.6821" width="43.238" height="36.3606" filterUnits="userSpaceOnUse" color-interpolation-filters="sRGB">
<feFlood flood-opacity="0" result="BackgroundImageFix"/>
<feBlend mode="normal" in="SourceGraphic" in2="BackgroundImageFix" result="shape"/>
<feColorMatrix in="SourceAlpha" type="matrix" values="0 0 0 0 0 0 0 0 0 0 0 0 0 0 0 0 0 0 127 0" result="hardAlpha"/>
<feOffset dx="4" dy="4"/>
<feGaussianBlur stdDeviation="5"/>
<feComposite in2="hardAlpha" operator="arithmetic" k2="-1" k3="1"/>
<feColorMatrix type="matrix" values="0 0 0 0 0.956863 0 0 0 0 0.956863 0 0 0 0 0.956863 0 0 0 1 0"/>
<feBlend mode="normal" in2="shape" result="effect1_innerShadow"/>
</filter>
<filter id="filter2_i" x="131.006" y="93.2422" width="35.5698" height="43.6783" filterUnits="userSpaceOnUse" color-interpolation-filters="sRGB">
<feFlood flood-opacity="0" result="BackgroundImageFix"/>
<feBlend mode="normal" in="SourceGraphic" in2="BackgroundImageFix" result="shape"/>
<feColorMatrix in="SourceAlpha" type="matrix" values="0 0 0 0 0 0 0 0 0 0 0 0 0 0 0 0 0 0 127 0" result="hardAlpha"/>
<feOffset dx="5"/>
<feGaussianBlur stdDeviation="5"/>
<feComposite in2="hardAlpha" operator="arithmetic" k2="-1" k3="1"/>
<feColorMatrix type="matrix" values="0 0 0 0 0.956863 0 0 0 0 0.956863 0 0 0 0 0.956863 0 0 0 1 0"/>
<feBlend mode="normal" in2="shape" result="effect1_innerShadow"/>
</filter>
<filter id="filter3_i" x="87.7795" y="119.489" width="35.9749" height="63.9852" filterUnits="userSpaceOnUse" color-interpolation-filters="sRGB">
<feFlood flood-opacity="0" result="BackgroundImageFix"/>
<feBlend mode="normal" in="SourceGraphic" in2="BackgroundImageFix" result="shape"/>
<feColorMatrix in="SourceAlpha" type="matrix" values="0 0 0 0 0 0 0 0 0 0 0 0 0 0 0 0 0 0 127 0" result="hardAlpha"/>
<feOffset dx="4" dy="4"/>
<feGaussianBlur stdDeviation="5"/>
<feComposite in2="hardAlpha" operator="arithmetic" k2="-1" k3="1"/>
<feColorMatrix type="matrix" values="0 0 0 0 0.956863 0 0 0 0 0.956863 0 0 0 0 0.956863 0 0 0 1 0"/>
<feBlend mode="normal" in2="shape" result="effect1_innerShadow"/>
</filter>
</defs>
</svg>
