<svg width="202" height="203" viewBox="0 0 202 203" fill="none" xmlns="http://www.w3.org/2000/svg">
<path d="M201.312 101.547C201.312 157.109 156.271 202.151 100.709 202.151C45.147 202.151 0.105225 157.109 0.105225 101.547C0.105225 45.9856 45.147 0.943848 100.709 0.943848C156.271 0.943848 201.312 45.9856 201.312 101.547Z" fill="#A9BBCA"/>
<path d="M201.312 101.547C201.312 157.109 156.271 202.151 100.709 202.151C45.147 202.151 0.105225 157.109 0.105225 101.547C0.105225 45.9856 45.147 0.943848 100.709 0.943848C156.271 0.943848 201.312 45.9856 201.312 101.547Z" fill="#A9BBCA"/>
<path d="M201.312 101.547C201.312 157.109 156.271 202.151 100.709 202.151C45.147 202.151 0.105225 157.109 0.105225 101.547C0.105225 45.9856 45.147 0.943848 100.709 0.943848C156.271 0.943848 201.312 45.9856 201.312 101.547Z" fill="white"/>
<mask id="path-2-inside-1" fill="white">
<path fill-rule="evenodd" clip-rule="evenodd" d="M128.018 127.353C112.951 121.647 114.615 126.749 120.038 133.27L115.579 135.623C112.784 137.097 111.022 139.169 110.327 141.273H104.644C102.254 141.273 100.316 143.211 100.316 145.601C100.316 147.992 102.254 149.929 104.644 149.929H134.794C137.184 149.929 139.122 147.992 139.122 145.601C139.122 143.251 137.249 141.339 134.915 141.275C140.644 137.66 142.36 132.785 128.018 127.353Z"/>
</mask>
<path fill-rule="evenodd" clip-rule="evenodd" d="M128.018 127.353C112.951 121.647 114.615 126.749 120.038 133.27L115.579 135.623C112.784 137.097 111.022 139.169 110.327 141.273H104.644C102.254 141.273 100.316 143.211 100.316 145.601C100.316 147.992 102.254 149.929 104.644 149.929H134.794C137.184 149.929 139.122 147.992 139.122 145.601C139.122 143.251 137.249 141.339 134.915 141.275C140.644 137.66 142.36 132.785 128.018 127.353Z" fill="#A9BBCA"/>
<path d="M120.038 133.27L120.971 135.039L123.153 133.887L121.576 131.991L120.038 133.27ZM128.018 127.353L128.726 125.483L128.726 125.483L128.018 127.353ZM115.579 135.623L116.512 137.391L116.512 137.391L115.579 135.623ZM110.327 141.273V143.273H111.772L112.226 141.901L110.327 141.273ZM134.915 141.275L133.848 139.583L128.285 143.093L134.86 143.274L134.915 141.275ZM121.576 131.991C120.251 130.398 119.236 128.984 118.651 127.865C118.357 127.303 118.219 126.905 118.172 126.657C118.125 126.403 118.205 126.501 118.079 126.721C117.931 126.98 117.743 126.984 117.924 126.939C118.138 126.886 118.597 126.842 119.417 126.939C121.049 127.133 123.588 127.814 127.31 129.224L128.726 125.483C124.914 124.039 122.011 123.219 119.887 122.967C118.829 122.842 117.831 122.84 116.959 123.057C116.055 123.282 115.153 123.783 114.609 124.732C114.089 125.64 114.095 126.618 114.242 127.398C114.39 128.184 114.717 128.974 115.106 129.719C115.887 131.212 117.114 132.881 118.5 134.548L121.576 131.991ZM116.512 137.391L120.971 135.039L119.105 131.501L114.645 133.854L116.512 137.391ZM112.226 141.901C112.729 140.379 114.082 138.674 116.512 137.391L114.645 133.854C111.487 135.52 109.316 137.958 108.428 140.645L112.226 141.901ZM104.644 143.273H110.327V139.273H104.644V143.273ZM102.316 145.601C102.316 144.315 103.358 143.273 104.644 143.273V139.273C101.149 139.273 98.3162 142.106 98.3162 145.601H102.316ZM104.644 147.929C103.358 147.929 102.316 146.887 102.316 145.601H98.3162C98.3162 149.096 101.149 151.929 104.644 151.929V147.929ZM134.794 147.929H104.644V151.929H134.794V147.929ZM137.122 145.601C137.122 146.887 136.08 147.929 134.794 147.929V151.929C138.289 151.929 141.122 149.096 141.122 145.601H137.122ZM134.86 143.274C136.115 143.308 137.122 144.337 137.122 145.601H141.122C141.122 142.165 138.384 139.369 134.97 139.275L134.86 143.274ZM127.31 129.224C130.81 130.55 133.212 131.799 134.78 132.933C136.369 134.081 136.913 134.974 137.065 135.527C137.191 135.982 137.129 136.489 136.638 137.184C136.112 137.928 135.178 138.744 133.848 139.583L135.982 142.966C137.516 141.998 138.946 140.849 139.904 139.493C140.898 138.087 141.444 136.358 140.921 134.464C140.426 132.668 139.068 131.097 137.124 129.691C135.159 128.27 132.397 126.873 128.726 125.483L127.31 129.224Z" fill="black" mask="url(#path-2-inside-1)"/>
<path d="M114.358 141.181C125.974 141.181 125.974 138.831 125.974 141.181" stroke="black" stroke-width="2"/>
<g filter="url(#filter0_i)">
<mask id="path-5-inside-2" fill="white">
<path fill-rule="evenodd" clip-rule="evenodd" d="M59.4043 36.8586C69.0904 34.4741 75.1755 34.4129 86.3756 37.148C87.3913 38.0903 88.4627 38.7931 89.5119 39.4813C93.0762 41.8194 96.3847 43.9896 96.3847 54.8113C96.3847 56.3047 95.7004 57.4472 94.4925 58.3006C95.7587 60.2024 96.4966 62.4861 96.4966 64.9422V157.644C96.4966 165.252 90.8033 171.718 83.2226 172.357C73.8466 173.146 66.646 173.255 59.4918 172.662C52.2511 172.062 47.0538 165.696 47.0538 158.431V64.9422C47.0538 61.313 48.6649 58.0601 51.2108 55.8597C51.1608 55.8483 51.1111 55.837 51.0617 55.8257C48.6164 55.2676 46.9837 52.9373 47.4839 50.4796C48.6367 44.8146 50.8679 41.2999 57.2134 37.7172C57.8979 37.3308 58.6411 37.0465 59.4043 36.8586Z"/>
</mask>
<path fill-rule="evenodd" clip-rule="evenodd" d="M59.4043 36.8586C69.0904 34.4741 75.1755 34.4129 86.3756 37.148C87.3913 38.0903 88.4627 38.7931 89.5119 39.4813C93.0762 41.8194 96.3847 43.9896 96.3847 54.8113C96.3847 56.3047 95.7004 57.4472 94.4925 58.3006C95.7587 60.2024 96.4966 62.4861 96.4966 64.9422V157.644C96.4966 165.252 90.8033 171.718 83.2226 172.357C73.8466 173.146 66.646 173.255 59.4918 172.662C52.2511 172.062 47.0538 165.696 47.0538 158.431V64.9422C47.0538 61.313 48.6649 58.0601 51.2108 55.8597C51.1608 55.8483 51.1111 55.837 51.0617 55.8257C48.6164 55.2676 46.9837 52.9373 47.4839 50.4796C48.6367 44.8146 50.8679 41.2999 57.2134 37.7172C57.8979 37.3308 58.6411 37.0465 59.4043 36.8586Z" fill="#DBD1D1"/>
<path d="M86.3756 37.148L86.8501 35.2051L87.3549 35.3284L87.7359 35.6818L86.3756 37.148ZM59.4043 36.8586L58.9262 34.9166L58.9262 34.9166L59.4043 36.8586ZM89.5119 39.4813L90.6089 37.809L90.6089 37.809L89.5119 39.4813ZM96.3847 54.8113L98.3847 54.8113L96.3847 54.8113ZM94.4925 58.3006L92.8277 59.4089L91.7497 57.7896L93.3385 56.6671L94.4925 58.3006ZM83.2226 172.357L83.3904 174.349L83.3904 174.349L83.2226 172.357ZM59.4918 172.662L59.657 170.669L59.657 170.669L59.4918 172.662ZM51.2108 55.8597L51.6547 53.9096L55.5103 54.7872L52.5186 57.3728L51.2108 55.8597ZM51.0617 55.8257L51.5068 53.8758L51.5068 53.8759L51.0617 55.8257ZM47.4839 50.4796L49.4437 50.8784L49.4437 50.8784L47.4839 50.4796ZM57.2134 37.7172L56.2301 35.9756L56.2301 35.9756L57.2134 37.7172ZM85.9012 39.0909C80.3815 37.743 76.2264 37.1105 72.3084 37.0834C68.399 37.0564 64.6312 37.6316 59.8824 38.8007L58.9262 34.9166C63.8635 33.7012 67.9813 33.0535 72.336 33.0835C76.6821 33.1135 81.1696 33.8179 86.8501 35.2051L85.9012 39.0909ZM88.4149 41.1536C87.3805 40.4751 86.1718 39.6871 85.0154 38.6142L87.7359 35.6818C88.6108 36.4935 89.5449 37.111 90.6089 37.809L88.4149 41.1536ZM94.3847 54.8113C94.3847 49.5741 93.5786 46.728 92.5562 44.9707C91.5475 43.2369 90.2131 42.3332 88.4149 41.1536L90.6089 37.809C92.375 38.9675 94.477 40.318 96.0137 42.9592C97.5366 45.577 98.3847 49.2268 98.3847 54.8113L94.3847 54.8113ZM93.3385 56.6671C94.091 56.1355 94.3847 55.5683 94.3847 54.8113L98.3847 54.8113C98.3847 57.0412 97.3098 58.7589 95.6466 59.934L93.3385 56.6671ZM94.4966 64.9422C94.4966 62.8926 93.8821 60.9926 92.8277 59.4089L96.1573 57.1922C97.6353 59.4121 98.4966 62.0796 98.4966 64.9422H94.4966ZM94.4966 157.644V64.9422H98.4966V157.644H94.4966ZM83.0548 170.364C89.5529 169.816 94.4966 164.26 94.4966 157.644H98.4966C98.4966 166.244 92.0536 173.62 83.3904 174.349L83.0548 170.364ZM59.657 170.669C66.669 171.25 73.753 171.147 83.0548 170.364L83.3904 174.349C73.9401 175.145 66.623 175.26 59.3266 174.655L59.657 170.669ZM49.0538 158.431C49.0538 164.788 53.5806 170.165 59.657 170.669L59.3266 174.655C50.9216 173.958 45.0538 166.604 45.0538 158.431H49.0538ZM49.0538 64.9422V158.431H45.0538V64.9422H49.0538ZM52.5186 57.3728C50.3935 59.2096 49.0538 61.9183 49.0538 64.9422H45.0538C45.0538 60.7078 46.9362 56.9107 49.903 54.3465L52.5186 57.3728ZM51.5068 53.8759C51.5557 53.887 51.605 53.8983 51.6547 53.9096L50.7669 57.8098C50.7165 57.7983 50.6664 57.7869 50.6166 57.7756L51.5068 53.8759ZM49.4437 50.8784C49.1774 52.187 50.0339 53.5397 51.5068 53.8758L50.6167 57.7756C47.199 56.9955 44.79 53.6877 45.5241 50.0807L49.4437 50.8784ZM58.1967 39.4588C55.176 41.1643 53.2863 42.769 52.0131 44.5018C50.7463 46.2257 49.9851 48.2179 49.4437 50.8784L45.5241 50.0807C46.1355 47.0763 47.0663 44.4786 48.7897 42.1333C50.5066 39.7968 52.9053 37.8528 56.2301 35.9756L58.1967 39.4588ZM59.8824 38.8007C59.2791 38.9492 58.7083 39.1699 58.1967 39.4588L56.2301 35.9756C57.0875 35.4916 58.003 35.1439 58.9262 34.9166L59.8824 38.8007Z" fill="black" mask="url(#path-5-inside-2)"/>
<path d="M85.9739 20.4065C82.6642 18.6148 77.182 17.9216 71.7783 18.0576C69.1019 18.125 66.4946 18.3946 64.2557 18.8126C61.9977 19.2341 60.1847 19.7938 59.0529 20.4065C58.2196 20.8576 57.6554 21.9136 57.4305 23.6427C57.2106 25.3331 57.3538 27.4038 57.6651 29.4598C57.9745 31.5031 58.4401 33.471 58.8303 34.9329C59.0077 35.5974 59.1688 36.1547 59.2913 36.5635C69.5172 35.6293 75.6016 35.721 85.8401 36.579C86.0139 36.1946 86.2528 35.6454 86.5181 34.9765C87.0606 33.6089 87.7058 31.7598 88.1337 29.807C88.5646 27.8409 88.7584 25.8442 88.4585 24.1511C88.1639 22.4882 87.4113 21.1847 85.9739 20.4065Z" fill="#E9D5CD" stroke="black" stroke-width="2"/>
<g filter="url(#filter1_i)">
<rect width="25.7193" height="88.2048" rx="2" transform="matrix(-1 0 0 1 84.5464 68.9795)" fill="#E9D5CD"/>
</g>
<rect x="-1" y="1" width="23.7193" height="86.2048" rx="1" transform="matrix(-1 0 0 1 82.5464 68.9795)" stroke="black" stroke-width="2"/>
</g>
<mask id="path-10-inside-3" fill="white">
<path fill-rule="evenodd" clip-rule="evenodd" d="M119.496 185.799C136.95 185.799 151.099 177.783 151.099 167.894C151.099 166.796 150.925 165.721 150.59 164.677C149.856 162.386 149.67 159.802 151.031 157.818V157.818C153.307 154.5 150.931 149.99 146.908 149.99H121.331H119.744C119.661 149.99 119.579 149.99 119.496 149.99C115.28 149.99 111.091 149.749 107.161 149.523C94.8202 148.814 85.0386 148.252 85.0386 155.752C85.0386 165.641 102.042 185.799 119.496 185.799Z"/>
</mask>
<path fill-rule="evenodd" clip-rule="evenodd" d="M119.496 185.799C136.95 185.799 151.099 177.783 151.099 167.894C151.099 166.796 150.925 165.721 150.59 164.677C149.856 162.386 149.67 159.802 151.031 157.818V157.818C153.307 154.5 150.931 149.99 146.908 149.99H121.331H119.744C119.661 149.99 119.579 149.99 119.496 149.99C115.28 149.99 111.091 149.749 107.161 149.523C94.8202 148.814 85.0386 148.252 85.0386 155.752C85.0386 165.641 102.042 185.799 119.496 185.799Z" fill="#DBD1D1"/>
<path d="M119.744 149.99L119.735 151.99H119.744V149.99ZM107.161 149.523L107.046 151.52L107.161 149.523ZM150.59 164.677L152.495 164.067L150.59 164.677ZM149.099 167.894C149.099 171.803 146.283 175.74 140.857 178.815C135.49 181.855 127.942 183.799 119.496 183.799V187.799C128.504 187.799 136.757 185.735 142.829 182.295C148.84 178.889 153.099 173.875 153.099 167.894H149.099ZM148.686 165.287C148.959 166.141 149.099 167.011 149.099 167.894H153.099C153.099 166.581 152.89 165.3 152.495 164.067L148.686 165.287ZM146.908 151.99C149.322 151.99 150.747 154.696 149.382 156.687L152.681 158.949C155.867 154.304 152.541 147.99 146.908 147.99V151.99ZM121.331 151.99H146.908V147.99H121.331V151.99ZM119.744 151.99H121.331V147.99H119.744V151.99ZM119.496 151.99C119.576 151.99 119.655 151.99 119.735 151.99L119.752 147.99C119.667 147.99 119.582 147.99 119.496 147.99V151.99ZM107.046 151.52C110.968 151.745 115.214 151.99 119.496 151.99V147.99C115.347 147.99 111.214 147.753 107.276 147.526L107.046 151.52ZM87.0386 155.752C87.0386 154.366 87.4636 153.568 88.0918 153.007C88.8034 152.371 89.9902 151.854 91.8218 151.528C95.5244 150.871 100.777 151.16 107.046 151.52L107.276 147.526C101.204 147.177 95.3956 146.831 91.1222 147.59C88.9658 147.973 86.9358 148.677 85.4277 150.023C83.8362 151.444 83.0386 153.388 83.0386 155.752H87.0386ZM119.496 183.799C111.501 183.799 103.361 179.143 97.1188 173.052C94.023 170.032 91.4717 166.732 89.7064 163.63C87.915 160.482 87.0386 157.724 87.0386 155.752H83.0386C83.0386 158.724 84.2876 162.195 86.2299 165.608C88.1981 169.067 90.9886 172.66 94.3255 175.915C100.948 182.377 110.037 187.799 119.496 187.799V183.799ZM152.495 164.067C151.83 161.989 151.844 160.169 152.681 158.949L149.382 156.687C147.497 159.435 147.883 162.782 148.686 165.287L152.495 164.067Z" fill="black" mask="url(#path-10-inside-3)"/>
<mask id="path-12-inside-4" fill="white">
<path fill-rule="evenodd" clip-rule="evenodd" d="M124.545 69.2806C123.422 70.332 123.349 72.0492 124.383 73.116L138.077 87.2388L135.696 89.6744L122.089 75.6418C121.055 74.575 119.305 74.5626 118.182 75.614C117.058 76.6655 116.985 78.3826 118.02 79.4494L131.798 93.6599L129.417 96.0954L115.533 81.7763C114.498 80.7095 112.749 80.697 111.625 81.7485C110.501 82.7999 110.428 84.5171 111.463 85.5839L125.52 100.081L123.138 102.517L109.169 88.1101C108.135 87.0433 106.385 87.0309 105.261 88.0823C104.137 89.1337 104.065 90.8509 105.099 91.9177L119.617 106.89C123.87 112.854 131.638 115.093 138.468 111.83C139.151 111.504 139.802 111.133 140.42 110.723L181.192 145.278L146.816 102.616C148.339 98.6014 148.413 93.9996 146.677 89.7806C146.208 88.6385 145.629 87.5835 144.961 86.6229C144.839 86.3108 144.655 86.0179 144.407 85.7624L143.645 84.9758C143.441 84.7527 143.231 84.5365 143.016 84.3274L128.453 69.3084C127.419 68.2416 125.669 68.2292 124.545 69.2806Z"/>
</mask>
<g filter="url(#filter2_i)">
<path fill-rule="evenodd" clip-rule="evenodd" d="M124.545 69.2806C123.422 70.332 123.349 72.0492 124.383 73.116L138.077 87.2388L135.696 89.6744L122.089 75.6418C121.055 74.575 119.305 74.5626 118.182 75.614C117.058 76.6655 116.985 78.3826 118.02 79.4494L131.798 93.6599L129.417 96.0954L115.533 81.7763C114.498 80.7095 112.749 80.697 111.625 81.7485C110.501 82.7999 110.428 84.5171 111.463 85.5839L125.52 100.081L123.138 102.517L109.169 88.1101C108.135 87.0433 106.385 87.0309 105.261 88.0823C104.137 89.1337 104.065 90.8509 105.099 91.9177L119.617 106.89C123.87 112.854 131.638 115.093 138.468 111.83C139.151 111.504 139.802 111.133 140.42 110.723L181.192 145.278L146.816 102.616C148.339 98.6014 148.413 93.9996 146.677 89.7806C146.208 88.6385 145.629 87.5835 144.961 86.6229C144.839 86.3108 144.655 86.0179 144.407 85.7624L143.645 84.9758C143.441 84.7527 143.231 84.5365 143.016 84.3274L128.453 69.3084C127.419 68.2416 125.669 68.2292 124.545 69.2806Z" fill="#E9D5CD"/>
</g>
<path d="M124.383 73.116L125.787 71.6394L125.787 71.6394L124.383 73.116ZM138.077 87.2388L139.422 88.669L140.867 87.1917L139.481 85.7623L138.077 87.2388ZM135.696 89.6744L134.292 91.1509L135.638 92.539L137.041 91.1045L135.696 89.6744ZM122.089 75.6418L123.493 74.1653L123.493 74.1653L122.089 75.6418ZM118.182 75.614L116.903 74.1184L116.903 74.1184L118.182 75.614ZM118.02 79.4494L119.423 77.9729L119.423 77.9728L118.02 79.4494ZM131.798 93.6599L133.143 95.09L134.588 93.6127L133.202 92.1833L131.798 93.6599ZM129.417 96.0954L128.013 97.5719L129.359 98.96L130.762 97.5255L129.417 96.0954ZM115.533 81.7763L114.129 83.2529L114.129 83.2529L115.533 81.7763ZM111.463 85.5839L110.059 87.0604L110.059 87.0604L111.463 85.5839ZM125.52 100.081L126.865 101.511L128.309 100.034L126.923 98.6043L125.52 100.081ZM123.138 102.517L121.734 103.993L123.08 105.381L124.483 103.947L123.138 102.517ZM109.169 88.1101L110.573 86.6335L110.573 86.6335L109.169 88.1101ZM105.261 88.0823L103.983 86.5866L103.983 86.5866L105.261 88.0823ZM105.099 91.9177L106.503 90.4411L105.099 91.9177ZM119.617 106.89L121.204 105.635L121.121 105.517L121.021 105.414L119.617 106.89ZM140.42 110.723L141.689 109.121L140.618 108.213L139.412 109.013L140.42 110.723ZM181.192 145.278L179.923 146.88L182.711 143.932L181.192 145.278ZM146.816 102.616L144.998 101.927L144.569 103.058L145.297 103.962L146.816 102.616ZM144.961 86.6229L143.142 87.4497L143.228 87.6694L143.361 87.8605L144.961 86.6229ZM144.407 85.7624L145.811 84.2858L145.811 84.2858L144.407 85.7624ZM143.645 84.9758L142.204 86.4125L142.222 86.4327L142.241 86.4523L143.645 84.9758ZM143.016 84.3274L141.612 85.8039L141.631 85.8236L141.651 85.8427L143.016 84.3274ZM128.453 69.3084L129.857 67.8319L129.857 67.8319L128.453 69.3084ZM125.787 71.6394C125.648 71.4965 125.606 71.3408 125.612 71.2065C125.617 71.0722 125.673 70.9171 125.823 70.7763L123.267 67.7849C121.288 69.6363 121.158 72.7142 122.98 74.5926L125.787 71.6394ZM139.481 85.7623L125.787 71.6394L122.98 74.5926L136.674 88.7154L139.481 85.7623ZM136.732 85.8087L134.351 88.2442L137.041 91.1045L139.422 88.669L136.732 85.8087ZM137.099 88.1978L123.493 74.1653L120.686 77.1184L134.292 91.1509L137.099 88.1978ZM123.493 74.1653C121.736 72.3537 118.812 72.3329 116.903 74.1184L119.46 77.1097C119.799 76.7923 120.373 76.7964 120.686 77.1184L123.493 74.1653ZM116.903 74.1184C114.925 75.9697 114.795 79.0476 116.616 80.926L119.423 77.9728C119.285 77.8299 119.242 77.6742 119.248 77.5399C119.253 77.4056 119.309 77.2505 119.46 77.1097L116.903 74.1184ZM116.616 80.926L130.395 95.1364L133.202 92.1833L119.423 77.9729L116.616 80.926ZM130.453 92.2297L128.072 94.6652L130.762 97.5255L133.143 95.09L130.453 92.2297ZM130.82 94.6188L116.936 80.2997L114.129 83.2529L128.013 97.5719L130.82 94.6188ZM116.936 80.2997C115.18 78.4882 112.255 78.4674 110.347 80.2528L112.903 83.2441C113.242 82.9267 113.817 82.9308 114.129 83.2529L116.936 80.2997ZM110.347 80.2528C108.368 82.1041 108.238 85.182 110.059 87.0604L112.866 84.1073C112.728 83.9644 112.685 83.8086 112.691 83.6743C112.697 83.54 112.752 83.385 112.903 83.2441L110.347 80.2528ZM110.059 87.0604L124.116 101.557L126.923 98.6043L112.866 84.1073L110.059 87.0604ZM124.174 98.6507L121.793 101.086L124.483 103.947L126.865 101.511L124.174 98.6507ZM124.541 101.04L110.573 86.6335L107.765 89.5867L121.734 103.993L124.541 101.04ZM110.573 86.6335C108.816 84.822 105.891 84.8012 103.983 86.5866L106.539 89.5779C106.878 89.2605 107.453 89.2646 107.765 89.5867L110.573 86.6335ZM103.983 86.5866C102.004 88.4379 101.874 91.5159 103.696 93.3942L106.503 90.4411C106.364 90.2982 106.322 90.1425 106.327 90.0081C106.333 89.8738 106.389 89.7188 106.539 89.5779L103.983 86.5866ZM103.696 93.3942L118.213 108.367L121.021 105.414L106.503 90.4411L103.696 93.3942ZM118.03 108.146C122.787 114.818 131.513 117.366 139.229 113.679L137.707 109.98C131.763 112.82 124.953 110.891 121.204 105.635L118.03 108.146ZM139.229 113.679C139.997 113.312 140.731 112.895 141.428 112.432L139.412 109.013C138.873 109.371 138.304 109.695 137.707 109.98L139.229 113.679ZM139.15 112.325L179.923 146.88L182.461 143.676L141.689 109.121L139.15 112.325ZM182.711 143.932L148.335 101.27L145.297 103.962L179.673 146.624L182.711 143.932ZM148.634 103.304C150.343 98.7977 150.424 93.638 148.482 88.9183L144.873 90.6428C146.403 94.3612 146.334 98.405 144.998 101.927L148.634 103.304ZM148.482 88.9183C147.957 87.6426 147.31 86.4619 146.561 85.3852L143.361 87.8605C143.948 88.7052 144.458 89.6344 144.873 90.6428L148.482 88.9183ZM143.004 87.2389C143.074 87.3109 143.116 87.3833 143.142 87.4497L146.78 85.796C146.562 85.2382 146.237 84.7249 145.811 84.2858L143.004 87.2389ZM142.241 86.4523L143.004 87.2389L145.811 84.2858L145.048 83.4992L142.241 86.4523ZM145.086 83.5391C144.857 83.289 144.622 83.0466 144.381 82.8121L141.651 85.8427C141.84 86.0265 142.024 86.2164 142.204 86.4125L145.086 83.5391ZM127.05 70.785L141.612 85.8039L144.42 82.8508L129.857 67.8319L127.05 70.785ZM125.823 70.7763C126.163 70.4588 126.737 70.4629 127.05 70.785L129.857 67.8319C128.1 66.0203 125.176 65.9995 123.267 67.7849L125.823 70.7763Z" fill="black" mask="url(#path-12-inside-4)"/>
<path d="M136.982 172.82C143.857 168.292 130.454 173.655 117.885 172.82" stroke="black" stroke-width="2"/>
<line y1="-1" x2="33.2113" y2="-1" transform="matrix(0.720591 -0.693361 0.637986 0.770048 119.416 107.334)" stroke="black" stroke-width="2"/>
<defs>
<filter id="filter0_i" x="47.0537" y="17.041" width="49.4428" height="159.998" filterUnits="userSpaceOnUse" color-interpolation-filters="sRGB">
<feFlood flood-opacity="0" result="BackgroundImageFix"/>
<feBlend mode="normal" in="SourceGraphic" in2="BackgroundImageFix" result="shape"/>
<feColorMatrix in="SourceAlpha" type="matrix" values="0 0 0 0 0 0 0 0 0 0 0 0 0 0 0 0 0 0 127 0" result="hardAlpha"/>
<feOffset dy="4"/>
<feGaussianBlur stdDeviation="10"/>
<feComposite in2="hardAlpha" operator="arithmetic" k2="-1" k3="1"/>
<feColorMatrix type="matrix" values="0 0 0 0 0.956863 0 0 0 0 0.956863 0 0 0 0 0.956863 0 0 0 1 0"/>
<feBlend mode="normal" in2="shape" result="effect1_innerShadow"/>
</filter>
<filter id="filter1_i" x="58.8271" y="68.9795" width="25.7193" height="92.2048" filterUnits="userSpaceOnUse" color-interpolation-filters="sRGB">
<feFlood flood-opacity="0" result="BackgroundImageFix"/>
<feBlend mode="normal" in="SourceGraphic" in2="BackgroundImageFix" result="shape"/>
<feColorMatrix in="SourceAlpha" type="matrix" values="0 0 0 0 0 0 0 0 0 0 0 0 0 0 0 0 0 0 127 0" result="hardAlpha"/>
<feOffset dy="4"/>
<feGaussianBlur stdDeviation="2"/>
<feComposite in2="hardAlpha" operator="arithmetic" k2="-1" k3="1"/>
<feColorMatrix type="matrix" values="0 0 0 0 0.956863 0 0 0 0 0.956863 0 0 0 0 0.956863 0 0 0 1 0"/>
<feBlend mode="normal" in2="shape" result="effect1_innerShadow"/>
</filter>
<filter id="filter2_i" x="104.368" y="68.5" width="76.8237" height="80.7775" filterUnits="userSpaceOnUse" color-interpolation-filters="sRGB">
<feFlood flood-opacity="0" result="BackgroundImageFix"/>
<feBlend mode="normal" in="SourceGraphic" in2="BackgroundImageFix" result="shape"/>
<feColorMatrix in="SourceAlpha" type="matrix" values="0 0 0 0 0 0 0 0 0 0 0 0 0 0 0 0 0 0 127 0" result="hardAlpha"/>
<feOffset dy="4"/>
<feGaussianBlur stdDeviation="15"/>
<feComposite in2="hardAlpha" operator="arithmetic" k2="-1" k3="1"/>
<feColorMatrix type="matrix" values="0 0 0 0 0.956863 0 0 0 0 0.956863 0 0 0 0 0.956863 0 0 0 1 0"/>
<feBlend mode="normal" in2="shape" result="effect1_innerShadow"/>
</filter>
</defs>
</svg>
