<svg width="500" height="500" viewBox="0 0 500 500" fill="none" xmlns="http://www.w3.org/2000/svg">
<path d="M500 250C500 388.071 388.071 500 250 500C111.929 500 0 388.071 0 250C0 111.929 111.929 0 250 0C388.071 0 500 111.929 500 250Z" fill="#A9BBCA"/>
<path d="M500 250C500 388.071 388.071 500 250 500C111.929 500 0 388.071 0 250C0 111.929 111.929 0 250 0C388.071 0 500 111.929 500 250Z" fill="#A9BBCA"/>
<path d="M500 250C500 388.071 388.071 500 250 500C111.929 500 0 388.071 0 250C0 111.929 111.929 0 250 0C388.071 0 500 111.929 500 250Z" fill="#F4F4F4"/>
<mask id="path-2-inside-1" fill="white">
<path fill-rule="evenodd" clip-rule="evenodd" d="M322.036 305.09C282.586 291.169 286.945 303.615 301.143 319.522L290.789 324.612C283.167 328.359 278.312 333.677 276.374 339.045H260.064C254.233 339.045 249.506 343.772 249.506 349.603C249.506 355.434 254.233 360.161 260.064 360.161H340.551C346.382 360.161 351.109 355.434 351.109 349.603C351.109 343.772 346.382 339.045 340.551 339.045H340.1C355.096 330.227 359.582 318.338 322.036 305.09Z"/>
</mask>
<path fill-rule="evenodd" clip-rule="evenodd" d="M322.036 305.09C282.586 291.169 286.945 303.615 301.143 319.522L290.789 324.612C283.167 328.359 278.312 333.677 276.374 339.045H260.064C254.233 339.045 249.506 343.772 249.506 349.603C249.506 355.434 254.233 360.161 260.064 360.161H340.551C346.382 360.161 351.109 355.434 351.109 349.603C351.109 343.772 346.382 339.045 340.551 339.045H340.1C355.096 330.227 359.582 318.338 322.036 305.09Z" fill="#A9BBCA"/>
<path d="M301.143 319.522L302.026 321.317L304.389 320.155L302.635 318.19L301.143 319.522ZM322.036 305.09L321.371 306.976L322.036 305.09ZM290.789 324.612L289.907 322.817L290.789 324.612ZM276.374 339.045V341.045H277.779L278.255 339.724L276.374 339.045ZM340.1 339.045L339.086 337.321L332.754 341.045H340.1V339.045ZM302.635 318.19C299.117 314.249 296.296 310.616 294.614 307.619C293.771 306.118 293.27 304.874 293.073 303.898C292.875 302.923 293.018 302.424 293.175 302.168C293.321 301.93 293.701 301.547 294.796 301.293C295.909 301.035 297.565 300.964 299.913 301.223C304.6 301.74 311.553 303.512 321.371 306.976L322.702 303.204C312.795 299.708 305.498 297.815 300.351 297.247C297.782 296.964 295.624 296.996 293.894 297.396C292.147 297.801 290.655 298.631 289.768 300.073C288.891 301.497 288.839 303.143 289.152 304.691C289.465 306.238 290.18 307.893 291.126 309.578C293.022 312.954 296.07 316.842 299.651 320.854L302.635 318.19ZM291.671 326.407L302.026 321.317L300.261 317.727L289.907 322.817L291.671 326.407ZM278.255 339.724C279.978 334.953 284.398 329.983 291.671 326.407L289.907 322.817C281.936 326.735 276.647 332.4 274.493 338.366L278.255 339.724ZM260.064 341.045H276.374V337.045H260.064V341.045ZM251.506 349.603C251.506 344.876 255.338 341.045 260.064 341.045V337.045C253.129 337.045 247.506 342.667 247.506 349.603H251.506ZM260.064 358.161C255.338 358.161 251.506 354.329 251.506 349.603H247.506C247.506 356.538 253.129 362.161 260.064 362.161V358.161ZM340.551 358.161H260.064V362.161H340.551V358.161ZM349.109 349.603C349.109 354.329 345.278 358.161 340.551 358.161V362.161C347.487 362.161 353.109 356.538 353.109 349.603H349.109ZM340.551 341.045C345.278 341.045 349.109 344.876 349.109 349.603H353.109C353.109 342.667 347.487 337.045 340.551 337.045V341.045ZM340.1 341.045H340.551V337.045H340.1V341.045ZM321.371 306.976C330.677 310.26 337.261 313.42 341.69 316.403C346.15 319.408 348.197 322.079 348.853 324.297C349.473 326.387 348.965 328.465 347.29 330.674C345.576 332.934 342.739 335.173 339.086 337.321L341.114 340.769C344.959 338.508 348.306 335.954 350.477 333.091C352.688 330.177 353.767 326.8 352.689 323.161C351.648 319.648 348.714 316.312 343.924 313.086C339.103 309.838 332.168 306.544 322.702 303.204L321.371 306.976Z" fill="black" mask="url(#path-2-inside-1)"/>
<path d="M286.271 338.82C316.685 338.82 316.685 333.089 316.685 338.82" stroke="black" stroke-width="2"/>
<g filter="url(#filter0_di)">
<mask id="path-5-inside-2" fill="white">
<path fill-rule="evenodd" clip-rule="evenodd" d="M140.481 84.7875C166.967 78.538 182.954 78.2113 213.008 85.0489C215.667 87.3475 218.472 89.0618 221.219 90.7407C230.551 96.444 239.214 101.738 239.214 128.136C239.214 129.262 239.042 130.307 238.712 131.274C239.225 132.61 239.506 134.06 239.506 135.576V398.077C239.506 405.73 233.726 412.169 226.111 412.936C180.562 417.519 154.021 417.764 122.621 413.445C115.356 412.446 110.054 406.151 110.054 398.818V135.576C110.054 132.957 110.893 130.534 112.318 128.56C110.676 127.581 109.749 125.682 110.059 123.679C112.858 105.624 118.014 95.8289 138.367 85.5552C139.032 85.2193 139.755 84.9587 140.481 84.7875Z"/>
</mask>
<path fill-rule="evenodd" clip-rule="evenodd" d="M140.481 84.7875C166.967 78.538 182.954 78.2113 213.008 85.0489C215.667 87.3475 218.472 89.0618 221.219 90.7407C230.551 96.444 239.214 101.738 239.214 128.136C239.214 129.262 239.042 130.307 238.712 131.274C239.225 132.61 239.506 134.06 239.506 135.576V398.077C239.506 405.73 233.726 412.169 226.111 412.936C180.562 417.519 154.021 417.764 122.621 413.445C115.356 412.446 110.054 406.151 110.054 398.818V135.576C110.054 132.957 110.893 130.534 112.318 128.56C110.676 127.581 109.749 125.682 110.059 123.679C112.858 105.624 118.014 95.8289 138.367 85.5552C139.032 85.2193 139.755 84.9587 140.481 84.7875Z" fill="#DBD1D1"/>
<path d="M213.008 85.0489L213.451 83.0987L213.938 83.2095L214.316 83.5358L213.008 85.0489ZM140.481 84.7875L140.94 86.7341L140.481 84.7875ZM221.219 90.7407L220.176 92.4472L221.219 90.7407ZM239.214 128.136L241.214 128.136L239.214 128.136ZM238.712 131.274L236.845 131.991L236.585 131.314L236.819 130.628L238.712 131.274ZM226.111 412.936L226.311 414.926H226.311L226.111 412.936ZM122.621 413.445L122.348 415.426H122.348L122.621 413.445ZM112.318 128.56L113.342 126.843L115.217 127.961L113.939 129.731L112.318 128.56ZM110.059 123.679L108.083 123.373V123.373L110.059 123.679ZM138.367 85.5552L139.268 87.3406L138.367 85.5552ZM212.564 86.9991C197.615 83.5981 186.266 82.0025 175.408 82.0105C164.555 82.0185 154.102 83.6285 140.94 86.7341L140.022 82.841C153.346 79.697 164.129 78.0189 175.405 78.0105C186.675 78.0022 198.346 79.6621 213.451 83.0987L212.564 86.9991ZM220.176 92.4472C217.445 90.7781 214.502 88.9841 211.7 86.562L214.316 83.5358C216.832 85.7109 219.499 87.3455 222.262 89.0341L220.176 92.4472ZM237.214 128.136C237.214 115.128 235.075 107.63 232.02 102.737C228.968 97.8509 224.869 95.315 220.176 92.4472L222.262 89.0341C226.902 91.8697 231.799 94.8324 235.412 100.619C239.022 106.398 241.214 114.745 241.214 128.136L237.214 128.136ZM236.819 130.628C237.074 129.881 237.214 129.056 237.214 128.136L241.214 128.136C241.214 129.468 241.01 130.732 240.605 131.92L236.819 130.628ZM237.506 135.576C237.506 134.309 237.272 133.102 236.845 131.991L240.579 130.557C241.179 132.118 241.506 133.811 241.506 135.576H237.506ZM237.506 398.077V135.576H241.506V398.077H237.506ZM225.911 410.946C232.495 410.283 237.506 404.711 237.506 398.077H241.506C241.506 406.749 234.956 414.056 226.311 414.926L225.911 410.946ZM122.893 411.464C154.079 415.753 180.449 415.52 225.911 410.946L226.311 414.926C180.676 419.518 153.963 419.774 122.348 415.426L122.893 411.464ZM112.054 398.818C112.054 405.188 116.654 410.606 122.893 411.464L122.348 415.426C114.058 414.286 108.054 407.114 108.054 398.818H112.054ZM112.054 135.576V398.818H108.054V135.576H112.054ZM113.939 129.731C112.753 131.375 112.054 133.391 112.054 135.576H108.054C108.054 132.523 109.034 129.692 110.696 127.39L113.939 129.731ZM112.036 123.985C111.85 125.184 112.402 126.282 113.342 126.843L111.293 130.278C108.951 128.881 107.648 126.18 108.083 123.373L112.036 123.985ZM139.268 87.3406C129.248 92.3989 123.191 97.23 119.27 102.844C115.347 108.462 113.418 115.067 112.036 123.985L108.083 123.373C109.499 114.236 111.548 106.916 115.991 100.554C120.436 94.1885 127.134 88.9852 137.466 83.7698L139.268 87.3406ZM140.94 86.7341C140.363 86.8703 139.789 87.0779 139.268 87.3406L137.466 83.7698C138.276 83.3607 139.148 83.0471 140.022 82.841L140.94 86.7341Z" fill="black" mask="url(#path-5-inside-2)"/>
<path d="M212.751 42.9573C203.691 38.3876 188.97 36.7073 174.746 37.041C167.658 37.2073 160.742 37.8724 154.783 38.9087C148.806 39.9483 143.86 41.35 140.674 42.9573C137.794 44.4095 136.221 47.5944 135.616 51.9275C135.014 56.2365 135.412 61.4339 136.235 66.4985C137.056 71.5495 138.289 76.4026 139.319 79.9983C139.833 81.7946 140.296 83.2734 140.63 84.3019C140.741 84.6421 140.837 84.933 140.916 85.1696C168.774 82.7452 184.744 82.9787 212.618 85.1846C212.736 84.9498 212.887 84.6472 213.064 84.2831C213.53 83.3259 214.176 81.9453 214.894 80.2584C216.332 76.8804 218.051 72.2947 219.194 67.4338C220.341 62.5589 220.889 57.4878 220.056 53.1054C219.231 48.7638 217.062 45.1317 212.751 42.9573Z" fill="#E9D5CD" stroke="black" stroke-width="2"/>
<g filter="url(#filter1_i)">
<rect width="67.3389" height="215.162" rx="2" transform="matrix(-1 0 0 1 208.218 162.697)" fill="#E9D5CD"/>
</g>
<rect x="-1" y="1" width="65.3389" height="213.162" rx="1" transform="matrix(-1 0 0 1 206.218 162.697)" stroke="black" stroke-width="2"/>
</g>
<g filter="url(#filter2_d)">
<mask id="path-10-inside-3" fill="white">
<path fill-rule="evenodd" clip-rule="evenodd" d="M299.724 447.66C345.422 447.66 382.468 428.105 382.468 403.983C382.468 400.517 381.703 397.145 380.257 393.911C378.433 389.832 378.177 384.989 380.826 381.391L390.484 368.272C392.915 364.97 390.558 360.307 386.458 360.307H304.528H299.822C299.79 360.307 299.757 360.307 299.724 360.307C288.686 360.307 277.717 359.72 267.428 359.169C248.533 358.158 231.93 357.269 221.4 360.364C220.846 360.447 220.332 360.617 219.866 360.858C213.322 363.171 209.506 367.302 209.506 374.364C209.506 398.486 254.026 447.66 299.724 447.66Z"/>
</mask>
<path fill-rule="evenodd" clip-rule="evenodd" d="M299.724 447.66C345.422 447.66 382.468 428.105 382.468 403.983C382.468 400.517 381.703 397.145 380.257 393.911C378.433 389.832 378.177 384.989 380.826 381.391L390.484 368.272C392.915 364.97 390.558 360.307 386.458 360.307H304.528H299.822C299.79 360.307 299.757 360.307 299.724 360.307C288.686 360.307 277.717 359.72 267.428 359.169C248.533 358.158 231.93 357.269 221.4 360.364C220.846 360.447 220.332 360.617 219.866 360.858C213.322 363.171 209.506 367.302 209.506 374.364C209.506 398.486 254.026 447.66 299.724 447.66Z" fill="#DBD1D1"/>
<path d="M390.484 368.272L388.874 367.086V367.086L390.484 368.272ZM299.822 360.307L299.821 362.307H299.822V360.307ZM267.428 359.169L267.321 361.166L267.428 359.169ZM221.4 360.364L221.695 362.342L221.831 362.322L221.963 362.283L221.4 360.364ZM219.866 360.858L220.532 362.744L220.663 362.698L220.785 362.635L219.866 360.858ZM380.257 393.911L378.431 394.728L380.257 393.911ZM380.826 381.391L382.437 382.577L380.826 381.391ZM380.468 403.983C380.468 414.935 372.022 425.327 357.299 433.098C342.667 440.822 322.314 445.66 299.724 445.66V449.66C322.832 449.66 343.851 444.72 359.166 436.636C374.391 428.6 384.468 417.153 384.468 403.983H380.468ZM378.431 394.728C379.771 397.724 380.468 400.819 380.468 403.983H384.468C384.468 400.215 383.635 396.566 382.083 393.095L378.431 394.728ZM388.874 367.086L379.216 380.205L382.437 382.577L392.095 369.457L388.874 367.086ZM386.458 362.307C388.918 362.307 390.332 365.105 388.874 367.086L392.095 369.457C395.498 364.835 392.198 358.307 386.458 358.307V362.307ZM304.528 362.307H386.458V358.307H304.528V362.307ZM299.822 362.307H304.528V358.307H299.822V362.307ZM299.724 362.307C299.756 362.307 299.789 362.307 299.821 362.307L299.824 358.307C299.79 358.307 299.757 358.307 299.724 358.307V362.307ZM267.321 361.166C277.602 361.717 288.624 362.307 299.724 362.307V358.307C288.748 358.307 277.832 357.723 267.535 357.172L267.321 361.166ZM221.963 362.283C226.951 360.817 233.506 360.265 241.287 360.227C249.046 360.189 257.858 360.66 267.321 361.166L267.535 357.172C258.104 356.667 249.166 356.188 241.267 356.227C233.391 356.265 226.378 356.816 220.836 358.445L221.963 362.283ZM220.785 362.635C221.058 362.493 221.362 362.392 221.695 362.342L221.104 358.386C220.33 358.502 219.605 358.741 218.946 359.082L220.785 362.635ZM211.506 374.364C211.506 371.217 212.347 368.88 213.791 367.083C215.259 365.257 217.485 363.821 220.532 362.744L219.2 358.973C215.703 360.208 212.75 361.994 210.673 364.577C208.574 367.189 207.506 370.449 207.506 374.364H211.506ZM299.724 445.66C277.556 445.66 255.461 433.7 238.824 418.577C230.526 411.036 223.661 402.772 218.883 394.95C214.075 387.078 211.506 379.858 211.506 374.364H207.506C207.506 380.931 210.503 388.903 215.47 397.035C220.468 405.218 227.588 413.771 236.133 421.537C253.18 437.032 276.194 449.66 299.724 449.66V445.66ZM382.083 393.095C380.432 389.404 380.365 385.391 382.437 382.577L379.216 380.205C375.99 384.587 376.434 390.261 378.431 394.728L382.083 393.095Z" fill="black" mask="url(#path-10-inside-3)"/>
</g>
<mask id="path-12-inside-4" fill="white">
<path fill-rule="evenodd" clip-rule="evenodd" d="M312.944 163.431C310.001 165.996 309.893 170.263 312.703 172.962L348.373 207.237L342.137 213.178L306.697 179.124C303.887 176.425 299.224 176.316 296.282 178.881C293.34 181.445 293.232 185.713 296.041 188.412L331.933 222.9L325.698 228.841L289.529 194.088C286.72 191.389 282.057 191.28 279.115 193.845C276.172 196.409 276.064 200.677 278.874 203.376L315.494 238.563L309.258 244.504L272.868 209.538C270.058 206.839 265.396 206.73 262.453 209.294C259.511 211.859 259.403 216.127 262.212 218.826L300.043 255.177C311.179 269.722 331.516 275.182 349.397 267.222C351.184 266.426 352.888 265.523 354.506 264.522L461.258 348.814L371.253 244.746C375.241 234.954 375.435 223.728 370.891 213.436C369.623 210.565 368.054 207.92 366.235 205.519C365.897 204.777 365.407 204.077 364.764 203.46L362.967 201.733C362.421 201.177 361.861 200.639 361.287 200.119L323.358 163.674C320.549 160.975 315.886 160.866 312.944 163.431Z"/>
</mask>
<g filter="url(#filter3_i)">
<path fill-rule="evenodd" clip-rule="evenodd" d="M312.944 163.431C310.001 165.996 309.893 170.263 312.703 172.962L348.373 207.237L342.137 213.178L306.697 179.124C303.887 176.425 299.224 176.316 296.282 178.881C293.34 181.445 293.232 185.713 296.041 188.412L331.933 222.9L325.698 228.841L289.529 194.088C286.72 191.389 282.057 191.28 279.115 193.845C276.172 196.409 276.064 200.677 278.874 203.376L315.494 238.563L309.258 244.504L272.868 209.538C270.058 206.839 265.396 206.73 262.453 209.294C259.511 211.859 259.403 216.127 262.212 218.826L300.043 255.177C311.179 269.722 331.516 275.182 349.397 267.222C351.184 266.426 352.888 265.523 354.506 264.522L461.258 348.814L371.253 244.746C375.241 234.954 375.435 223.728 370.891 213.436C369.623 210.565 368.054 207.92 366.235 205.519C365.897 204.777 365.407 204.077 364.764 203.46L362.967 201.733C362.421 201.177 361.861 200.639 361.287 200.119L323.358 163.674C320.549 160.975 315.886 160.866 312.944 163.431Z" fill="#E9D5CD"/>
</g>
<path d="M312.703 172.962L314.087 171.516L314.087 171.516L312.703 172.962ZM348.373 207.237L349.748 208.687L351.266 207.24L349.757 205.79L348.373 207.237ZM342.137 213.178L340.753 214.625L342.129 215.946L343.512 214.628L342.137 213.178ZM306.697 179.124L305.312 180.571L305.312 180.571L306.697 179.124ZM296.282 178.881L297.591 180.39L297.591 180.39L296.282 178.881ZM296.041 188.412L297.425 186.966L296.041 188.412ZM331.933 222.9L333.308 224.35L334.827 222.903L333.318 221.453L331.933 222.9ZM325.698 228.841L324.314 230.288L325.689 231.609L327.073 230.291L325.698 228.841ZM289.529 194.088L290.913 192.642L290.913 192.642L289.529 194.088ZM279.115 193.845L277.805 192.335L279.115 193.845ZM278.874 203.376L277.49 204.823L278.874 203.376ZM315.494 238.563L316.869 240.013L318.387 238.566L316.878 237.117L315.494 238.563ZM309.258 244.504L307.874 245.951L309.249 247.272L310.633 245.954L309.258 244.504ZM272.868 209.538L274.252 208.091L272.868 209.538ZM262.453 209.294L261.144 207.785L261.144 207.785L262.453 209.294ZM262.212 218.826L263.596 217.379L262.212 218.826ZM300.043 255.177L301.629 253.956L301.537 253.835L301.427 253.73L300.043 255.177ZM354.506 264.522L355.744 262.948L354.649 262.083L353.459 262.819L354.506 264.522ZM461.258 348.814L460.019 350.387L462.768 347.501L461.258 348.814ZM371.253 244.746L369.404 243.993L368.94 245.132L369.743 246.059L371.253 244.746ZM366.235 205.519L364.417 206.354L364.509 206.555L364.643 206.732L366.235 205.519ZM364.764 203.46L363.38 204.906L363.38 204.906L364.764 203.46ZM362.967 201.733L361.541 203.138L361.561 203.159L361.582 203.179L362.967 201.733ZM361.287 200.119L359.903 201.565L359.924 201.586L359.946 201.605L361.287 200.119ZM323.358 163.674L321.974 165.121L321.974 165.121L323.358 163.674ZM314.087 171.516C312.125 169.63 312.198 166.732 314.253 164.94L311.634 161.921C307.805 165.259 307.662 170.896 311.319 174.409L314.087 171.516ZM349.757 205.79L314.087 171.516L311.319 174.409L346.989 208.683L349.757 205.79ZM346.998 205.787L340.762 211.728L343.512 214.628L349.748 208.687L346.998 205.787ZM343.521 211.731L308.081 177.678L305.312 180.571L340.753 214.625L343.521 211.731ZM308.081 177.678C304.526 174.262 298.696 174.126 294.973 177.371L297.591 180.39C299.753 178.506 303.248 178.587 305.312 180.571L308.081 177.678ZM294.973 177.371C291.143 180.709 291 186.345 294.657 189.859L297.425 186.966C295.463 185.08 295.536 182.182 297.591 180.39L294.973 177.371ZM294.657 189.859L330.549 224.347L333.318 221.453L297.425 186.966L294.657 189.859ZM330.559 221.45L324.323 227.391L327.073 230.291L333.308 224.35L330.559 221.45ZM327.082 227.395L290.913 192.642L288.145 195.535L324.314 230.288L327.082 227.395ZM290.913 192.642C287.359 189.226 281.528 189.09 277.805 192.335L280.424 195.354C282.586 193.47 286.081 193.551 288.145 195.535L290.913 192.642ZM277.805 192.335C273.976 195.673 273.833 201.31 277.49 204.823L280.258 201.93C278.296 200.044 278.369 197.146 280.424 195.354L277.805 192.335ZM277.49 204.823L314.11 240.01L316.878 237.117L280.258 201.93L277.49 204.823ZM314.119 237.113L307.883 243.055L310.633 245.954L316.869 240.013L314.119 237.113ZM310.642 243.058L274.252 208.091L271.483 210.985L307.874 245.951L310.642 243.058ZM274.252 208.091C270.697 204.676 264.867 204.54 261.144 207.785L263.762 210.804C265.924 208.919 269.419 209.001 271.483 210.985L274.252 208.091ZM261.144 207.785C257.314 211.123 257.171 216.759 260.828 220.273L263.596 217.379C261.634 215.494 261.707 212.595 263.762 210.804L261.144 207.785ZM260.828 220.273L298.659 256.623L301.427 253.73L263.596 217.379L260.828 220.273ZM298.457 256.398C310.16 271.683 331.49 277.383 350.205 269.052L348.589 265.392C331.543 272.98 312.198 267.761 301.629 253.956L298.457 256.398ZM350.205 269.052C352.074 268.219 353.859 267.273 355.553 266.225L353.459 262.819C351.918 263.772 350.293 264.634 348.589 265.392L350.205 269.052ZM353.268 266.096L460.019 350.387L462.496 347.24L355.744 262.948L353.268 266.096ZM462.768 347.501L372.764 243.433L369.743 246.059L459.747 350.127L462.768 347.501ZM373.103 245.5C377.284 235.231 377.494 223.439 372.718 212.623L369.064 214.25C373.377 224.018 373.198 234.676 369.404 243.993L373.103 245.5ZM372.718 212.623C371.387 209.609 369.738 206.829 367.827 204.306L364.643 206.732C366.369 209.01 367.859 211.522 369.064 214.25L372.718 212.623ZM363.38 204.906C363.844 205.352 364.185 205.845 364.417 206.354L368.052 204.684C367.608 203.708 366.969 202.802 366.148 202.013L363.38 204.906ZM361.582 203.179L363.38 204.906L366.148 202.013L364.351 200.286L361.582 203.179ZM364.393 200.327C363.82 199.744 363.231 199.178 362.628 198.632L359.946 201.605C360.491 202.099 361.023 202.61 361.541 203.138L364.393 200.327ZM321.974 165.121L359.903 201.565L362.671 198.672L324.742 162.228L321.974 165.121ZM314.253 164.94C316.415 163.056 319.91 163.138 321.974 165.121L324.742 162.228C321.188 158.813 315.357 158.676 311.634 161.921L314.253 164.94Z" fill="black" mask="url(#path-12-inside-4)"/>
<path d="M345.506 416.001C363.506 404.956 328.414 418.037 295.506 416.001" stroke="black" stroke-width="2"/>
<line y1="-1" x2="84.151" y2="-1" transform="matrix(0.744599 -0.667512 0.664517 0.747273 299.514 256.257)" stroke="black" stroke-width="2"/>
<defs>
<filter id="filter0_di" x="106" y="36" width="137.506" height="388.535" filterUnits="userSpaceOnUse" color-interpolation-filters="sRGB">
<feFlood flood-opacity="0" result="BackgroundImageFix"/>
<feColorMatrix in="SourceAlpha" type="matrix" values="0 0 0 0 0 0 0 0 0 0 0 0 0 0 0 0 0 0 127 0"/>
<feOffset dy="4"/>
<feGaussianBlur stdDeviation="2"/>
<feColorMatrix type="matrix" values="0 0 0 0 0 0 0 0 0 0 0 0 0 0 0 0 0 0 0.25 0"/>
<feBlend mode="normal" in2="BackgroundImageFix" result="effect1_dropShadow"/>
<feBlend mode="normal" in="SourceGraphic" in2="effect1_dropShadow" result="shape"/>
<feColorMatrix in="SourceAlpha" type="matrix" values="0 0 0 0 0 0 0 0 0 0 0 0 0 0 0 0 0 0 127 0" result="hardAlpha"/>
<feOffset dy="4"/>
<feGaussianBlur stdDeviation="10"/>
<feComposite in2="hardAlpha" operator="arithmetic" k2="-1" k3="1"/>
<feColorMatrix type="matrix" values="0 0 0 0 0.956863 0 0 0 0 0.956863 0 0 0 0 0.956863 0 0 0 1 0"/>
<feBlend mode="normal" in2="shape" result="effect2_innerShadow"/>
</filter>
<filter id="filter1_i" x="140.879" y="162.697" width="67.3389" height="219.162" filterUnits="userSpaceOnUse" color-interpolation-filters="sRGB">
<feFlood flood-opacity="0" result="BackgroundImageFix"/>
<feBlend mode="normal" in="SourceGraphic" in2="BackgroundImageFix" result="shape"/>
<feColorMatrix in="SourceAlpha" type="matrix" values="0 0 0 0 0 0 0 0 0 0 0 0 0 0 0 0 0 0 127 0" result="hardAlpha"/>
<feOffset dy="4"/>
<feGaussianBlur stdDeviation="2"/>
<feComposite in2="hardAlpha" operator="arithmetic" k2="-1" k3="1"/>
<feColorMatrix type="matrix" values="0 0 0 0 0.956863 0 0 0 0 0.956863 0 0 0 0 0.956863 0 0 0 1 0"/>
<feBlend mode="normal" in2="shape" result="effect1_innerShadow"/>
</filter>
<filter id="filter2_d" x="205.506" y="358.225" width="189.96" height="97.4349" filterUnits="userSpaceOnUse" color-interpolation-filters="sRGB">
<feFlood flood-opacity="0" result="BackgroundImageFix"/>
<feColorMatrix in="SourceAlpha" type="matrix" values="0 0 0 0 0 0 0 0 0 0 0 0 0 0 0 0 0 0 127 0"/>
<feOffset dy="4"/>
<feGaussianBlur stdDeviation="2"/>
<feColorMatrix type="matrix" values="0 0 0 0 0 0 0 0 0 0 0 0 0 0 0 0 0 0 0.25 0"/>
<feBlend mode="normal" in2="BackgroundImageFix" result="effect1_dropShadow"/>
<feBlend mode="normal" in="SourceGraphic" in2="effect1_dropShadow" result="shape"/>
</filter>
<filter id="filter3_i" x="260.174" y="161.576" width="201.084" height="191.237" filterUnits="userSpaceOnUse" color-interpolation-filters="sRGB">
<feFlood flood-opacity="0" result="BackgroundImageFix"/>
<feBlend mode="normal" in="SourceGraphic" in2="BackgroundImageFix" result="shape"/>
<feColorMatrix in="SourceAlpha" type="matrix" values="0 0 0 0 0 0 0 0 0 0 0 0 0 0 0 0 0 0 127 0" result="hardAlpha"/>
<feOffset dy="4"/>
<feGaussianBlur stdDeviation="15"/>
<feComposite in2="hardAlpha" operator="arithmetic" k2="-1" k3="1"/>
<feColorMatrix type="matrix" values="0 0 0 0 0.956863 0 0 0 0 0.956863 0 0 0 0 0.956863 0 0 0 1 0"/>
<feBlend mode="normal" in2="shape" result="effect1_innerShadow"/>
</filter>
</defs>
</svg>
