<svg width="500" height="500" viewBox="0 0 500 500" fill="none" xmlns="http://www.w3.org/2000/svg">
<path d="M500 250C500 388.071 388.071 500 250 500C111.929 500 0 388.071 0 250C0 111.929 111.929 0 250 0C388.071 0 500 111.929 500 250Z" fill="#A9BBCA"/>
<path d="M500 250C500 388.071 388.071 500 250 500C111.929 500 0 388.071 0 250C0 111.929 111.929 0 250 0C388.071 0 500 111.929 500 250Z" fill="#A9BBCA"/>
<path d="M500 250C500 388.071 388.071 500 250 500C111.929 500 0 388.071 0 250C0 111.929 111.929 0 250 0C388.071 0 500 111.929 500 250Z" fill="#F4F4F4"/>
<mask id="path-2-inside-1" fill="white">
<path fill-rule="evenodd" clip-rule="evenodd" d="M159.884 424.192C162.611 424.625 165.468 422.832 166.266 420.188L172.369 399.944C178.059 398.958 183.835 396.525 189.05 392.618C201.016 383.654 206.367 369.674 203.208 358.274L260.147 279.963L259.941 279.839L383.263 111.504L217.145 254.428L239.567 272.989L188.789 342.827C179.102 339.258 166.623 341.227 156.329 348.939C141.523 360.03 136.846 378.8 145.882 390.861C148.528 394.394 152.057 396.959 156.097 398.543L151.776 412.874C150.182 418.161 153.311 423.149 158.766 424.015L159.884 424.192ZM153.998 284.416C143.962 278.676 129.467 280.033 117.787 288.784C102.981 299.875 98.3037 318.644 107.34 330.706C116.375 342.768 135.703 343.554 150.508 332.463C152.861 330.7 154.959 328.743 156.786 326.65L160.82 327.689C165.956 329.012 171.718 326.094 173.691 321.172C175.664 316.249 173.1 311.187 167.964 309.864L165.22 309.157C165.587 306.783 165.658 304.419 165.419 302.119L231.099 275.132L211.809 260.473L153.998 284.416ZM262.451 246.011C259.505 242.079 253.315 241.739 248.626 245.252C243.936 248.765 242.523 254.801 245.469 258.733C248.414 262.665 254.604 263.005 259.293 259.492C263.983 255.979 265.397 249.943 262.451 246.011Z"/>
</mask>
<path fill-rule="evenodd" clip-rule="evenodd" d="M159.884 424.192C162.611 424.625 165.468 422.832 166.266 420.188L172.369 399.944C178.059 398.958 183.835 396.525 189.05 392.618C201.016 383.654 206.367 369.674 203.208 358.274L260.147 279.963L259.941 279.839L383.263 111.504L217.145 254.428L239.567 272.989L188.789 342.827C179.102 339.258 166.623 341.227 156.329 348.939C141.523 360.03 136.846 378.8 145.882 390.861C148.528 394.394 152.057 396.959 156.097 398.543L151.776 412.874C150.182 418.161 153.311 423.149 158.766 424.015L159.884 424.192ZM153.998 284.416C143.962 278.676 129.467 280.033 117.787 288.784C102.981 299.875 98.3037 318.644 107.34 330.706C116.375 342.768 135.703 343.554 150.508 332.463C152.861 330.7 154.959 328.743 156.786 326.65L160.82 327.689C165.956 329.012 171.718 326.094 173.691 321.172C175.664 316.249 173.1 311.187 167.964 309.864L165.22 309.157C165.587 306.783 165.658 304.419 165.419 302.119L231.099 275.132L211.809 260.473L153.998 284.416ZM262.451 246.011C259.505 242.079 253.315 241.739 248.626 245.252C243.936 248.765 242.523 254.801 245.469 258.733C248.414 262.665 254.604 263.005 259.293 259.492C263.983 255.979 265.397 249.943 262.451 246.011Z" fill="#E9D5CD"/>
<path d="M166.266 420.188L168.18 420.766L166.266 420.188ZM159.884 424.192L160.197 422.217L160.197 422.217L159.884 424.192ZM172.369 399.944L172.028 397.973L170.811 398.184L170.455 399.367L172.369 399.944ZM203.208 358.274L201.591 357.098L201.023 357.878L201.281 358.808L203.208 358.274ZM260.147 279.963L261.765 281.139L263.047 279.374L261.178 278.249L260.147 279.963ZM259.941 279.839L258.327 278.657L257.033 280.423L258.909 281.552L259.941 279.839ZM383.263 111.504L384.876 112.686L381.958 109.988L383.263 111.504ZM217.145 254.428L215.84 252.912L214.044 254.457L215.869 255.969L217.145 254.428ZM239.567 272.989L241.184 274.165L242.289 272.646L240.842 271.449L239.567 272.989ZM188.789 342.827L188.098 344.704L189.517 345.227L190.407 344.003L188.789 342.827ZM156.097 398.543L158.012 399.12L158.544 397.354L156.827 396.681L156.097 398.543ZM151.776 412.874L153.691 413.451L151.776 412.874ZM158.766 424.015L158.452 425.99L158.766 424.015ZM153.998 284.416L153.005 286.152L153.857 286.639L154.763 286.263L153.998 284.416ZM156.786 326.65L157.285 324.714L156.09 324.406L155.279 325.335L156.786 326.65ZM160.82 327.689L161.319 325.753L161.319 325.753L160.82 327.689ZM167.964 309.864L168.463 307.927L167.964 309.864ZM165.22 309.157L163.243 308.851L162.966 310.642L164.721 311.094L165.22 309.157ZM165.419 302.119L164.659 300.269L163.275 300.837L163.43 302.326L165.419 302.119ZM231.099 275.132L231.859 276.982L235.091 275.654L232.309 273.539L231.099 275.132ZM211.809 260.473L213.019 258.88L212.105 258.185L211.044 258.625L211.809 260.473ZM164.351 419.611C163.842 421.297 161.937 422.493 160.197 422.217L159.571 426.167C163.286 426.757 167.095 424.367 168.18 420.766L164.351 419.611ZM170.455 399.367L164.351 419.611L168.18 420.766L174.284 400.521L170.455 399.367ZM187.851 391.018C182.883 394.74 177.399 397.043 172.028 397.973L172.711 401.915C178.719 400.874 184.788 398.311 190.249 394.219L187.851 391.018ZM201.281 358.808C204.174 369.251 199.306 382.437 187.851 391.018L190.249 394.219C202.727 384.871 208.559 370.098 205.136 357.74L201.281 358.808ZM258.529 278.787L201.591 357.098L204.826 359.45L261.765 281.139L258.529 278.787ZM258.909 281.552L259.115 281.676L261.178 278.249L260.972 278.125L258.909 281.552ZM381.649 110.322L258.327 278.657L261.554 281.02L384.876 112.686L381.649 110.322ZM218.449 255.944L384.567 113.02L381.958 109.988L215.84 252.912L218.449 255.944ZM240.842 271.449L218.42 252.887L215.869 255.969L238.291 274.53L240.842 271.449ZM190.407 344.003L241.184 274.165L237.949 271.813L187.172 341.651L190.407 344.003ZM157.528 350.54C167.362 343.173 179.138 341.402 188.098 344.704L189.481 340.951C179.066 337.113 165.884 339.282 155.13 347.338L157.528 350.54ZM147.482 389.662C139.327 378.776 143.284 361.21 157.528 350.54L155.13 347.338C139.762 358.851 134.365 378.824 144.281 392.061L147.482 389.662ZM156.827 396.681C153.107 395.223 149.889 392.875 147.482 389.662L144.281 392.061C147.167 395.913 151.007 398.696 155.367 400.405L156.827 396.681ZM153.691 413.451L158.012 399.12L154.182 397.965L149.861 412.296L153.691 413.451ZM159.079 422.039C154.821 421.364 152.446 417.578 153.691 413.451L149.861 412.296C147.917 418.744 151.801 424.935 158.452 425.99L159.079 422.039ZM160.197 422.217L159.079 422.039L158.452 425.99L159.571 426.167L160.197 422.217ZM118.986 290.384C130.163 282.011 143.797 280.885 153.005 286.152L154.991 282.68C144.128 276.467 128.772 278.055 116.588 287.183L118.986 290.384ZM108.94 329.507C100.785 318.62 104.742 301.055 118.986 290.384L116.588 287.183C101.22 298.695 95.8228 318.669 105.739 331.905L108.94 329.507ZM149.309 330.862C135.065 341.533 117.096 340.394 108.94 329.507L105.739 331.905C115.655 345.142 136.34 345.576 151.707 334.064L149.309 330.862ZM155.279 325.335C153.545 327.322 151.55 329.183 149.309 330.862L151.707 334.064C154.173 332.217 156.373 330.164 158.293 327.966L155.279 325.335ZM161.319 325.753L157.285 324.714L156.287 328.587L160.321 329.626L161.319 325.753ZM171.834 320.428C170.235 324.417 165.481 326.825 161.319 325.753L160.321 329.626C166.43 331.2 173.2 327.771 175.547 321.916L171.834 320.428ZM167.466 311.801C171.432 312.822 173.358 316.625 171.834 320.428L175.547 321.916C177.969 315.873 174.767 309.551 168.463 307.927L167.466 311.801ZM164.721 311.094L167.466 311.801L168.463 307.927L165.719 307.22L164.721 311.094ZM163.43 302.326C163.65 304.445 163.586 306.637 163.243 308.851L167.196 309.463C167.589 306.93 167.666 304.393 167.408 301.912L163.43 302.326ZM230.339 273.282L164.659 300.269L166.179 303.969L231.859 276.982L230.339 273.282ZM210.599 262.065L229.889 276.724L232.309 273.539L213.019 258.88L210.599 262.065ZM154.763 286.263L212.574 262.32L211.044 258.625L153.233 282.568L154.763 286.263ZM249.825 246.853C253.906 243.796 258.756 244.415 260.85 247.21L264.051 244.812C260.254 239.743 252.725 239.683 247.427 243.652L249.825 246.853ZM247.069 257.534C244.975 254.738 245.744 249.91 249.825 246.853L247.427 243.652C242.129 247.621 240.071 254.864 243.868 259.932L247.069 257.534ZM258.094 257.891C254.013 260.949 249.164 260.33 247.069 257.534L243.868 259.932C247.665 265.001 255.195 265.062 260.493 261.093L258.094 257.891ZM260.85 247.21C262.944 250.006 262.175 254.834 258.094 257.891L260.493 261.093C265.79 257.124 267.849 249.881 264.051 244.812L260.85 247.21Z" fill="black" mask="url(#path-2-inside-1)"/>
<path d="M314.571 223.306L446.318 209.365L274.976 272.405L314.571 223.306Z" fill="#E9D5CD" stroke="black" stroke-width="2"/>
<path d="M184.423 379.482C181.002 384.095 176.536 387.208 172.118 388.54C167.7 389.873 163.4 389.414 160.164 387.013C156.927 384.613 155.239 380.632 155.232 376.018C155.224 371.403 156.905 366.225 160.326 361.612C163.748 356.999 168.214 353.886 172.632 352.554C177.05 351.221 181.349 351.68 184.586 354.081C187.823 356.481 189.511 360.462 189.518 365.076C189.526 369.691 187.845 374.869 184.423 379.482Z" fill="#E9D5CD" stroke="black" stroke-width="2"/>
<path d="M144.107 322.594C139.131 325.462 133.794 326.537 129.211 325.998C124.629 325.46 120.868 323.326 118.856 319.834C116.844 316.343 116.882 312.019 118.714 307.784C120.545 303.549 124.151 299.47 129.127 296.602C134.103 293.734 139.44 292.659 144.023 293.197C148.606 293.736 152.366 295.87 154.378 299.361C156.391 302.853 156.352 307.177 154.521 311.412C152.689 315.647 149.083 319.726 144.107 322.594Z" fill="#E9D5CD" stroke="black" stroke-width="2"/>
<rect x="-1.38159" y="0.279065" width="39.2621" height="3.08093" rx="1.54046" transform="matrix(-0.550326 0.83495 -0.831259 -0.555885 411.777 236.218)" fill="#DBD1D1" stroke="black" stroke-width="2"/>
<rect x="-1.38159" y="0.279065" width="39.2621" height="3.08093" rx="1.54046" transform="matrix(-0.550326 0.83495 -0.831259 -0.555885 401.747 229.509)" fill="#DBD1D1" stroke="black" stroke-width="2"/>
<rect x="-1.38159" y="0.279065" width="39.2621" height="3.08093" rx="1.54046" transform="matrix(-0.550326 0.83495 -0.831259 -0.555885 369.542 207.973)" fill="#DBD1D1" stroke="black" stroke-width="2"/>
<rect x="-1.38159" y="0.279065" width="39.2621" height="3.08093" rx="1.54046" transform="matrix(-0.550326 0.83495 -0.831259 -0.555885 359.511 201.265)" fill="#DBD1D1" stroke="black" stroke-width="2"/>
<rect x="-1.38159" y="0.279065" width="39.2621" height="3.08093" rx="1.54046" transform="matrix(-0.550326 0.83495 -0.831259 -0.555885 390.66 222.096)" fill="#DBD1D1" stroke="black" stroke-width="2"/>
<rect x="-1.38159" y="0.279065" width="39.2621" height="3.08093" rx="1.54046" transform="matrix(-0.550326 0.83495 -0.831259 -0.555885 380.629 215.388)" fill="#DBD1D1" stroke="black" stroke-width="2"/>
<rect x="-1.38159" y="0.279065" width="39.2621" height="3.08093" rx="1.54046" transform="matrix(-0.550326 0.83495 -0.831259 -0.555885 349.424 195.198)" fill="#DBD1D1" stroke="black" stroke-width="2"/>
<rect x="-1.38159" y="0.279065" width="39.2621" height="3.08093" rx="1.54046" transform="matrix(-0.550326 0.83495 -0.831259 -0.555885 339.393 188.49)" fill="#DBD1D1" stroke="black" stroke-width="2"/>
<rect x="-1.38159" y="0.279065" width="39.2621" height="3.08093" rx="1.54046" transform="matrix(-0.550326 0.83495 -0.831259 -0.555885 307.189 166.953)" fill="#DBD1D1" stroke="black" stroke-width="2"/>
<rect x="-1.38159" y="0.279065" width="39.2621" height="3.08093" rx="1.54046" transform="matrix(-0.550326 0.83495 -0.831259 -0.555885 297.157 160.246)" fill="#DBD1D1" stroke="black" stroke-width="2"/>
<rect x="-1.38159" y="0.279065" width="39.2621" height="3.08093" rx="1.54046" transform="matrix(-0.550326 0.83495 -0.831259 -0.555885 328.306 181.076)" fill="#DBD1D1" stroke="black" stroke-width="2"/>
<rect x="-1.38159" y="0.279065" width="39.2621" height="3.08093" rx="1.54046" transform="matrix(-0.550326 0.83495 -0.831259 -0.555885 318.275 174.368)" fill="#DBD1D1" stroke="black" stroke-width="2"/>
<rect x="-1.38159" y="0.279065" width="39.2621" height="3.08093" rx="1.54046" transform="matrix(-0.550326 0.83495 -0.831259 -0.555885 287.377 154.056)" fill="#DBD1D1" stroke="black" stroke-width="2"/>
<rect x="-1.38159" y="0.279065" width="39.2621" height="3.08093" rx="1.54046" transform="matrix(-0.550326 0.83495 -0.831259 -0.555885 277.346 147.348)" fill="#DBD1D1" stroke="black" stroke-width="2"/>
<rect x="-1.38159" y="0.279065" width="39.2621" height="3.08093" rx="1.54046" transform="matrix(-0.550326 0.83495 -0.831259 -0.555885 245.141 125.812)" fill="#DBD1D1" stroke="black" stroke-width="2"/>
<rect x="-1.38159" y="0.279065" width="39.2621" height="3.08093" rx="1.54046" transform="matrix(-0.550326 0.83495 -0.831259 -0.555885 235.11 119.104)" fill="#DBD1D1" stroke="black" stroke-width="2"/>
<rect x="-1.38159" y="0.279065" width="39.2621" height="3.08093" rx="1.54046" transform="matrix(-0.550326 0.83495 -0.831259 -0.555885 266.259 139.934)" fill="#DBD1D1" stroke="black" stroke-width="2"/>
<rect x="-1.38159" y="0.279065" width="39.2621" height="3.08093" rx="1.54046" transform="matrix(-0.550326 0.83495 -0.831259 -0.555885 256.228 133.226)" fill="#DBD1D1" stroke="black" stroke-width="2"/>
<path d="M227.364 117.948C231.261 112.884 238.46 111.586 243.912 115.127L409.06 222.396C414.512 225.937 416.253 233.043 413.21 238.662L227.364 117.948Z" fill="#A9BBCA" stroke="black" stroke-width="2"/>
</svg>
