<svg width="202" height="203" viewBox="0 0 202 203" fill="none" xmlns="http://www.w3.org/2000/svg">
<path d="M201.286 101.547C201.286 157.109 156.244 202.151 100.682 202.151C45.1201 202.151 0.0783691 157.109 0.0783691 101.547C0.0783691 45.9856 45.1201 0.943848 100.682 0.943848C156.244 0.943848 201.286 45.9856 201.286 101.547Z" fill="#A9BBCA"/>
<path d="M201.286 101.547C201.286 157.109 156.244 202.151 100.682 202.151C45.1201 202.151 0.0783691 157.109 0.0783691 101.547C0.0783691 45.9856 45.1201 0.943848 100.682 0.943848C156.244 0.943848 201.286 45.9856 201.286 101.547Z" fill="#A9BBCA"/>
<path d="M201.286 101.547C201.286 157.109 156.244 202.151 100.682 202.151C45.1201 202.151 0.0783691 157.109 0.0783691 101.547C0.0783691 45.9856 45.1201 0.943848 100.682 0.943848C156.244 0.943848 201.286 45.9856 201.286 101.547Z" fill="white"/>
<mask id="path-2-inside-1" fill="white">
<path fill-rule="evenodd" clip-rule="evenodd" d="M56.6541 174.245C57.9733 174.454 59.3553 173.587 59.7409 172.308L62.4372 163.366C64.9961 162.922 67.5939 161.828 69.9394 160.071C75.3213 156.039 77.7275 149.752 76.3071 144.625L101.915 109.404L101.823 109.348L157.287 33.6392L82.575 97.9195L92.6593 106.268L69.822 137.677C65.4653 136.072 59.8525 136.958 55.2228 140.426C48.5639 145.415 46.4602 153.856 50.5241 159.281C51.7143 160.87 53.3016 162.024 55.1185 162.736L53.2732 168.856C52.502 171.414 54.0157 173.826 56.6541 174.245ZM54.1746 111.407C49.6611 108.825 43.1419 109.436 37.8884 113.371C31.2295 118.36 29.1259 126.801 33.1898 132.226C37.2537 137.651 45.9462 138.004 52.6051 133.016C53.6634 132.223 54.6067 131.343 55.4284 130.402L57.2428 130.869C59.5525 131.464 62.1441 130.152 63.0314 127.938C63.9187 125.724 62.7656 123.447 60.4559 122.852L59.2216 122.534C59.3869 121.467 59.4188 120.403 59.3111 119.369L88.8509 107.231L80.1751 100.638L54.1746 111.407ZM102.952 94.1342C101.627 92.3656 98.8429 92.2128 96.7338 93.7928C94.6246 95.3729 93.9889 98.0874 95.3137 99.8559C96.6386 101.624 99.4224 101.777 101.532 100.197C103.641 98.6172 104.276 95.9027 102.952 94.1342Z"/>
</mask>
<path fill-rule="evenodd" clip-rule="evenodd" d="M56.6541 174.245C57.9733 174.454 59.3553 173.587 59.7409 172.308L62.4372 163.366C64.9961 162.922 67.5939 161.828 69.9394 160.071C75.3213 156.039 77.7275 149.752 76.3071 144.625L101.915 109.404L101.823 109.348L157.287 33.6392L82.575 97.9195L92.6593 106.268L69.822 137.677C65.4653 136.072 59.8525 136.958 55.2228 140.426C48.5639 145.415 46.4602 153.856 50.5241 159.281C51.7143 160.87 53.3016 162.024 55.1185 162.736L53.2732 168.856C52.502 171.414 54.0157 173.826 56.6541 174.245ZM54.1746 111.407C49.6611 108.825 43.1419 109.436 37.8884 113.371C31.2295 118.36 29.1259 126.801 33.1898 132.226C37.2537 137.651 45.9462 138.004 52.6051 133.016C53.6634 132.223 54.6067 131.343 55.4284 130.402L57.2428 130.869C59.5525 131.464 62.1441 130.152 63.0314 127.938C63.9187 125.724 62.7656 123.447 60.4559 122.852L59.2216 122.534C59.3869 121.467 59.4188 120.403 59.3111 119.369L88.8509 107.231L80.1751 100.638L54.1746 111.407ZM102.952 94.1342C101.627 92.3656 98.8429 92.2128 96.7338 93.7928C94.6246 95.3729 93.9889 98.0874 95.3137 99.8559C96.6386 101.624 99.4224 101.777 101.532 100.197C103.641 98.6172 104.276 95.9027 102.952 94.1342Z" fill="#E9D5CD"/>
<path d="M59.7409 172.308L57.8261 171.731L57.8261 171.731L59.7409 172.308ZM56.6541 174.245L56.3408 176.22L56.3408 176.22L56.6541 174.245ZM62.4372 163.366L62.0957 161.395L60.8788 161.606L60.5223 162.788L62.4372 163.366ZM76.3071 144.625L74.6895 143.449L74.1221 144.229L74.3797 145.159L76.3071 144.625ZM101.915 109.404L103.533 110.58L104.816 108.816L102.947 107.69L101.915 109.404ZM101.823 109.348L100.209 108.166L98.9154 109.932L100.791 111.061L101.823 109.348ZM157.287 33.6392L158.9 34.8211L155.983 32.1231L157.287 33.6392ZM82.575 97.9195L81.2706 96.4034L79.4742 97.949L81.2997 99.4601L82.575 97.9195ZM92.6593 106.268L94.2769 107.444L95.3814 105.925L93.9347 104.727L92.6593 106.268ZM69.822 137.677L69.1305 139.554L70.55 140.077L71.4396 138.854L69.822 137.677ZM55.1185 162.736L57.0334 163.313L57.5659 161.547L55.8483 160.873L55.1185 162.736ZM53.2732 168.856L51.3583 168.279L51.3583 168.279L53.2732 168.856ZM54.1746 111.407L53.1816 113.143L54.0333 113.63L54.9399 113.254L54.1746 111.407ZM55.4284 130.402L55.9272 128.465L54.7328 128.157L53.9217 129.087L55.4284 130.402ZM57.2428 130.869L56.7439 132.806L56.7439 132.806L57.2428 130.869ZM63.0314 127.938L61.175 127.194L61.175 127.194L63.0314 127.938ZM60.4559 122.852L60.9548 120.915L60.9548 120.915L60.4559 122.852ZM59.2216 122.534L57.2452 122.228L56.9678 124.019L58.7227 124.471L59.2216 122.534ZM59.3111 119.369L58.551 117.519L57.167 118.087L57.3219 119.576L59.3111 119.369ZM88.8509 107.231L89.611 109.081L92.8432 107.753L90.061 105.639L88.8509 107.231ZM80.1751 100.638L81.3852 99.0459L80.4709 98.351L79.4099 98.7905L80.1751 100.638ZM57.8261 171.731C57.7292 172.052 57.2989 172.322 56.9675 172.27L56.3408 176.22C58.6478 176.586 60.9815 175.122 61.6558 172.886L57.8261 171.731ZM60.5223 162.788L57.8261 171.731L61.6558 172.886L64.352 163.943L60.5223 162.788ZM68.7403 158.47C66.6416 160.043 64.3364 161.007 62.0957 161.395L62.7786 165.336C65.6559 164.838 68.5463 163.614 71.1386 161.672L68.7403 158.47ZM74.3797 145.159C75.5349 149.328 73.6106 154.822 68.7403 158.47L71.1386 161.672C77.0319 157.257 79.9202 150.176 78.2345 144.091L74.3797 145.159ZM100.298 108.228L74.6895 143.449L77.9247 145.801L103.533 110.58L100.298 108.228ZM100.791 111.061L100.884 111.117L102.947 107.69L102.854 107.635L100.791 111.061ZM155.674 32.4572L100.209 108.166L103.436 110.53L158.9 34.8211L155.674 32.4572ZM83.8794 99.4356L158.591 35.1553L155.983 32.1231L81.2706 96.4034L83.8794 99.4356ZM93.9347 104.727L83.8504 96.3789L81.2997 99.4601L91.3839 107.808L93.9347 104.727ZM71.4396 138.854L94.2769 107.444L91.0417 105.091L68.2044 136.501L71.4396 138.854ZM56.4219 142.027C60.5914 138.903 65.5011 138.217 69.1305 139.554L70.5135 135.801C65.4295 133.927 59.1135 135.013 54.0236 138.826L56.4219 142.027ZM52.1248 158.082C48.9412 153.832 50.3247 146.594 56.4219 142.027L54.0236 138.826C46.803 144.235 43.9793 153.88 48.9235 160.48L52.1248 158.082ZM55.8483 160.873C54.3512 160.287 53.0756 159.351 52.1248 158.082L48.9235 160.48C50.3531 162.388 52.252 163.76 54.3888 164.598L55.8483 160.873ZM55.188 169.433L57.0334 163.313L53.2037 162.158L51.3583 168.279L55.188 169.433ZM56.9675 172.27C55.526 172.041 54.7667 170.831 55.188 169.433L51.3583 168.279C50.2373 171.997 52.5054 175.612 56.3408 176.22L56.9675 172.27ZM39.0875 114.972C43.8371 111.414 49.4955 111.034 53.1816 113.143L55.1675 109.671C49.8267 106.616 42.4466 107.458 36.6893 111.771L39.0875 114.972ZM34.7904 131.027C31.6068 126.777 32.9904 119.539 39.0875 114.972L36.6893 111.771C29.4687 117.18 26.6449 126.825 31.5891 133.425L34.7904 131.027ZM51.406 131.415C45.3088 135.983 37.974 135.277 34.7904 131.027L31.5891 133.425C36.5333 140.025 46.5836 140.026 53.8042 134.617L51.406 131.415ZM53.9217 129.087C53.1925 129.922 52.3523 130.706 51.406 131.415L53.8042 134.617C54.9745 133.74 56.0209 132.764 56.9351 131.717L53.9217 129.087ZM57.7416 128.932L55.9272 128.465L54.9296 132.339L56.7439 132.806L57.7416 128.932ZM61.175 127.194C60.6616 128.475 59.078 129.277 57.7416 128.932L56.7439 132.806C60.0269 133.651 63.6267 131.829 64.8879 128.682L61.175 127.194ZM59.9571 124.789C61.0981 125.083 61.6133 126.1 61.175 127.194L64.8879 128.682C66.2241 125.348 64.4331 121.811 60.9548 120.915L59.9571 124.789ZM58.7227 124.471L59.9571 124.789L60.9548 120.915L59.7204 120.597L58.7227 124.471ZM57.3219 119.576C57.4107 120.43 57.3857 121.32 57.2452 122.228L61.198 122.84C61.3881 121.613 61.4269 120.377 61.3004 119.162L57.3219 119.576ZM88.0908 105.381L58.551 117.519L60.0713 121.219L89.611 109.081L88.0908 105.381ZM78.9651 102.231L87.6408 108.824L90.061 105.639L81.3852 99.0459L78.9651 102.231ZM54.9399 113.254L80.9404 102.486L79.4099 98.7905L53.4093 109.559L54.9399 113.254ZM97.9329 95.3935C99.4336 94.2692 100.877 94.7013 101.351 95.3333L104.552 92.935C102.376 90.03 98.2521 90.1564 95.5346 92.1922L97.9329 95.3935ZM96.9144 98.6568C96.441 98.0248 96.4321 96.5178 97.9329 95.3935L95.5346 92.1922C92.8172 94.2279 91.5368 98.15 93.7131 101.055L96.9144 98.6568ZM100.332 98.5966C98.8316 99.7208 97.3878 99.2888 96.9144 98.6568L93.7131 101.055C95.8894 103.96 100.013 103.834 102.731 101.798L100.332 98.5966ZM101.351 95.3333C101.824 95.9653 101.833 97.4723 100.332 98.5966L102.731 101.798C105.448 99.7621 106.728 95.8401 104.552 92.935L101.351 95.3333Z" fill="black" mask="url(#path-2-inside-1)"/>
<path d="M126.63 84.4528L181.34 78.6639L110.188 104.842L126.63 84.4528Z" fill="#E9D5CD" stroke="black" stroke-width="2"/>
<path d="M67.4165 153.835C65.9413 155.824 64.0279 157.148 62.1652 157.71C60.3024 158.272 58.5593 158.06 57.2754 157.108C55.9915 156.156 55.2829 154.549 55.2796 152.604C55.2764 150.658 55.9876 148.443 57.4628 146.454C58.938 144.464 60.8513 143.14 62.7141 142.579C64.5769 142.017 66.32 142.228 67.6039 143.18C68.8878 144.133 69.5964 145.739 69.5997 147.685C69.6029 149.63 68.8917 151.846 67.4165 153.835Z" fill="#E9D5CD" stroke="black" stroke-width="2"/>
<path d="M49.4515 128.1C47.3058 129.337 45.0233 129.789 43.091 129.562C41.1586 129.335 39.6442 128.446 38.8461 127.061C38.0479 125.676 38.0382 123.921 38.8105 122.135C39.5828 120.349 41.1178 118.601 43.2636 117.364C45.4093 116.127 47.6917 115.675 49.6241 115.902C51.5564 116.129 53.0708 117.018 53.869 118.403C54.6672 119.788 54.6769 121.544 53.9046 123.33C53.1323 125.115 51.5972 126.864 49.4515 128.1Z" fill="#E9D5CD" stroke="black" stroke-width="2"/>
<rect x="-0.789287" y="0.159427" width="17.4152" height="1.14258" rx="0.571291" transform="matrix(-0.550326 0.83495 -0.831259 -0.555885 169.879 89.9222)" fill="#DBD1D1" stroke="black" stroke-width="1.14258"/>
<rect x="-0.789287" y="0.159427" width="17.4152" height="1.14258" rx="0.571291" transform="matrix(-0.550326 0.83495 -0.831259 -0.555885 165.368 86.9056)" fill="#DBD1D1" stroke="black" stroke-width="1.14258"/>
<rect x="-0.789287" y="0.159427" width="17.4152" height="1.14258" rx="0.571291" transform="matrix(-0.550326 0.83495 -0.831259 -0.555885 150.884 77.2191)" fill="#DBD1D1" stroke="black" stroke-width="1.14258"/>
<rect x="-0.789287" y="0.159427" width="17.4152" height="1.14258" rx="0.571291" transform="matrix(-0.550326 0.83495 -0.831259 -0.555885 146.372 74.2025)" fill="#DBD1D1" stroke="black" stroke-width="1.14258"/>
<rect x="-0.789287" y="0.159427" width="17.4152" height="1.14258" rx="0.571291" transform="matrix(-0.550326 0.83495 -0.831259 -0.555885 160.382 83.5711)" fill="#DBD1D1" stroke="black" stroke-width="1.14258"/>
<rect x="-0.789287" y="0.159427" width="17.4152" height="1.14258" rx="0.571291" transform="matrix(-0.550326 0.83495 -0.831259 -0.555885 155.87 80.5545)" fill="#DBD1D1" stroke="black" stroke-width="1.14258"/>
<rect x="-0.789287" y="0.159427" width="17.4152" height="1.14258" rx="0.571291" transform="matrix(-0.550326 0.83495 -0.831259 -0.555885 141.836 71.474)" fill="#DBD1D1" stroke="black" stroke-width="1.14258"/>
<rect x="-0.789287" y="0.159427" width="17.4152" height="1.14258" rx="0.571291" transform="matrix(-0.550326 0.83495 -0.831259 -0.555885 137.324 68.4569)" fill="#DBD1D1" stroke="black" stroke-width="1.14258"/>
<rect x="-0.789287" y="0.159427" width="17.4152" height="1.14258" rx="0.571291" transform="matrix(-0.550326 0.83495 -0.831259 -0.555885 122.84 58.7708)" fill="#DBD1D1" stroke="black" stroke-width="1.14258"/>
<rect x="-0.789287" y="0.159427" width="17.4152" height="1.14258" rx="0.571291" transform="matrix(-0.550326 0.83495 -0.831259 -0.555885 118.329 55.7537)" fill="#DBD1D1" stroke="black" stroke-width="1.14258"/>
<rect x="-0.789287" y="0.159427" width="17.4152" height="1.14258" rx="0.571291" transform="matrix(-0.550326 0.83495 -0.831259 -0.555885 132.338 65.1224)" fill="#DBD1D1" stroke="black" stroke-width="1.14258"/>
<rect x="-0.789287" y="0.159427" width="17.4152" height="1.14258" rx="0.571291" transform="matrix(-0.550326 0.83495 -0.831259 -0.555885 127.826 62.1053)" fill="#DBD1D1" stroke="black" stroke-width="1.14258"/>
<rect x="-0.789287" y="0.159427" width="17.4152" height="1.14258" rx="0.571291" transform="matrix(-0.550326 0.83495 -0.831259 -0.555885 113.93 52.9701)" fill="#DBD1D1" stroke="black" stroke-width="1.14258"/>
<rect x="-0.789287" y="0.159427" width="17.4152" height="1.14258" rx="0.571291" transform="matrix(-0.550326 0.83495 -0.831259 -0.555885 109.418 49.953)" fill="#DBD1D1" stroke="black" stroke-width="1.14258"/>
<rect x="-0.789287" y="0.159427" width="17.4152" height="1.14258" rx="0.571291" transform="matrix(-0.550326 0.83495 -0.831259 -0.555885 94.9341 40.2674)" fill="#DBD1D1" stroke="black" stroke-width="1.14258"/>
<rect x="-0.789287" y="0.159427" width="17.4152" height="1.14258" rx="0.571291" transform="matrix(-0.550326 0.83495 -0.831259 -0.555885 90.4227 37.2503)" fill="#DBD1D1" stroke="black" stroke-width="1.14258"/>
<rect x="-0.789287" y="0.159427" width="17.4152" height="1.14258" rx="0.571291" transform="matrix(-0.550326 0.83495 -0.831259 -0.555885 104.432 46.6185)" fill="#DBD1D1" stroke="black" stroke-width="1.14258"/>
<rect x="-0.789287" y="0.159427" width="17.4152" height="1.14258" rx="0.571291" transform="matrix(-0.550326 0.83495 -0.831259 -0.555885 99.9205 43.6014)" fill="#DBD1D1" stroke="black" stroke-width="1.14258"/>
<path d="M94.3137 35.7299L168.59 83.9748C170.627 85.2978 171.385 87.8484 170.526 90.0232L88.0007 36.4203C89.638 34.7506 92.2769 34.4069 94.3137 35.7299Z" fill="#A9BBCA" stroke="black" stroke-width="2"/>
</svg>
