<svg width="306" height="312" viewBox="0 0 306 312" fill="none" xmlns="http://www.w3.org/2000/svg">
<path d="M127.411 150.635C138.057 138.63 74.5598 111.836 65.013 97.6162" stroke="#E5E5E5" stroke-width="2"/>
<path d="M110.513 128.599C110.513 128.599 99.3472 109.916 108.635 104.763" stroke="#E5E5E5" stroke-width="2"/>
<path d="M109.596 128.677C109.596 128.677 116.314 108.473 107.718 104.841" stroke="#E5E5E5" stroke-width="2"/>
<path d="M78.0049 108.446C78.0049 108.446 65.7169 91.8398 74.294 88.0023" stroke="#E5E5E5" stroke-width="2"/>
<path d="M77.1237 108.458C77.1237 108.458 82.0177 91.6279 73.4128 88.0139" stroke="#E5E5E5" stroke-width="2"/>
<path d="M111.887 131.517C111.887 131.517 97.5279 142.894 92.0301 137.597" stroke="#E5E5E5" stroke-width="2"/>
<path d="M112.066 132.127C112.066 132.127 94.2023 131.614 92.2099 138.207" stroke="#E5E5E5" stroke-width="2"/>
<path d="M86.9138 115.52C86.9138 115.52 65.4051 120.909 65.1529 113.071" stroke="#E5E5E5" stroke-width="2"/>
<path d="M86.5608 116.224C86.5608 116.224 71.9316 107.884 64.8 113.775" stroke="#E5E5E5" stroke-width="2"/>
<path d="M121.817 135.934C121.817 135.934 115.62 121.08 123.566 117.436" stroke="#E5E5E5" stroke-width="2"/>
<path d="M121.091 135.961C121.091 135.961 129.06 120.585 122.84 117.463" stroke="#E5E5E5" stroke-width="2"/>
<path d="M97.0762 121.478C97.0762 121.478 81.685 138.275 72.9736 132.77" stroke="#E5E5E5" stroke-width="2"/>
<path d="M97.4885 122.198C97.4885 122.198 74.0575 124.958 73.3859 133.49" stroke="#E5E5E5" stroke-width="2"/>
<path d="M91.7493 117.281C91.7493 117.281 80.8599 100.71 90.9055 98.4581" stroke="#E5E5E5" stroke-width="2"/>
<path d="M90.778 117.17C90.778 117.17 98.8296 102.772 89.9342 98.3467" stroke="#E5E5E5" stroke-width="2"/>
<path d="M126.407 192.421C114.033 202.636 172.623 238.925 179.856 254.451" stroke="#E5E5E5" stroke-width="2"/>
<path d="M139.695 216.805C139.695 216.805 147.837 236.99 137.863 240.644" stroke="#E5E5E5" stroke-width="2"/>
<path d="M140.613 216.87C140.613 216.87 130.851 235.792 138.781 240.709" stroke="#E5E5E5" stroke-width="2"/>
<path d="M168.695 241.742C168.695 241.742 178.267 260.049 169.2 262.514" stroke="#E5E5E5" stroke-width="2"/>
<path d="M169.567 241.867C169.567 241.867 162.13 257.738 170.072 262.639" stroke="#E5E5E5" stroke-width="2"/>
<path d="M138.788 213.71C138.788 213.71 154.734 204.69 159.346 210.773" stroke="#E5E5E5" stroke-width="2"/>
<path d="M138.705 213.079C138.705 213.079 156.275 216.348 159.263 210.143" stroke="#E5E5E5" stroke-width="2"/>
<path d="M160.987 233.376C160.987 233.376 183.07 231.378 182.107 239.161" stroke="#E5E5E5" stroke-width="2"/>
<path d="M161.445 232.735C161.445 232.735 174.608 243.237 182.565 238.519" stroke="#E5E5E5" stroke-width="2"/>
<path d="M129.66 207.81C129.66 207.81 133.486 223.444 125.072 225.815" stroke="#E5E5E5" stroke-width="2"/>
<path d="M130.382 207.896C130.382 207.896 120.131 221.854 125.794 225.901" stroke="#E5E5E5" stroke-width="2"/>
<path d="M151.868 225.918C151.868 225.918 169.672 211.703 177.427 218.489" stroke="#E5E5E5" stroke-width="2"/>
<path d="M151.572 225.143C151.572 225.143 175.148 226.039 177.131 217.714" stroke="#E5E5E5" stroke-width="2"/>
<path d="M156.482 230.888C156.482 230.888 164.678 248.944 154.405 249.615" stroke="#E5E5E5" stroke-width="2"/>
<path d="M157.424 231.148C157.424 231.148 147.243 244.128 155.347 249.876" stroke="#E5E5E5" stroke-width="2"/>
<path d="M147.634 154.811C158.951 166.186 189.659 104.487 204.447 95.8472" stroke="#E5E5E5" stroke-width="2"/>
<path d="M170.683 139.322C170.683 139.322 190.027 129.346 194.589 138.938" stroke="#E5E5E5" stroke-width="2"/>
<path d="M170.663 138.402C170.663 138.402 190.407 146.369 194.569 138.018" stroke="#E5E5E5" stroke-width="2"/>
<path d="M192.827 108.137C192.827 108.137 210.169 96.9105 213.463 105.711" stroke="#E5E5E5" stroke-width="2"/>
<path d="M192.87 107.257C192.87 107.257 209.362 113.193 213.506 104.83" stroke="#E5E5E5" stroke-width="2"/>
<path d="M167.685 140.511C167.685 140.511 157.227 125.47 162.857 120.314" stroke="#E5E5E5" stroke-width="2"/>
<path d="M167.065 140.653C167.065 140.653 168.693 122.856 162.237 120.455" stroke="#E5E5E5" stroke-width="2"/>
<path d="M185.211 116.587C185.211 116.587 181.176 94.7834 189.014 95.0214" stroke="#E5E5E5" stroke-width="2"/>
<path d="M184.53 116.19C184.53 116.19 193.768 102.111 188.333 94.6251" stroke="#E5E5E5" stroke-width="2"/>
<path d="M162.656 150.147C162.656 150.147 177.868 144.89 181.009 153.048" stroke="#E5E5E5" stroke-width="2"/>
<path d="M162.675 149.42C162.675 149.42 177.522 158.334 181.027 152.321" stroke="#E5E5E5" stroke-width="2"/>
<path d="M178.629 126.357C178.629 126.357 162.826 109.947 168.865 101.596" stroke="#E5E5E5" stroke-width="2"/>
<path d="M177.885 126.724C177.885 126.724 176.594 103.166 168.121 101.963" stroke="#E5E5E5" stroke-width="2"/>
<path d="M183.151 121.303C183.151 121.303 200.37 111.47 201.99 121.636" stroke="#E5E5E5" stroke-width="2"/>
<path d="M183.323 120.34C183.323 120.34 197.189 129.276 202.162 120.674" stroke="#E5E5E5" stroke-width="2"/>
<g filter="url(#filter0_i)">
<path d="M146.641 73.155C146.498 74.6544 144.728 75.1696 143.897 73.9535L137.344 64.3646C134.949 60.8606 136.467 55.8668 140.304 54.626V54.626C144.27 53.3432 148.188 56.8648 147.764 61.3318L146.641 73.155Z" fill="#A9BBCA"/>
</g>
<path d="M144.665 73.3399L138.112 63.751C136.112 60.8254 137.38 56.6559 140.583 55.62C143.895 54.5489 147.166 57.4892 146.812 61.2188L145.688 73.042C145.635 73.6014 144.975 73.7935 144.665 73.3399Z" stroke="black" stroke-width="2"/>
<g filter="url(#filter1_i)">
<path d="M136.93 135.784C137.952 136.637 137.672 138.308 136.475 138.504L126.724 140.098C122.654 140.764 118.861 136.651 119.469 132.232V132.232C120.099 127.651 125.008 125.826 128.608 128.833L136.93 135.784Z" fill="#A9BBCA"/>
</g>
<path d="M136.244 137.475L126.493 139.069C123.085 139.626 119.908 136.182 120.417 132.482C120.945 128.645 125.056 127.117 128.071 129.635L136.393 136.585C136.727 136.864 136.636 137.411 136.244 137.475Z" stroke="black" stroke-width="2"/>
<path d="M133.642 152.377L124.717 156.991C121.611 158.597 117.761 156.254 117.35 152.508C116.924 148.623 120.457 145.848 123.934 147.337L133.568 151.462C133.956 151.628 134.002 152.191 133.642 152.377Z" fill="#A9BBCA" stroke="black" stroke-width="2"/>
<g filter="url(#filter2_i)">
<path d="M144.307 142.66C143.044 142.477 142.539 140.783 143.493 139.926L151.213 132.984C154.361 130.154 159.308 131.714 160.707 135.979V135.979C162.158 140.398 158.857 144.762 154.536 144.138L144.307 142.66Z" fill="#A9BBCA"/>
</g>
<path d="M144.13 140.724L151.851 133.782C154.485 131.413 158.625 132.719 159.797 136.288C161.011 139.987 158.248 143.639 154.632 143.117L144.403 141.639C143.98 141.578 143.811 141.01 144.13 140.724Z" stroke="black" stroke-width="2"/>
<g filter="url(#filter3_i)">
<path d="M139.571 125.104C140.111 126.45 139.062 127.815 137.892 127.287L128.467 123.038C124.711 121.345 123.348 115.787 125.842 112.334V112.334C128.426 108.757 133.422 109.784 135.218 114.26L139.571 125.104Z" fill="#A9BBCA"/>
</g>
<path d="M138.172 126.276L128.747 122.027C125.603 120.61 124.462 115.957 126.55 113.067C128.713 110.073 132.894 110.932 134.398 114.679L138.751 125.523C138.937 125.988 138.575 126.458 138.172 126.276Z" stroke="black" stroke-width="2"/>
<g filter="url(#filter4_i)">
<path d="M146.78 127.469C145.503 127.675 144.578 126.1 145.305 124.959L151.153 115.797C153.458 112.186 158.46 112.334 160.802 116.082V116.082C163.228 119.964 161.227 125.14 157.04 125.815L146.78 127.469Z" fill="#A9BBCA"/>
</g>
<path d="M146.098 125.57L151.946 116.408C153.873 113.388 158.057 113.511 160.016 116.647C162.044 119.893 160.371 124.222 156.869 124.786L146.609 126.441C146.166 126.512 145.846 125.966 146.098 125.57Z" stroke="black" stroke-width="2"/>
<g filter="url(#filter5_i)">
<path d="M141.224 104.038C141.765 105.384 140.715 106.749 139.545 106.221L130.12 101.972C126.364 100.279 125.001 94.7206 127.496 91.2678V91.2678C130.079 87.6913 135.075 88.7174 136.871 93.1936L141.224 104.038Z" fill="#A9BBCA"/>
</g>
<path d="M139.825 105.21L130.4 100.961C127.256 99.5438 126.115 94.8911 128.203 92.0009C130.366 89.0072 134.547 89.8661 136.051 93.6129L140.404 104.457C140.59 104.922 140.228 105.392 139.825 105.21Z" stroke="black" stroke-width="2"/>
<g filter="url(#filter6_i)">
<path d="M148.748 108.292C147.464 108.157 146.967 106.421 147.954 105.518L155.901 98.2442C159.06 95.353 163.908 96.7824 165.241 100.998V100.998C166.622 105.364 163.344 109.829 159.087 109.381L148.748 108.292Z" fill="#A9BBCA"/>
</g>
<path d="M148.573 106.307L156.519 99.0333C159.162 96.6147 163.217 97.8105 164.333 101.337C165.488 104.99 162.746 108.724 159.185 108.349L148.846 107.261C148.404 107.214 148.233 106.617 148.573 106.307Z" stroke="black" stroke-width="2"/>
<g filter="url(#filter7_i)">
<path d="M141.634 84.9662C142.175 86.3124 141.125 87.677 139.955 87.1495L130.53 82.9005C126.774 81.2072 125.411 75.6488 127.906 72.196V72.196C130.489 68.6195 135.485 69.6456 137.282 74.1218L141.634 84.9662Z" fill="#A9BBCA"/>
</g>
<path d="M140.235 86.1384L130.81 81.8894C127.666 80.472 126.525 75.8193 128.613 72.9291C130.776 69.9354 134.957 70.7943 136.461 74.5411L140.814 85.3855C141 85.8497 140.639 86.3203 140.235 86.1384Z" stroke="black" stroke-width="2"/>
<g filter="url(#filter8_i)">
<path d="M151.828 88.0142C150.538 87.9468 149.953 86.2345 150.893 85.2786L158.46 77.5859C161.463 74.5327 166.368 75.7095 167.911 79.8535V79.8535C169.51 84.1455 166.472 88.7794 162.206 88.5565L151.828 88.0142Z" fill="#A9BBCA"/>
</g>
<path d="M151.55 86.0358L159.116 78.3431C161.628 75.7891 165.731 76.7734 167.023 80.2399C168.36 83.8303 165.819 87.7065 162.25 87.52L151.872 86.9778C151.428 86.9546 151.226 86.3649 151.55 86.0358Z" stroke="black" stroke-width="2"/>
<path d="M152.107 69.4665L136.381 169.935C136.273 170.622 135.639 171.045 134.964 170.88C134.301 170.719 133.836 170.031 133.936 169.341C139.632 130.046 143.08 107.172 149.657 68.861C149.774 68.1758 150.413 67.7585 151.076 67.9203C151.754 68.0855 152.215 68.7778 152.107 69.4665Z" fill="#E9D5CD" stroke="black" stroke-width="2"/>
<g filter="url(#filter9_i)">
<ellipse rx="15.157" ry="13.6797" transform="matrix(0.885511 -0.464619 0.495127 0.868821 94.4359 182.718)" fill="#A9BBCA"/>
</g>
<path d="M106.972 176.141C110.393 182.143 107.725 190.056 100.714 193.735C93.7028 197.414 85.3204 195.299 81.8997 189.296C78.479 183.294 81.1467 175.381 88.1579 171.702C95.1691 168.023 103.551 170.138 106.972 176.141Z" stroke="black" stroke-width="2"/>
<g filter="url(#filter10_i)">
<path d="M97.5814 146.707C106.696 140.846 111.257 142.741 115.421 151.24C119.585 159.739 104.794 169.655 104.794 169.655L96.0707 167.438C96.0707 167.438 88.4672 152.567 97.5814 146.707Z" fill="#E9D5CD"/>
</g>
<path d="M98.1415 147.477C102.635 144.588 105.673 143.838 107.987 144.502C110.356 145.182 112.393 147.449 114.465 151.678C116.283 155.388 114.026 159.553 110.882 163.057C109.345 164.77 107.675 166.234 106.383 167.273C105.738 167.791 105.192 168.2 104.808 168.478C104.745 168.524 104.686 168.567 104.632 168.605L96.8459 166.627C96.811 166.552 96.7715 166.467 96.7281 166.372C96.544 165.967 96.2894 165.379 96.0111 164.654C95.4532 163.201 94.8068 161.215 94.4384 159.062C93.6848 154.658 94.1603 150.037 98.1415 147.477Z" stroke="black" stroke-width="2"/>
<g filter="url(#filter11_i)">
<path d="M68.8845 156.439C71.0972 146.619 75.98 144.837 85.731 147.6C95.482 150.363 92.2082 166.561 92.2082 166.561L83.97 170.884C83.97 170.884 66.6717 166.259 68.8845 156.439Z" fill="#E9D5CD"/>
</g>
<path d="M69.8757 156.667C70.9613 151.85 72.6396 149.312 74.9505 148.183C77.3039 147.032 80.6304 147.176 85.4638 148.545C89.6647 149.736 91.2205 153.848 91.6157 158.185C91.8086 160.303 91.7084 162.35 91.5575 163.875C91.4822 164.635 91.3949 165.26 91.3268 165.693C91.3142 165.774 91.3023 165.847 91.2912 165.914L83.8388 169.824C83.7482 169.797 83.6427 169.765 83.5237 169.728C83.0701 169.587 82.4208 169.374 81.6472 169.088C80.0955 168.514 78.0642 167.654 76.1115 166.504C72.1061 164.145 68.9249 160.886 69.8757 156.667Z" stroke="black" stroke-width="2"/>
<g filter="url(#filter12_i)">
<path d="M124.343 158.83C134.894 160.249 136.485 164.634 132.767 173.788C129.048 182.943 111.617 180.949 111.617 180.949L107.498 173.634C107.498 173.634 113.792 157.411 124.343 158.83Z" fill="#E9D5CD"/>
</g>
<path d="M124.222 159.806C129.455 160.51 132 161.905 133.001 163.838C134.032 165.829 133.681 168.835 131.822 173.412C130.18 177.456 125.423 179.185 120.641 179.825C118.301 180.139 116.064 180.175 114.407 180.132C113.581 180.111 112.903 180.07 112.434 180.034C112.365 180.029 112.3 180.024 112.24 180.019L108.617 173.585C108.648 173.512 108.684 173.43 108.723 173.339C108.91 172.912 109.19 172.3 109.558 171.568C110.297 170.101 111.386 168.169 112.789 166.288C115.652 162.449 119.549 159.178 124.222 159.806Z" stroke="black" stroke-width="2"/>
<g filter="url(#filter13_i)">
<path d="M133.613 184.69C139.475 192.631 137.143 196.978 127.631 201.469C118.12 205.96 108.164 193.103 108.164 193.103L111.089 184.898C111.089 184.898 127.751 176.748 133.613 184.69Z" fill="#E9D5CD"/>
</g>
<path d="M132.738 185.262C135.628 189.177 136.27 191.918 135.41 194.103C134.53 196.339 131.938 198.39 127.205 200.624C123.055 202.584 118.647 200.828 115.008 198.203C113.229 196.92 111.73 195.495 110.672 194.385C110.144 193.832 109.73 193.36 109.448 193.028C109.402 192.973 109.359 192.922 109.32 192.875L111.932 185.548C112.015 185.51 112.111 185.467 112.218 185.419C112.67 185.218 113.326 184.939 114.133 184.626C115.75 184 117.954 183.252 120.323 182.747C125.17 181.713 130.179 181.795 132.738 185.262Z" stroke="black" stroke-width="2"/>
<g filter="url(#filter14_i)">
<path d="M92.1783 219.575C83.0659 225.438 78.5041 223.544 74.337 215.047C70.1698 206.549 84.9573 196.629 84.9573 196.629L93.6819 198.843C93.6819 198.843 101.291 213.711 92.1783 219.575Z" fill="#E9D5CD"/>
</g>
<path d="M91.618 218.804C87.1253 221.695 84.0877 222.446 81.773 221.782C79.404 221.103 77.3664 218.837 75.2927 214.608C73.4735 210.899 75.7291 206.734 78.8721 203.229C80.4082 201.515 82.0781 200.051 83.3697 199.012C84.0139 198.494 84.5603 198.084 84.9437 197.806C85.007 197.76 85.0658 197.717 85.1199 197.679L92.907 199.655C92.9419 199.729 92.9814 199.815 93.0249 199.91C93.2092 200.315 93.464 200.903 93.7425 201.627C94.301 203.08 94.948 205.066 95.3172 207.219C96.0723 211.622 95.5984 216.243 91.618 218.804Z" stroke="black" stroke-width="2"/>
<g filter="url(#filter15_i)">
<path d="M65.4121 207.46C54.8607 206.044 53.2679 201.66 56.9831 192.504C60.6984 183.348 78.1308 185.337 78.1308 185.337L82.2526 192.651C82.2526 192.651 75.9635 208.876 65.4121 207.46Z" fill="#E9D5CD"/>
</g>
<path d="M65.5327 206.483C60.2997 205.781 57.7535 204.387 56.7517 202.454C55.7202 200.463 56.07 197.457 57.9275 192.88C59.5685 188.836 64.3247 187.105 69.1069 186.463C71.4473 186.149 73.6841 186.112 75.3407 186.155C76.1673 186.176 76.8453 186.217 77.3144 186.252C77.3835 186.257 77.4479 186.263 77.5077 186.267L81.1331 192.7C81.102 192.773 81.0667 192.856 81.0272 192.946C80.8405 193.373 80.5609 193.986 80.1925 194.718C79.4541 196.185 78.3664 198.117 76.9641 199.999C74.1022 203.838 70.2061 207.111 65.5327 206.483Z" stroke="black" stroke-width="2"/>
<g filter="url(#filter16_i)">
<path d="M56.1329 181.603C50.2676 173.663 52.5984 169.316 62.1088 164.822C71.6191 160.329 81.5793 173.182 81.5793 173.182L78.6571 181.388C78.6571 181.388 61.9981 189.543 56.1329 181.603Z" fill="#E9D5CD"/>
</g>
<path d="M57.0073 181.031C54.1161 177.117 53.473 174.376 54.3322 172.191C55.2114 169.955 57.8031 167.903 62.5351 165.667C66.6849 163.706 71.0936 165.461 74.734 168.085C76.5131 169.367 78.013 170.792 79.0711 171.901C79.5988 172.455 80.0136 172.926 80.2951 173.258C80.3418 173.313 80.3847 173.364 80.424 173.411L77.8144 180.739C77.731 180.777 77.6354 180.82 77.5282 180.867C77.076 181.068 76.42 181.348 75.6134 181.661C73.9963 182.287 71.7929 183.036 69.4239 183.542C64.5775 184.577 59.5679 184.497 57.0073 181.031Z" stroke="black" stroke-width="2"/>
<g filter="url(#filter17_i)">
<path d="M120.541 210.455C118.408 220.285 113.538 222.101 103.759 219.407C93.9807 216.713 97.1226 200.501 97.1226 200.501L105.329 196.123C105.329 196.123 122.674 200.625 120.541 210.455Z" fill="#E9D5CD"/>
</g>
<path d="M119.547 210.234C118.501 215.057 116.843 217.604 114.54 218.749C112.195 219.916 108.866 219.795 104.019 218.46C99.806 217.3 98.2156 213.201 97.7845 208.868C97.574 206.753 97.6574 204.707 97.7958 203.181C97.8648 202.421 97.947 201.795 98.0115 201.362C98.0235 201.282 98.0348 201.208 98.0454 201.142L105.469 197.182C105.56 197.208 105.666 197.239 105.785 197.275C106.24 197.413 106.891 197.622 107.668 197.902C109.225 198.465 111.264 199.31 113.228 200.446C117.254 202.776 120.464 206.011 119.547 210.234Z" stroke="black" stroke-width="2"/>
<g filter="url(#filter18_i)">
<ellipse rx="11.4424" ry="11.5369" transform="matrix(0.885511 -0.464619 0.495127 0.868821 166.253 184.251)" fill="#A9BBCA"/>
</g>
<path d="M175.5 179.399C178.385 184.462 176.57 190.73 171.47 193.406C166.37 196.082 159.892 194.165 157.006 189.103C154.121 184.04 155.936 177.772 161.036 175.096C166.136 172.42 172.615 174.336 175.5 179.399Z" stroke="black" stroke-width="2"/>
<path d="M167.875 155.549C171.234 153.34 173.488 152.878 175.212 153.474C176.989 154.089 178.625 155.957 180.393 159.507C181.887 162.507 180.376 165.763 178.08 168.527C176.965 169.87 175.737 171.007 174.781 171.811C174.305 172.211 173.9 172.526 173.616 172.74C173.599 172.752 173.584 172.764 173.568 172.776L167.644 170.928C167.625 170.888 167.604 170.844 167.583 170.798C167.426 170.461 167.207 169.971 166.964 169.369C166.478 168.16 165.905 166.514 165.539 164.745C164.786 161.104 165 157.439 167.875 155.549Z" fill="#DBD1D1" stroke="black" stroke-width="2"/>
<path d="M146.426 161.886C147.081 157.953 148.272 156.05 149.875 155.273C151.529 154.471 154.009 154.662 157.821 155.966C161.046 157.069 162.415 160.462 162.89 164.047C163.12 165.788 163.122 167.462 163.064 168.706C163.036 169.326 162.992 169.835 162.957 170.186C162.955 170.206 162.953 170.225 162.951 170.243L157.58 173.061C157.538 173.046 157.492 173.03 157.444 173.012C157.09 172.881 156.582 172.683 155.974 172.422C154.755 171.897 153.156 171.12 151.606 170.11C148.418 168.031 145.864 165.255 146.426 161.886Z" fill="#DBD1D1" stroke="black" stroke-width="2"/>
<path d="M188.338 166.626C192.381 167.384 194.365 168.603 195.201 170.202C196.063 171.848 195.916 174.268 194.66 177.945C193.6 181.05 190.161 182.281 186.497 182.635C184.717 182.807 183.002 182.758 181.726 182.664C181.089 182.618 180.567 182.56 180.206 182.515C180.184 182.512 180.164 182.509 180.144 182.507L177.132 177.165C177.147 177.123 177.163 177.078 177.181 177.03C177.308 176.688 177.5 176.198 177.755 175.614C178.268 174.44 179.03 172.904 180.033 171.423C182.097 168.375 184.882 165.978 188.338 166.626Z" fill="#DBD1D1" stroke="black" stroke-width="2"/>
<path d="M195.879 187.826C198.263 191.139 198.816 193.346 198.265 195.018C197.697 196.742 195.839 198.308 192.261 199.976C189.237 201.385 185.845 199.857 182.929 197.573C181.513 196.463 180.304 195.246 179.446 194.301C179.018 193.829 178.681 193.429 178.452 193.149C178.439 193.133 178.426 193.117 178.414 193.102L180.1 187.351C180.141 187.333 180.185 187.314 180.231 187.294C180.571 187.146 181.066 186.94 181.675 186.714C182.898 186.259 184.565 185.726 186.366 185.397C190.074 184.722 193.839 184.99 195.879 187.826Z" fill="#DBD1D1" stroke="black" stroke-width="2"/>
<path d="M165.352 213.68C161.994 215.891 159.741 216.353 158.016 215.757C156.239 215.143 154.603 213.276 152.833 209.726C151.338 206.726 152.849 203.47 155.143 200.705C156.257 199.362 157.486 198.225 158.441 197.42C158.917 197.02 159.322 196.704 159.606 196.491C159.622 196.478 159.638 196.467 159.654 196.455L165.579 198.301C165.598 198.341 165.618 198.385 165.64 198.431C165.797 198.768 166.016 199.258 166.258 199.86C166.745 201.069 167.319 202.714 167.686 204.483C168.44 208.124 168.226 211.789 165.352 213.68Z" fill="#DBD1D1" stroke="black" stroke-width="2"/>
<path d="M144.886 202.609C140.843 201.852 138.858 200.634 138.021 199.036C137.16 197.389 137.306 194.969 138.56 191.292C139.62 188.187 143.058 186.955 146.722 186.6C148.502 186.427 150.217 186.475 151.493 186.569C152.13 186.615 152.652 186.673 153.013 186.718C153.034 186.721 153.055 186.723 153.075 186.726L156.089 192.067C156.074 192.109 156.057 192.154 156.039 192.202C155.913 192.544 155.721 193.034 155.466 193.618C154.954 194.792 154.192 196.329 153.19 197.81C151.126 200.858 148.342 203.256 144.886 202.609Z" fill="#DBD1D1" stroke="black" stroke-width="2"/>
<path d="M137.338 181.411C134.953 178.099 134.4 175.893 134.95 174.22C135.517 172.496 137.374 170.93 140.952 169.261C143.976 167.85 147.368 169.377 150.284 171.66C151.701 172.769 152.91 173.986 153.769 174.932C154.196 175.403 154.534 175.803 154.763 176.083C154.776 176.099 154.789 176.115 154.801 176.13L153.117 181.881C153.076 181.899 153.032 181.918 152.986 181.939C152.646 182.087 152.151 182.292 151.542 182.519C150.32 182.974 148.653 183.508 146.851 183.837C143.144 184.514 139.379 184.246 137.338 181.411Z" fill="#DBD1D1" stroke="black" stroke-width="2"/>
<path d="M186.565 207.843C185.94 211.781 184.765 213.694 183.168 214.483C181.521 215.296 179.039 215.124 175.218 213.848C171.986 212.768 170.591 209.385 170.088 205.803C169.844 204.063 169.83 202.389 169.878 201.145C169.901 200.524 169.941 200.015 169.974 199.663C169.976 199.644 169.977 199.625 169.979 199.606L175.327 196.748C175.369 196.763 175.415 196.779 175.463 196.796C175.818 196.925 176.328 197.119 176.937 197.376C178.16 197.892 179.765 198.656 181.322 199.656C184.526 201.711 187.101 204.469 186.565 207.843Z" fill="#DBD1D1" stroke="black" stroke-width="2"/>
<defs>
<filter id="filter0_i" x="136.194" y="54.3591" width="11.6018" height="24.2718" filterUnits="userSpaceOnUse" color-interpolation-filters="sRGB">
<feFlood flood-opacity="0" result="BackgroundImageFix"/>
<feBlend mode="normal" in="SourceGraphic" in2="BackgroundImageFix" result="shape"/>
<feColorMatrix in="SourceAlpha" type="matrix" values="0 0 0 0 0 0 0 0 0 0 0 0 0 0 0 0 0 0 127 0" result="hardAlpha"/>
<feOffset dy="4"/>
<feGaussianBlur stdDeviation="2"/>
<feComposite in2="hardAlpha" operator="arithmetic" k2="-1" k3="1"/>
<feColorMatrix type="matrix" values="0 0 0 0 0.956863 0 0 0 0 0.956863 0 0 0 0 0.956863 0 0 0 1 0"/>
<feBlend mode="normal" in2="shape" result="effect1_innerShadow"/>
</filter>
<filter id="filter1_i" x="119.404" y="127.36" width="18.1531" height="16.8096" filterUnits="userSpaceOnUse" color-interpolation-filters="sRGB">
<feFlood flood-opacity="0" result="BackgroundImageFix"/>
<feBlend mode="normal" in="SourceGraphic" in2="BackgroundImageFix" result="shape"/>
<feColorMatrix in="SourceAlpha" type="matrix" values="0 0 0 0 0 0 0 0 0 0 0 0 0 0 0 0 0 0 127 0" result="hardAlpha"/>
<feOffset dy="4"/>
<feGaussianBlur stdDeviation="2"/>
<feComposite in2="hardAlpha" operator="arithmetic" k2="-1" k3="1"/>
<feColorMatrix type="matrix" values="0 0 0 0 0.956863 0 0 0 0 0.956863 0 0 0 0 0.956863 0 0 0 1 0"/>
<feBlend mode="normal" in2="shape" result="effect1_innerShadow"/>
</filter>
<filter id="filter2_i" x="142.997" y="131.553" width="18.0568" height="16.6444" filterUnits="userSpaceOnUse" color-interpolation-filters="sRGB">
<feFlood flood-opacity="0" result="BackgroundImageFix"/>
<feBlend mode="normal" in="SourceGraphic" in2="BackgroundImageFix" result="shape"/>
<feColorMatrix in="SourceAlpha" type="matrix" values="0 0 0 0 0 0 0 0 0 0 0 0 0 0 0 0 0 0 127 0" result="hardAlpha"/>
<feOffset dy="4"/>
<feGaussianBlur stdDeviation="2"/>
<feComposite in2="hardAlpha" operator="arithmetic" k2="-1" k3="1"/>
<feColorMatrix type="matrix" values="0 0 0 0 0.956863 0 0 0 0 0.956863 0 0 0 0 0.956863 0 0 0 1 0"/>
<feBlend mode="normal" in2="shape" result="effect1_innerShadow"/>
</filter>
<filter id="filter3_i" x="124.578" y="110.176" width="15.1391" height="21.2271" filterUnits="userSpaceOnUse" color-interpolation-filters="sRGB">
<feFlood flood-opacity="0" result="BackgroundImageFix"/>
<feBlend mode="normal" in="SourceGraphic" in2="BackgroundImageFix" result="shape"/>
<feColorMatrix in="SourceAlpha" type="matrix" values="0 0 0 0 0 0 0 0 0 0 0 0 0 0 0 0 0 0 127 0" result="hardAlpha"/>
<feOffset dy="4"/>
<feGaussianBlur stdDeviation="2"/>
<feComposite in2="hardAlpha" operator="arithmetic" k2="-1" k3="1"/>
<feColorMatrix type="matrix" values="0 0 0 0 0.956863 0 0 0 0 0.956863 0 0 0 0 0.956863 0 0 0 1 0"/>
<feBlend mode="normal" in2="shape" result="effect1_innerShadow"/>
</filter>
<filter id="filter4_i" x="145.049" y="113.177" width="16.8017" height="18.31" filterUnits="userSpaceOnUse" color-interpolation-filters="sRGB">
<feFlood flood-opacity="0" result="BackgroundImageFix"/>
<feBlend mode="normal" in="SourceGraphic" in2="BackgroundImageFix" result="shape"/>
<feColorMatrix in="SourceAlpha" type="matrix" values="0 0 0 0 0 0 0 0 0 0 0 0 0 0 0 0 0 0 127 0" result="hardAlpha"/>
<feOffset dy="4"/>
<feGaussianBlur stdDeviation="2"/>
<feComposite in2="hardAlpha" operator="arithmetic" k2="-1" k3="1"/>
<feColorMatrix type="matrix" values="0 0 0 0 0.956863 0 0 0 0 0.956863 0 0 0 0 0.956863 0 0 0 1 0"/>
<feBlend mode="normal" in2="shape" result="effect1_innerShadow"/>
</filter>
<filter id="filter5_i" x="126.231" y="89.1104" width="15.1391" height="21.2271" filterUnits="userSpaceOnUse" color-interpolation-filters="sRGB">
<feFlood flood-opacity="0" result="BackgroundImageFix"/>
<feBlend mode="normal" in="SourceGraphic" in2="BackgroundImageFix" result="shape"/>
<feColorMatrix in="SourceAlpha" type="matrix" values="0 0 0 0 0 0 0 0 0 0 0 0 0 0 0 0 0 0 127 0" result="hardAlpha"/>
<feOffset dy="4"/>
<feGaussianBlur stdDeviation="2"/>
<feComposite in2="hardAlpha" operator="arithmetic" k2="-1" k3="1"/>
<feColorMatrix type="matrix" values="0 0 0 0 0.956863 0 0 0 0 0.956863 0 0 0 0 0.956863 0 0 0 1 0"/>
<feBlend mode="normal" in2="shape" result="effect1_innerShadow"/>
</filter>
<filter id="filter6_i" x="147.433" y="96.7299" width="18.1283" height="16.6819" filterUnits="userSpaceOnUse" color-interpolation-filters="sRGB">
<feFlood flood-opacity="0" result="BackgroundImageFix"/>
<feBlend mode="normal" in="SourceGraphic" in2="BackgroundImageFix" result="shape"/>
<feColorMatrix in="SourceAlpha" type="matrix" values="0 0 0 0 0 0 0 0 0 0 0 0 0 0 0 0 0 0 127 0" result="hardAlpha"/>
<feOffset dy="4"/>
<feGaussianBlur stdDeviation="2"/>
<feComposite in2="hardAlpha" operator="arithmetic" k2="-1" k3="1"/>
<feColorMatrix type="matrix" values="0 0 0 0 0.956863 0 0 0 0 0.956863 0 0 0 0 0.956863 0 0 0 1 0"/>
<feBlend mode="normal" in2="shape" result="effect1_innerShadow"/>
</filter>
<filter id="filter7_i" x="126.641" y="70.0385" width="15.1391" height="21.2271" filterUnits="userSpaceOnUse" color-interpolation-filters="sRGB">
<feFlood flood-opacity="0" result="BackgroundImageFix"/>
<feBlend mode="normal" in="SourceGraphic" in2="BackgroundImageFix" result="shape"/>
<feColorMatrix in="SourceAlpha" type="matrix" values="0 0 0 0 0 0 0 0 0 0 0 0 0 0 0 0 0 0 127 0" result="hardAlpha"/>
<feOffset dy="4"/>
<feGaussianBlur stdDeviation="2"/>
<feComposite in2="hardAlpha" operator="arithmetic" k2="-1" k3="1"/>
<feColorMatrix type="matrix" values="0 0 0 0 0.956863 0 0 0 0 0.956863 0 0 0 0 0.956863 0 0 0 1 0"/>
<feBlend mode="normal" in2="shape" result="effect1_innerShadow"/>
</filter>
<filter id="filter8_i" x="150.431" y="75.8683" width="17.9129" height="16.6959" filterUnits="userSpaceOnUse" color-interpolation-filters="sRGB">
<feFlood flood-opacity="0" result="BackgroundImageFix"/>
<feBlend mode="normal" in="SourceGraphic" in2="BackgroundImageFix" result="shape"/>
<feColorMatrix in="SourceAlpha" type="matrix" values="0 0 0 0 0 0 0 0 0 0 0 0 0 0 0 0 0 0 127 0" result="hardAlpha"/>
<feOffset dy="4"/>
<feGaussianBlur stdDeviation="2"/>
<feComposite in2="hardAlpha" operator="arithmetic" k2="-1" k3="1"/>
<feColorMatrix type="matrix" values="0 0 0 0 0.956863 0 0 0 0 0.956863 0 0 0 0 0.956863 0 0 0 1 0"/>
<feBlend mode="normal" in2="shape" result="effect1_innerShadow"/>
</filter>
<filter id="filter9_i" x="79.3987" y="168.901" width="35.0743" height="32.6341" filterUnits="userSpaceOnUse" color-interpolation-filters="sRGB">
<feFlood flood-opacity="0" result="BackgroundImageFix"/>
<feBlend mode="normal" in="SourceGraphic" in2="BackgroundImageFix" result="shape"/>
<feColorMatrix in="SourceAlpha" type="matrix" values="0 0 0 0 0 0 0 0 0 0 0 0 0 0 0 0 0 0 127 0" result="hardAlpha"/>
<feOffset dx="5" dy="5"/>
<feGaussianBlur stdDeviation="2.5"/>
<feComposite in2="hardAlpha" operator="arithmetic" k2="-1" k3="1"/>
<feColorMatrix type="matrix" values="0 0 0 0 0.956863 0 0 0 0 0.956863 0 0 0 0 0.956863 0 0 0 1 0"/>
<feBlend mode="normal" in2="shape" result="effect1_innerShadow"/>
</filter>
<filter id="filter10_i" x="93.0981" y="143.32" width="33.0617" height="36.335" filterUnits="userSpaceOnUse" color-interpolation-filters="sRGB">
<feFlood flood-opacity="0" result="BackgroundImageFix"/>
<feBlend mode="normal" in="SourceGraphic" in2="BackgroundImageFix" result="shape"/>
<feColorMatrix in="SourceAlpha" type="matrix" values="0 0 0 0 0 0 0 0 0 0 0 0 0 0 0 0 0 0 127 0" result="hardAlpha"/>
<feOffset dx="10" dy="10"/>
<feGaussianBlur stdDeviation="10"/>
<feComposite in2="hardAlpha" operator="arithmetic" k2="-1" k3="1"/>
<feColorMatrix type="matrix" values="0 0 0 0 0.956863 0 0 0 0 0.956863 0 0 0 0 0.956863 0 0 0 1 0"/>
<feBlend mode="normal" in2="shape" result="effect1_innerShadow"/>
</filter>
<filter id="filter11_i" x="68.6889" y="146.424" width="34.0476" height="34.4596" filterUnits="userSpaceOnUse" color-interpolation-filters="sRGB">
<feFlood flood-opacity="0" result="BackgroundImageFix"/>
<feBlend mode="normal" in="SourceGraphic" in2="BackgroundImageFix" result="shape"/>
<feColorMatrix in="SourceAlpha" type="matrix" values="0 0 0 0 0 0 0 0 0 0 0 0 0 0 0 0 0 0 127 0" result="hardAlpha"/>
<feOffset dx="10" dy="10"/>
<feGaussianBlur stdDeviation="10"/>
<feComposite in2="hardAlpha" operator="arithmetic" k2="-1" k3="1"/>
<feColorMatrix type="matrix" values="0 0 0 0 0.956863 0 0 0 0 0.956863 0 0 0 0 0.956863 0 0 0 1 0"/>
<feBlend mode="normal" in2="shape" result="effect1_innerShadow"/>
</filter>
<filter id="filter12_i" x="107.498" y="158.742" width="37.0881" height="32.3909" filterUnits="userSpaceOnUse" color-interpolation-filters="sRGB">
<feFlood flood-opacity="0" result="BackgroundImageFix"/>
<feBlend mode="normal" in="SourceGraphic" in2="BackgroundImageFix" result="shape"/>
<feColorMatrix in="SourceAlpha" type="matrix" values="0 0 0 0 0 0 0 0 0 0 0 0 0 0 0 0 0 0 127 0" result="hardAlpha"/>
<feOffset dx="10" dy="10"/>
<feGaussianBlur stdDeviation="10"/>
<feComposite in2="hardAlpha" operator="arithmetic" k2="-1" k3="1"/>
<feColorMatrix type="matrix" values="0 0 0 0 0.956863 0 0 0 0 0.956863 0 0 0 0 0.956863 0 0 0 1 0"/>
<feBlend mode="normal" in2="shape" result="effect1_innerShadow"/>
</filter>
<filter id="filter13_i" x="108.164" y="181.213" width="38.6423" height="31.2078" filterUnits="userSpaceOnUse" color-interpolation-filters="sRGB">
<feFlood flood-opacity="0" result="BackgroundImageFix"/>
<feBlend mode="normal" in="SourceGraphic" in2="BackgroundImageFix" result="shape"/>
<feColorMatrix in="SourceAlpha" type="matrix" values="0 0 0 0 0 0 0 0 0 0 0 0 0 0 0 0 0 0 127 0" result="hardAlpha"/>
<feOffset dx="10" dy="10"/>
<feGaussianBlur stdDeviation="10"/>
<feComposite in2="hardAlpha" operator="arithmetic" k2="-1" k3="1"/>
<feColorMatrix type="matrix" values="0 0 0 0 0.956863 0 0 0 0 0.956863 0 0 0 0 0.956863 0 0 0 1 0"/>
<feBlend mode="normal" in2="shape" result="effect1_innerShadow"/>
</filter>
<filter id="filter14_i" x="73.5968" y="196.629" width="33.0618" height="36.3349" filterUnits="userSpaceOnUse" color-interpolation-filters="sRGB">
<feFlood flood-opacity="0" result="BackgroundImageFix"/>
<feBlend mode="normal" in="SourceGraphic" in2="BackgroundImageFix" result="shape"/>
<feColorMatrix in="SourceAlpha" type="matrix" values="0 0 0 0 0 0 0 0 0 0 0 0 0 0 0 0 0 0 127 0" result="hardAlpha"/>
<feOffset dx="10" dy="10"/>
<feGaussianBlur stdDeviation="10"/>
<feComposite in2="hardAlpha" operator="arithmetic" k2="-1" k3="1"/>
<feColorMatrix type="matrix" values="0 0 0 0 0.956863 0 0 0 0 0.956863 0 0 0 0 0.956863 0 0 0 1 0"/>
<feBlend mode="normal" in2="shape" result="effect1_innerShadow"/>
</filter>
<filter id="filter15_i" x="55.1664" y="185.155" width="37.0863" height="32.3926" filterUnits="userSpaceOnUse" color-interpolation-filters="sRGB">
<feFlood flood-opacity="0" result="BackgroundImageFix"/>
<feBlend mode="normal" in="SourceGraphic" in2="BackgroundImageFix" result="shape"/>
<feColorMatrix in="SourceAlpha" type="matrix" values="0 0 0 0 0 0 0 0 0 0 0 0 0 0 0 0 0 0 127 0" result="hardAlpha"/>
<feOffset dx="10" dy="10"/>
<feGaussianBlur stdDeviation="10"/>
<feComposite in2="hardAlpha" operator="arithmetic" k2="-1" k3="1"/>
<feColorMatrix type="matrix" values="0 0 0 0 0.956863 0 0 0 0 0.956863 0 0 0 0 0.956863 0 0 0 1 0"/>
<feBlend mode="normal" in2="shape" result="effect1_innerShadow"/>
</filter>
<filter id="filter16_i" x="52.9367" y="163.869" width="38.6426" height="31.2079" filterUnits="userSpaceOnUse" color-interpolation-filters="sRGB">
<feFlood flood-opacity="0" result="BackgroundImageFix"/>
<feBlend mode="normal" in="SourceGraphic" in2="BackgroundImageFix" result="shape"/>
<feColorMatrix in="SourceAlpha" type="matrix" values="0 0 0 0 0 0 0 0 0 0 0 0 0 0 0 0 0 0 127 0" result="hardAlpha"/>
<feOffset dx="10" dy="10"/>
<feGaussianBlur stdDeviation="10"/>
<feComposite in2="hardAlpha" operator="arithmetic" k2="-1" k3="1"/>
<feColorMatrix type="matrix" values="0 0 0 0 0.956863 0 0 0 0 0.956863 0 0 0 0 0.956863 0 0 0 1 0"/>
<feBlend mode="normal" in2="shape" result="effect1_innerShadow"/>
</filter>
<filter id="filter17_i" x="96.6417" y="196.123" width="34.081" height="34.4103" filterUnits="userSpaceOnUse" color-interpolation-filters="sRGB">
<feFlood flood-opacity="0" result="BackgroundImageFix"/>
<feBlend mode="normal" in="SourceGraphic" in2="BackgroundImageFix" result="shape"/>
<feColorMatrix in="SourceAlpha" type="matrix" values="0 0 0 0 0 0 0 0 0 0 0 0 0 0 0 0 0 0 127 0" result="hardAlpha"/>
<feOffset dx="10" dy="10"/>
<feGaussianBlur stdDeviation="10"/>
<feComposite in2="hardAlpha" operator="arithmetic" k2="-1" k3="1"/>
<feColorMatrix type="matrix" values="0 0 0 0 0.956863 0 0 0 0 0.956863 0 0 0 0 0.956863 0 0 0 1 0"/>
<feBlend mode="normal" in2="shape" result="effect1_innerShadow"/>
</filter>
<filter id="filter18_i" x="154.62" y="172.903" width="28.2674" height="27.6968" filterUnits="userSpaceOnUse" color-interpolation-filters="sRGB">
<feFlood flood-opacity="0" result="BackgroundImageFix"/>
<feBlend mode="normal" in="SourceGraphic" in2="BackgroundImageFix" result="shape"/>
<feColorMatrix in="SourceAlpha" type="matrix" values="0 0 0 0 0 0 0 0 0 0 0 0 0 0 0 0 0 0 127 0" result="hardAlpha"/>
<feOffset dx="5" dy="5"/>
<feGaussianBlur stdDeviation="2.5"/>
<feComposite in2="hardAlpha" operator="arithmetic" k2="-1" k3="1"/>
<feColorMatrix type="matrix" values="0 0 0 0 0.956863 0 0 0 0 0.956863 0 0 0 0 0.956863 0 0 0 1 0"/>
<feBlend mode="normal" in2="shape" result="effect1_innerShadow"/>
</filter>
</defs>
</svg>
