<svg width="500" height="500" viewBox="0 0 500 500" fill="none" xmlns="http://www.w3.org/2000/svg">
<path d="M500 250C500 388.071 388.071 500 250 500C111.929 500 0 388.071 0 250C0 111.929 111.929 0 250 0C388.071 0 500 111.929 500 250Z" fill="#A9BBCA"/>
<path d="M500 250C500 388.071 388.071 500 250 500C111.929 500 0 388.071 0 250C0 111.929 111.929 0 250 0C388.071 0 500 111.929 500 250Z" fill="#A9BBCA"/>
<path d="M500 250C500 388.071 388.071 500 250 500C111.929 500 0 388.071 0 250C0 111.929 111.929 0 250 0C388.071 0 500 111.929 500 250Z" fill="#F4F4F4"/>
<path d="M175.235 267.858C174.509 266.369 175.129 264.573 176.619 263.848L224.272 240.65C225.762 239.925 227.557 240.544 228.283 242.034L292.625 374.205C298.427 386.122 293.469 400.487 281.551 406.288L271.661 411.103C259.743 416.905 245.379 411.947 239.577 400.029L175.235 267.858Z" fill="#E9D5CD" stroke="black" stroke-width="2"/>
<path d="M175.235 267.858C174.509 266.369 175.129 264.573 176.619 263.848L224.272 240.65C225.762 239.925 227.557 240.544 228.283 242.034L292.625 374.205C298.427 386.122 293.469 400.487 281.551 406.288L271.661 411.103C259.743 416.905 245.379 411.947 239.577 400.029L175.235 267.858Z" fill="#E9D5CD" stroke="black" stroke-width="2"/>
<rect x="226.585" y="291.253" width="12" height="107" rx="6" transform="rotate(-25.96 226.585 291.253)" fill="#F4F4F4"/>
<circle cx="225.585" cy="280" r="6" fill="#F4F4F4"/>
<g filter="url(#filter0_d)">
<mask id="path-6-inside-1" fill="white">
<path fill-rule="evenodd" clip-rule="evenodd" d="M341.259 93.7817C358.603 87.6089 369.293 87.3696 389.169 94.2887C390.95 96.6443 392.829 98.4011 394.669 100.122C400.919 105.967 406.721 111.392 406.721 138.445C406.721 139.727 406.58 140.906 406.308 141.987C406.703 143.177 406.917 144.45 406.917 145.772V416.169C406.917 423.497 401.612 429.785 394.362 430.851C367.409 434.817 350.539 435.067 331.584 431.429C324.85 430.136 320.212 424.068 320.212 417.211V145.772C320.212 143.312 320.953 141.024 322.223 139.12C320.787 138.143 319.964 136.441 320.14 134.64C321.975 115.881 325.276 105.73 338.673 95.1994C339.449 94.5895 340.329 94.1126 341.259 93.7817Z"/>
</mask>
<path fill-rule="evenodd" clip-rule="evenodd" d="M341.259 93.7817C358.603 87.6089 369.293 87.3696 389.169 94.2887C390.95 96.6443 392.829 98.4011 394.669 100.122C400.919 105.967 406.721 111.392 406.721 138.445C406.721 139.727 406.58 140.906 406.308 141.987C406.703 143.177 406.917 144.45 406.917 145.772V416.169C406.917 423.497 401.612 429.785 394.362 430.851C367.409 434.817 350.539 435.067 331.584 431.429C324.85 430.136 320.212 424.068 320.212 417.211V145.772C320.212 143.312 320.953 141.024 322.223 139.12C320.787 138.143 319.964 136.441 320.14 134.64C321.975 115.881 325.276 105.73 338.673 95.1994C339.449 94.5895 340.329 94.1126 341.259 93.7817Z" fill="#A9BBCA"/>
<path d="M389.169 94.2887L389.826 92.3998L390.399 92.5991L390.764 93.0824L389.169 94.2887ZM341.259 93.7817L341.929 95.6659L341.259 93.7817ZM394.669 100.122L393.303 101.583L394.669 100.122ZM406.721 138.445L408.721 138.445L406.721 138.445ZM406.308 141.987L404.41 142.617L404.226 142.065L404.368 141.5L406.308 141.987ZM394.362 430.851L394.653 432.83H394.653L394.362 430.851ZM331.584 431.429L331.961 429.464H331.961L331.584 431.429ZM322.223 139.12L323.348 137.466L324.987 138.581L323.887 140.23L322.223 139.12ZM320.14 134.64L318.149 134.445H318.149L320.14 134.64ZM338.673 95.1994L339.909 96.7718L339.909 96.7718L338.673 95.1994ZM388.511 96.1775C378.676 92.7539 371.27 91.1578 364.255 91.1257C357.251 91.0937 350.487 92.6201 341.929 95.6659L340.588 91.8975C349.374 88.7705 356.627 87.0909 364.273 87.1258C371.908 87.1607 379.785 88.9044 389.826 92.3998L388.511 96.1775ZM393.303 101.583C391.47 99.869 389.472 98.0051 387.573 95.4949L390.764 93.0824C392.428 95.2834 394.187 96.9333 396.035 98.6609L393.303 101.583ZM404.721 138.445C404.721 125.028 403.277 117.207 401.187 112.086C399.131 107.048 396.402 104.48 393.303 101.583L396.035 98.6609C399.186 101.608 402.483 104.676 404.891 110.575C407.264 116.391 408.721 124.809 408.721 138.445L404.721 138.445ZM404.368 141.5C404.596 140.593 404.721 139.579 404.721 138.445L408.721 138.445C408.721 139.874 408.563 141.218 408.248 142.474L404.368 141.5ZM404.917 145.772C404.917 144.666 404.738 143.607 404.41 142.617L408.206 141.357C408.668 142.747 408.917 144.233 408.917 145.772H404.917ZM404.917 416.169V145.772H408.917V416.169H404.917ZM394.071 428.873C400.316 427.954 404.917 422.529 404.917 416.169H408.917C408.917 424.465 402.909 431.615 394.653 432.83L394.071 428.873ZM331.961 429.464C350.618 433.046 367.246 432.819 394.071 428.873L394.653 432.83C367.572 436.814 350.46 437.089 331.207 433.393L331.961 429.464ZM322.212 417.211C322.212 423.187 326.244 428.367 331.961 429.464L331.207 433.393C323.456 431.905 318.212 424.948 318.212 417.211H322.212ZM322.212 145.772V417.211H318.212V145.772H322.212ZM323.887 140.23C322.829 141.816 322.212 143.719 322.212 145.772H318.212C318.212 142.904 319.076 140.232 320.559 138.01L323.887 140.23ZM322.13 134.834C322.026 135.904 322.513 136.899 323.348 137.466L321.098 140.774C319.061 139.388 317.902 136.979 318.149 134.445L322.13 134.834ZM339.909 96.7718C333.413 101.878 329.472 106.8 326.901 112.64C324.305 118.537 323.043 125.503 322.13 134.834L318.149 134.445C319.072 125.017 320.378 117.529 323.24 111.028C326.127 104.471 330.535 99.052 337.437 93.6271L339.909 96.7718ZM341.929 95.6659C341.194 95.9277 340.506 96.302 339.909 96.7718L337.437 93.6271C338.391 92.8769 339.464 92.2975 340.588 91.8975L341.929 95.6659Z" fill="black" mask="url(#path-6-inside-1)"/>
<path d="M388.688 51.0295C382.743 46.4417 373.032 44.7247 363.562 45.0646C358.853 45.2336 354.262 45.9098 350.313 46.9605C346.347 48.016 343.103 49.43 341.03 51.0295C340.127 51.7264 339.382 52.8806 338.81 54.4873C338.24 56.0872 337.87 58.0601 337.666 60.2949C337.258 64.7644 337.528 70.1333 338.081 75.337C338.633 80.5317 339.461 85.5192 340.152 89.2112C340.498 91.0562 340.809 92.5754 341.033 93.6323C341.094 93.9206 341.149 94.1745 341.196 94.3911C359.55 91.9701 370.254 92.204 388.61 94.4128C388.68 94.1995 388.762 93.944 388.856 93.6495C389.169 92.6654 389.603 91.2465 390.085 89.513C391.05 86.0433 392.206 81.326 392.976 76.3194C393.747 71.3034 394.122 66.0481 393.555 61.4847C392.986 56.9015 391.49 53.1918 388.688 51.0295Z" fill="#99B5CC" stroke="black" stroke-width="2"/>
</g>
<g filter="url(#filter1_i)">
<rect width="45.1025" height="220.501" rx="2" transform="matrix(-1 0 0 1 385.96 173.863)" fill="#E9D5CD"/>
</g>
<rect x="-1" y="1" width="43.1025" height="218.501" rx="1" transform="matrix(-1 0 0 1 383.96 173.863)" stroke="black" stroke-width="2"/>
<rect x="-0.5" y="0.5" width="22.9474" height="3.50059" rx="1.75029" transform="matrix(-1 0 0 1 318.795 67.959)" fill="#E9D5CD" stroke="black"/>
<rect x="-0.5" y="0.5" width="22.9474" height="3.50059" rx="1.75029" transform="matrix(-1 0 0 1 243.532 67.959)" fill="#E9D5CD" stroke="black"/>
<rect x="-0.5" y="0.5" width="22.9474" height="3.50059" rx="1.75029" transform="matrix(-1 0 0 1 281.164 67.959)" fill="#E9D5CD" stroke="black"/>
<rect x="-0.560508" y="0.39505" width="23.0926" height="3.48141" rx="1.7407" transform="matrix(-0.97982 -0.199883 -0.141196 0.989982 318.399 53.8426)" fill="#E9D5CD" stroke="black"/>
<rect x="-0.560508" y="0.39505" width="23.0926" height="3.48141" rx="1.7407" transform="matrix(-0.97982 -0.199883 -0.141196 0.989982 244.208 38.7076)" fill="#E9D5CD" stroke="black"/>
<rect x="-0.560508" y="0.39505" width="23.0926" height="3.48141" rx="1.7407" transform="matrix(-0.97982 -0.199883 -0.141196 0.989982 281.303 46.2752)" fill="#E9D5CD" stroke="black"/>
<rect x="-0.419331" y="0.594913" width="23.0926" height="3.48141" rx="1.74071" transform="matrix(-0.979828 0.199841 0.141166 0.989986 317.906 81.9596)" fill="#E9D5CD" stroke="black"/>
<rect x="-0.419331" y="0.594913" width="23.0926" height="3.48141" rx="1.74071" transform="matrix(-0.979828 0.199841 0.141166 0.989986 243.714 97.0915)" fill="#E9D5CD" stroke="black"/>
<rect x="-0.419331" y="0.594913" width="23.0926" height="3.48141" rx="1.74071" transform="matrix(-0.979828 0.199841 0.141166 0.989986 280.81 89.5255)" fill="#E9D5CD" stroke="black"/>
<rect x="-0.419331" y="0.594913" width="23.0926" height="3.48141" rx="1.74071" transform="matrix(-0.979828 0.199841 0.141166 0.989986 280.81 89.5255)" fill="#E9D5CD" stroke="black"/>
<mask id="path-21-inside-2" fill="white">
<path fill-rule="evenodd" clip-rule="evenodd" d="M106.062 68.8832C93.6481 74.9271 88.4842 89.8903 94.5282 102.304L168.945 255.151L213.9 233.264L139.483 80.4171C138.424 78.241 137.09 76.2877 135.544 74.5785L211.868 231.342L192.19 240.923L125.165 103.259C119.903 92.4496 124.346 79.4328 135.087 74.0864C127.777 66.4312 116.088 64.0017 106.062 68.8832Z"/>
</mask>
<path fill-rule="evenodd" clip-rule="evenodd" d="M106.062 68.8832C93.6481 74.9271 88.4842 89.8903 94.5282 102.304L168.945 255.151L213.9 233.264L139.483 80.4171C138.424 78.241 137.09 76.2877 135.544 74.5785L211.868 231.342L192.19 240.923L125.165 103.259C119.903 92.4496 124.346 79.4328 135.087 74.0864C127.777 66.4312 116.088 64.0017 106.062 68.8832Z" fill="#E9D5CD"/>
<path d="M94.5282 102.304L92.73 103.18H92.73L94.5282 102.304ZM106.062 68.8832L106.938 70.6814L106.062 68.8832ZM168.945 255.151L167.146 256.027L168.022 257.825L169.82 256.949L168.945 255.151ZM213.9 233.264L214.775 235.062L216.573 234.187L215.698 232.389L213.9 233.264ZM139.483 80.4171L141.281 79.5416V79.5416L139.483 80.4171ZM135.544 74.5785L137.028 73.237L133.746 75.454L135.544 74.5785ZM211.868 231.342L212.743 233.141L214.542 232.265L213.666 230.467L211.868 231.342ZM192.19 240.923L190.392 241.799L191.267 243.597L193.065 242.721L192.19 240.923ZM125.165 103.259L123.367 104.134L125.165 103.259ZM135.087 74.0864L135.978 75.8769L138.408 74.6677L136.534 72.7052L135.087 74.0864ZM96.3264 101.429C90.7659 90.0079 95.5167 76.2418 106.938 70.6814L105.187 67.085C91.7795 73.6125 86.2025 89.7726 92.73 103.18L96.3264 101.429ZM170.743 254.276L96.3264 101.429L92.73 103.18L167.146 256.027L170.743 254.276ZM213.024 231.466L168.069 253.353L169.82 256.949L214.775 235.062L213.024 231.466ZM137.685 81.2926L212.101 234.14L215.698 232.389L141.281 79.5416L137.685 81.2926ZM134.061 75.9201C135.482 77.491 136.709 79.2876 137.685 81.2926L141.281 79.5416C140.139 77.1944 138.699 75.0845 137.028 73.237L134.061 75.9201ZM133.746 75.454L210.07 232.218L213.666 230.467L137.343 73.7031L133.746 75.454ZM210.992 229.544L191.314 239.125L193.065 242.721L212.743 233.141L210.992 229.544ZM193.988 240.048L126.963 102.383L123.367 104.134L190.392 241.799L193.988 240.048ZM126.963 102.383C122.182 92.5619 126.219 80.7345 135.978 75.8769L134.196 72.296C122.473 78.131 117.623 92.3372 123.367 104.134L126.963 102.383ZM106.938 70.6814C116.159 66.1918 126.914 68.4234 133.641 75.4677L136.534 72.7052C128.64 64.439 116.018 61.8117 105.187 67.085L106.938 70.6814Z" fill="black" mask="url(#path-21-inside-2)"/>
<path d="M138.174 106.941C135.421 101.285 137.514 94.5267 142.83 91.3735L208.473 226.202L198.583 231.017L138.174 106.941Z" fill="#E9D5CD" stroke="black" stroke-width="2"/>
<defs>
<filter id="filter0_d" x="316.116" y="44.0229" width="94.8008" height="397.977" filterUnits="userSpaceOnUse" color-interpolation-filters="sRGB">
<feFlood flood-opacity="0" result="BackgroundImageFix"/>
<feColorMatrix in="SourceAlpha" type="matrix" values="0 0 0 0 0 0 0 0 0 0 0 0 0 0 0 0 0 0 127 0"/>
<feOffset dy="4"/>
<feGaussianBlur stdDeviation="2"/>
<feColorMatrix type="matrix" values="0 0 0 0 0 0 0 0 0 0 0 0 0 0 0 0 0 0 0.25 0"/>
<feBlend mode="normal" in2="BackgroundImageFix" result="effect1_dropShadow"/>
<feBlend mode="normal" in="SourceGraphic" in2="effect1_dropShadow" result="shape"/>
</filter>
<filter id="filter1_i" x="340.858" y="173.863" width="49.1025" height="224.501" filterUnits="userSpaceOnUse" color-interpolation-filters="sRGB">
<feFlood flood-opacity="0" result="BackgroundImageFix"/>
<feBlend mode="normal" in="SourceGraphic" in2="BackgroundImageFix" result="shape"/>
<feColorMatrix in="SourceAlpha" type="matrix" values="0 0 0 0 0 0 0 0 0 0 0 0 0 0 0 0 0 0 127 0" result="hardAlpha"/>
<feOffset dx="4" dy="4"/>
<feGaussianBlur stdDeviation="2"/>
<feComposite in2="hardAlpha" operator="arithmetic" k2="-1" k3="1"/>
<feColorMatrix type="matrix" values="0 0 0 0 0.956863 0 0 0 0 0.956863 0 0 0 0 0.956863 0 0 0 1 0"/>
<feBlend mode="normal" in2="shape" result="effect1_innerShadow"/>
</filter>
</defs>
</svg>
