<svg width="1255" height="2415" viewBox="0 0 1255 2415" fill="none" xmlns="http://www.w3.org/2000/svg">
<rect width="1255" height="2415" rx="20" fill="white"/>
<path d="M497.804 53.21C499.754 53.21 501.338 53.172 502.554 53.096L502.364 53.856C501.426 53.9067 500.73 54.008 500.274 54.16C499.843 54.312 499.488 54.6033 499.21 55.034C498.956 55.4647 498.703 56.1613 498.45 57.124L493.434 75.972C493.231 76.8333 493.13 77.4413 493.13 77.796C493.13 78.3533 493.307 78.7207 493.662 78.898C494.042 79.0753 494.713 79.1893 495.676 79.24L495.524 80C494.358 79.924 492.788 79.886 490.812 79.886C488.582 79.886 486.936 79.924 485.872 80L486.024 79.24C486.961 79.1893 487.645 79.088 488.076 78.936C488.532 78.784 488.886 78.4927 489.14 78.062C489.418 77.6313 489.684 76.9347 489.938 75.972L495.448 55.49L479.678 80.19H478.842L476.258 55.186L470.862 75.592C470.659 76.4533 470.558 77.0867 470.558 77.492C470.558 78.1253 470.76 78.5687 471.166 78.822C471.596 79.05 472.344 79.1893 473.408 79.24L473.218 80C472.356 79.924 471.077 79.886 469.38 79.886C467.885 79.886 466.694 79.924 465.808 80L465.998 79.24C466.884 79.1893 467.568 79.0627 468.05 78.86C468.531 78.632 468.911 78.2773 469.19 77.796C469.468 77.3147 469.734 76.58 469.988 75.592L474.928 57.124C475.13 56.2627 475.232 55.6547 475.232 55.3C475.232 54.7427 475.042 54.3753 474.662 54.198C474.307 54.0207 473.648 53.9067 472.686 53.856L472.876 53.096C473.686 53.172 474.814 53.21 476.258 53.21C477.6 53.21 478.715 53.172 479.602 53.096L481.692 75.63L495.98 53.21H497.804ZM514.896 62.444C514.896 64.496 513.743 66.2947 511.438 67.84C509.133 69.3853 506.498 70.6393 503.534 71.602C503.255 72.8687 503.116 74.0973 503.116 75.288C503.116 77.72 503.99 78.936 505.738 78.936C507.917 78.936 509.867 77.6693 511.59 75.136L512.198 75.44C511.387 76.8333 510.285 78.0367 508.892 79.05C507.524 80.038 506.08 80.532 504.56 80.532C502.989 80.532 501.761 80.076 500.874 79.164C499.987 78.252 499.544 76.922 499.544 75.174C499.544 73.2487 500.101 71.0827 501.216 68.676C502.356 66.244 503.889 64.1793 505.814 62.482C507.739 60.7847 509.829 59.936 512.084 59.936C512.895 59.936 513.566 60.1513 514.098 60.582C514.63 61.0127 514.896 61.6333 514.896 62.444ZM511.248 60.658C510.437 60.658 509.525 61.1393 508.512 62.102C507.524 63.0393 506.587 64.2933 505.7 65.864C504.839 67.4347 504.18 69.1067 503.724 70.88C506.131 70.044 507.853 69.2333 508.892 68.448C509.829 67.7133 510.551 66.8267 511.058 65.788C511.59 64.724 511.856 63.584 511.856 62.368C511.856 61.684 511.805 61.228 511.704 61C511.603 60.772 511.451 60.658 511.248 60.658ZM531.187 62.444C531.187 64.496 530.034 66.2947 527.729 67.84C525.424 69.3853 522.789 70.6393 519.825 71.602C519.546 72.8687 519.407 74.0973 519.407 75.288C519.407 77.72 520.281 78.936 522.029 78.936C524.208 78.936 526.158 77.6693 527.881 75.136L528.489 75.44C527.678 76.8333 526.576 78.0367 525.183 79.05C523.815 80.038 522.371 80.532 520.851 80.532C519.28 80.532 518.052 80.076 517.165 79.164C516.278 78.252 515.835 76.922 515.835 75.174C515.835 73.2487 516.392 71.0827 517.507 68.676C518.647 66.244 520.18 64.1793 522.105 62.482C524.03 60.7847 526.12 59.936 528.375 59.936C529.186 59.936 529.857 60.1513 530.389 60.582C530.921 61.0127 531.187 61.6333 531.187 62.444ZM527.539 60.658C526.728 60.658 525.816 61.1393 524.803 62.102C523.815 63.0393 522.878 64.2933 521.991 65.864C521.13 67.4347 520.471 69.1067 520.015 70.88C522.422 70.044 524.144 69.2333 525.183 68.448C526.12 67.7133 526.842 66.8267 527.349 65.788C527.881 64.724 528.147 63.584 528.147 62.368C528.147 61.684 528.096 61.228 527.995 61C527.894 60.772 527.742 60.658 527.539 60.658ZM536.268 76.77C536.192 77.074 536.154 77.3527 536.154 77.606C536.154 78.1127 536.306 78.4927 536.61 78.746C536.914 78.9993 537.307 79.126 537.788 79.126C538.421 79.126 539.004 78.86 539.536 78.328C540.093 77.7707 540.638 76.77 541.17 75.326L541.702 73.844H542.424L541.626 76.238C541.094 77.8087 540.397 78.9233 539.536 79.582C538.7 80.2153 537.661 80.532 536.42 80.532C535.28 80.532 534.431 80.2533 533.874 79.696C533.317 79.1387 533.038 78.366 533.038 77.378C533.038 76.7193 533.152 75.9973 533.38 75.212L537.408 61.228H533.988L534.178 60.468H537.598L539.27 54.692C540.638 54.6413 541.778 54.464 542.69 54.16L540.904 60.468H545.92L545.806 61.228H540.676L536.268 76.77ZM556.099 71.412C556.099 68.5493 556.77 65.6487 558.113 62.71C559.456 59.7713 561.33 57.352 563.737 55.452C566.169 53.5267 568.905 52.564 571.945 52.564C574.782 52.564 576.986 53.362 578.557 54.958C580.128 56.554 580.913 58.8087 580.913 61.722C580.913 64.5847 580.229 67.4853 578.861 70.424C577.518 73.3373 575.631 75.7567 573.199 77.682C570.767 79.582 568.044 80.532 565.029 80.532C562.217 80.532 560.026 79.734 558.455 78.138C556.884 76.542 556.099 74.3 556.099 71.412ZM571.603 53.248C569.703 53.248 567.854 54.16 566.055 55.984C564.282 57.808 562.85 60.1767 561.761 63.09C560.672 65.978 560.127 68.9167 560.127 71.906C560.127 74.3633 560.608 76.3013 561.571 77.72C562.534 79.1387 563.8 79.848 565.371 79.848C567.271 79.848 569.108 78.936 570.881 77.112C572.68 75.288 574.124 72.932 575.213 70.044C576.302 67.1307 576.847 64.1793 576.847 61.19C576.847 58.7327 576.366 56.7947 575.403 55.376C574.44 53.9573 573.174 53.248 571.603 53.248ZM600.692 73.844H601.414L600.464 76.618C599.552 79.2273 598.02 80.532 595.866 80.532C595.461 80.532 595.081 80.4433 594.726 80.266C594.372 80.0887 594.106 79.8353 593.928 79.506C593.776 79.1513 593.7 78.7587 593.7 78.328C593.7 77.6693 593.878 76.6307 594.232 75.212L595.41 70.462C593.941 74.0847 592.51 76.6687 591.116 78.214C589.723 79.7593 588.203 80.532 586.556 80.532C584.428 80.532 583.364 79.5567 583.364 77.606C583.364 76.7953 583.542 75.858 583.896 74.794L587.582 63.698C587.785 63.09 587.886 62.6213 587.886 62.292C587.886 61.6587 587.582 61.342 586.974 61.342C586.468 61.342 585.974 61.6333 585.492 62.216C585.036 62.7733 584.555 63.774 584.048 65.218L583.554 66.624H582.832L583.782 63.85C584.694 61.2407 586.227 59.936 588.38 59.936C590.154 59.936 591.04 60.7213 591.04 62.292C591.04 63.052 590.838 64.04 590.432 65.256L586.822 76.124C586.569 76.884 586.442 77.5173 586.442 78.024C586.442 78.8853 586.848 79.316 587.658 79.316C588.646 79.316 589.736 78.594 590.926 77.15C592.117 75.6807 593.295 73.654 594.46 71.07C595.626 68.486 596.639 65.5727 597.5 62.33L597.956 60.468C599.4 60.4173 600.553 60.24 601.414 59.936L596.702 76.77C596.525 77.4287 596.436 77.9227 596.436 78.252C596.436 78.8347 596.702 79.126 597.234 79.126C597.792 79.126 598.298 78.8347 598.754 78.252C599.236 77.644 599.717 76.6433 600.198 75.25L600.692 73.844ZM618.301 59.936C618.985 59.936 619.53 60.1387 619.935 60.544C620.34 60.9493 620.543 61.4687 620.543 62.102C620.543 62.862 620.277 63.508 619.745 64.04C619.213 64.572 618.592 64.838 617.883 64.838C617.427 64.838 617.06 64.724 616.781 64.496C616.502 64.2427 616.363 63.9007 616.363 63.47C616.363 62.8873 616.515 62.3933 616.819 61.988C617.123 61.5827 617.541 61.266 618.073 61.038C617.972 60.9367 617.832 60.886 617.655 60.886C616.287 60.886 614.792 62.368 613.171 65.332C611.575 68.2707 610.068 72.1593 608.649 76.998L607.889 80H604.583L609.143 63.698C609.32 63.1407 609.409 62.6467 609.409 62.216C609.409 61.6333 609.143 61.342 608.611 61.342C608.054 61.342 607.534 61.646 607.053 62.254C606.597 62.8367 606.128 63.8247 605.647 65.218L605.153 66.624H604.431L605.381 63.85C606.293 61.2407 607.826 59.936 609.979 59.936C611.423 59.936 612.145 60.6707 612.145 62.14C612.145 62.8493 611.968 63.888 611.613 65.256L610.397 70.044C611.765 66.3707 613.044 63.774 614.235 62.254C615.451 60.7087 616.806 59.936 618.301 59.936ZM650.97 52.83C650.058 55.1353 649.311 57.7193 648.728 60.582H647.968C648.12 59.8473 648.196 59.1253 648.196 58.416C648.196 56.9213 647.753 55.6927 646.866 54.73C645.979 53.7673 644.624 53.286 642.8 53.286C641.204 53.286 639.912 53.6913 638.924 54.502C637.961 55.3127 637.48 56.516 637.48 58.112C637.48 59.3533 637.86 60.4933 638.62 61.532C639.405 62.5707 640.571 63.7993 642.116 65.218C643.205 66.206 644.079 67.0673 644.738 67.802C645.397 68.5367 645.954 69.3473 646.41 70.234C646.866 71.1207 647.094 72.0707 647.094 73.084C647.094 74.7307 646.613 76.124 645.65 77.264C644.713 78.3787 643.509 79.202 642.04 79.734C640.571 80.266 639.051 80.532 637.48 80.532C636.137 80.532 635.061 80.3673 634.25 80.038C633.465 79.7087 632.743 79.2907 632.084 78.784C631.603 78.404 631.147 78.214 630.716 78.214C630.412 78.214 630.159 78.366 629.956 78.67C629.753 78.974 629.487 79.506 629.158 80.266H628.398C628.803 79.3033 629.196 78.1507 629.576 76.808C629.981 75.44 630.45 73.5527 630.982 71.146H631.742C631.514 72.3367 631.4 73.274 631.4 73.958C631.4 75.8073 631.907 77.2387 632.92 78.252C633.933 79.2653 635.491 79.772 637.594 79.772C639.317 79.772 640.672 79.3793 641.66 78.594C642.673 77.8087 643.18 76.618 643.18 75.022C643.18 74.0593 642.99 73.1727 642.61 72.362C642.23 71.5513 641.761 70.842 641.204 70.234C640.672 69.6007 639.925 68.8153 638.962 67.878C637.949 66.9153 637.138 66.092 636.53 65.408C635.947 64.724 635.441 63.926 635.01 63.014C634.605 62.102 634.402 61.0887 634.402 59.974C634.402 58.4033 634.795 57.0607 635.58 55.946C636.391 54.8313 637.429 53.9953 638.696 53.438C639.988 52.8553 641.343 52.564 642.762 52.564C643.801 52.564 644.7 52.6907 645.46 52.944C646.22 53.1973 646.967 53.6027 647.702 54.16C648.31 54.616 648.728 54.844 648.956 54.844C649.159 54.844 649.349 54.692 649.526 54.388C649.729 54.0587 649.957 53.5393 650.21 52.83H650.97ZM654.721 76.77C654.645 77.074 654.607 77.3527 654.607 77.606C654.607 78.1127 654.759 78.4927 655.063 78.746C655.367 78.9993 655.76 79.126 656.241 79.126C656.874 79.126 657.457 78.86 657.989 78.328C658.546 77.7707 659.091 76.77 659.623 75.326L660.155 73.844H660.877L660.079 76.238C659.547 77.8087 658.85 78.9233 657.989 79.582C657.153 80.2153 656.114 80.532 654.873 80.532C653.733 80.532 652.884 80.2533 652.327 79.696C651.77 79.1387 651.491 78.366 651.491 77.378C651.491 76.7193 651.605 75.9973 651.833 75.212L655.861 61.228H652.441L652.631 60.468H656.051L657.723 54.692C659.091 54.6413 660.231 54.464 661.143 54.16L659.357 60.468H664.373L664.259 61.228H659.129L654.721 76.77ZM678.317 59.936C679.634 59.936 680.293 60.962 680.293 63.014C680.293 65.4207 679.545 68.2073 678.051 71.374C676.556 74.5407 674.808 77.378 672.807 79.886C670.451 82.8247 667.955 84.9273 665.321 86.194C663.978 86.8273 662.876 87.144 662.015 87.144C661.483 87.144 661.039 87.0047 660.685 86.726C660.305 86.4473 660.115 86.0673 660.115 85.586C660.115 85.054 660.317 84.636 660.723 84.332C661.128 84.028 661.609 83.876 662.167 83.876C662.699 83.876 663.205 84.0027 663.687 84.256C664.193 84.5347 664.738 84.902 665.321 85.358C667.297 84.294 669.197 82.774 671.021 80.798L668.209 63.774C668.082 62.9887 667.93 62.444 667.753 62.14C667.575 61.836 667.322 61.684 666.993 61.684C666.663 61.684 666.321 61.9373 665.967 62.444C665.637 62.9253 665.232 63.8373 664.751 65.18L664.257 66.586H663.535L664.485 63.812C665.371 61.228 666.828 59.936 668.855 59.936C669.665 59.936 670.273 60.1893 670.679 60.696C671.109 61.2027 671.413 62.1147 671.591 63.432L673.529 77.72C674.922 75.7947 676.125 73.7807 677.139 71.678C678.152 69.55 678.861 67.4473 679.267 65.37C678.507 64.9647 677.835 64.4707 677.253 63.888C676.67 63.28 676.379 62.6087 676.379 61.874C676.379 61.2913 676.556 60.8227 676.911 60.468C677.291 60.1133 677.759 59.936 678.317 59.936ZM685.06 76.77C684.908 77.302 684.832 77.7453 684.832 78.1C684.832 78.784 685.123 79.126 685.706 79.126C686.212 79.126 686.681 78.8347 687.112 78.252C687.568 77.6693 688.049 76.6687 688.556 75.25L689.05 73.844H689.772L688.822 76.618C687.935 79.2273 686.415 80.532 684.262 80.532C682.514 80.532 681.64 79.7087 681.64 78.062C681.64 77.4287 681.817 76.4787 682.172 75.212L688.366 54.654C688.492 54.198 688.556 53.8433 688.556 53.59C688.556 53.0833 688.353 52.716 687.948 52.488C687.568 52.26 686.909 52.146 685.972 52.146L686.238 51.348C687.58 51.3227 688.784 51.1833 689.848 50.93C690.937 50.6767 691.988 50.2967 693.002 49.79L685.06 76.77ZM698.867 54.046C698.867 53.286 699.145 52.6147 699.703 52.032C700.285 51.424 700.944 51.12 701.679 51.12C702.261 51.12 702.73 51.31 703.085 51.69C703.439 52.07 703.617 52.5387 703.617 53.096C703.617 53.856 703.325 54.5273 702.743 55.11C702.16 55.6927 701.501 55.984 700.767 55.984C700.209 55.984 699.753 55.8067 699.399 55.452C699.044 55.072 698.867 54.6033 698.867 54.046ZM697.727 63.698C697.929 63.09 698.031 62.6213 698.031 62.292C698.031 61.6587 697.752 61.342 697.195 61.342C696.612 61.342 696.093 61.646 695.637 62.254C695.181 62.862 694.699 63.85 694.193 65.218L693.661 66.624H692.939L693.927 63.85C694.433 62.406 695.105 61.3927 695.941 60.81C696.802 60.2273 697.701 59.936 698.639 59.936C700.311 59.936 701.147 60.734 701.147 62.33C701.147 63.166 700.944 64.1413 700.539 65.256L696.473 76.77C696.27 77.378 696.169 77.8467 696.169 78.176C696.169 78.8093 696.473 79.126 697.081 79.126C697.613 79.126 698.107 78.8347 698.563 78.252C699.019 77.6693 699.513 76.6687 700.045 75.25L700.577 73.844H701.299L700.311 76.618C699.804 78.0113 699.133 79.012 698.297 79.62C697.486 80.228 696.599 80.532 695.637 80.532C693.863 80.532 692.977 79.7593 692.977 78.214C692.977 77.4793 693.205 76.4787 693.661 75.212L697.727 63.698ZM705.431 79.43C705.685 79.5567 705.925 79.6453 706.153 79.696C706.407 79.7467 706.749 79.772 707.179 79.772C708.319 79.772 709.244 79.43 709.953 78.746C710.663 78.062 711.017 77.0993 711.017 75.858C711.017 75.0473 710.865 74.262 710.561 73.502C710.257 72.7167 709.751 71.83 709.041 70.842C708.18 69.6767 707.547 68.7267 707.141 67.992C706.761 67.232 706.571 66.3453 706.571 65.332C706.571 64.2933 706.837 63.3687 707.369 62.558C707.901 61.722 708.611 61.076 709.497 60.62C710.409 60.164 711.397 59.936 712.461 59.936C713.779 59.936 714.881 60.1893 715.767 60.696C716.654 61.1773 717.097 62.026 717.097 63.242C717.097 63.698 716.945 64.1413 716.641 64.572C716.363 65.0027 715.932 65.218 715.349 65.218C714.919 65.218 714.551 65.066 714.247 64.762C713.969 64.458 713.829 64.078 713.829 63.622C713.829 62.8113 714.184 61.9627 714.893 61.076C714.412 60.772 713.779 60.62 712.993 60.62C712.031 60.62 711.233 60.9493 710.599 61.608C709.991 62.2413 709.687 63.1153 709.687 64.23C709.687 64.8887 709.801 65.4587 710.029 65.94C710.257 66.396 710.675 67.08 711.283 67.992L711.967 68.98C712.727 70.1453 713.285 71.146 713.639 71.982C714.019 72.818 714.209 73.6793 714.209 74.566C714.209 75.706 713.905 76.732 713.297 77.644C712.715 78.556 711.917 79.2653 710.903 79.772C709.915 80.2787 708.839 80.532 707.673 80.532C706.229 80.532 705.013 80.228 704.025 79.62C703.037 78.9867 702.543 78.0367 702.543 76.77C702.543 76.3393 702.67 75.9467 702.923 75.592C703.151 75.2373 703.519 75.06 704.025 75.06C704.583 75.06 705.001 75.288 705.279 75.744C705.558 76.2 705.697 76.77 705.697 77.454C705.697 77.8847 705.609 78.5433 705.431 79.43ZM722.26 76.77C722.184 77.074 722.146 77.3527 722.146 77.606C722.146 78.1127 722.298 78.4927 722.602 78.746C722.906 78.9993 723.299 79.126 723.78 79.126C724.413 79.126 724.996 78.86 725.528 78.328C726.085 77.7707 726.63 76.77 727.162 75.326L727.694 73.844H728.416L727.618 76.238C727.086 77.8087 726.389 78.9233 725.528 79.582C724.692 80.2153 723.653 80.532 722.412 80.532C721.272 80.532 720.423 80.2533 719.866 79.696C719.309 79.1387 719.03 78.366 719.03 77.378C719.03 76.7193 719.144 75.9973 719.372 75.212L723.4 61.228H719.98L720.17 60.468H723.59L725.262 54.692C726.63 54.6413 727.77 54.464 728.682 54.16L726.896 60.468H731.912L731.798 61.228H726.668L722.26 76.77ZM732.67 79.43C732.923 79.5567 733.164 79.6453 733.392 79.696C733.645 79.7467 733.987 79.772 734.418 79.772C735.558 79.772 736.482 79.43 737.192 78.746C737.901 78.062 738.256 77.0993 738.256 75.858C738.256 75.0473 738.104 74.262 737.8 73.502C737.496 72.7167 736.989 71.83 736.28 70.842C735.418 69.6767 734.785 68.7267 734.38 67.992C734 67.232 733.81 66.3453 733.81 65.332C733.81 64.2933 734.076 63.3687 734.608 62.558C735.14 61.722 735.849 61.076 736.736 60.62C737.648 60.164 738.636 59.936 739.7 59.936C741.017 59.936 742.119 60.1893 743.006 60.696C743.892 61.1773 744.336 62.026 744.336 63.242C744.336 63.698 744.184 64.1413 743.88 64.572C743.601 65.0027 743.17 65.218 742.588 65.218C742.157 65.218 741.79 65.066 741.486 64.762C741.207 64.458 741.068 64.078 741.068 63.622C741.068 62.8113 741.422 61.9627 742.132 61.076C741.65 60.772 741.017 60.62 740.232 60.62C739.269 60.62 738.471 60.9493 737.838 61.608C737.23 62.2413 736.926 63.1153 736.926 64.23C736.926 64.8887 737.04 65.4587 737.268 65.94C737.496 66.396 737.914 67.08 738.522 67.992L739.206 68.98C739.966 70.1453 740.523 71.146 740.878 71.982C741.258 72.818 741.448 73.6793 741.448 74.566C741.448 75.706 741.144 76.732 740.536 77.644C739.953 78.556 739.155 79.2653 738.142 79.772C737.154 80.2787 736.077 80.532 734.912 80.532C733.468 80.532 732.252 80.228 731.264 79.62C730.276 78.9867 729.782 78.0367 729.782 76.77C729.782 76.3393 729.908 75.9467 730.162 75.592C730.39 75.2373 730.757 75.06 731.264 75.06C731.821 75.06 732.239 75.288 732.518 75.744C732.796 76.2 732.936 76.77 732.936 77.454C732.936 77.8847 732.847 78.5433 732.67 79.43Z" fill="black"/>
<rect x="243.74" y="132" width="797.04" height="360.407" fill="#F8F8F8"/>
<path d="M243 134.96L1038.93 493.887H243V134.96Z" fill="#E9D5CD"/>
<rect x="243.74" y="852.814" width="797.78" height="360.407" fill="#F8F8F8"/>
<path d="M243.74 852.814L1036.34 1213.22H243.74V852.814Z" fill="#99B5CC"/>
<rect x="245.22" y="1577.33" width="797.78" height="360.407" fill="#F8F8F8"/>
<path d="M245.22 1577.33L1037.82 1937.74H245.22V1577.33Z" fill="#2A2828"/>
<rect x="243" y="1937.74" width="797.78" height="360.407" fill="#F8F8F8"/>
<path d="M850.586 2021.73L1040.78 1937.74V2301.84H244.85L850.586 2021.73Z" fill="#A9BBCA"/>
<rect x="243.74" y="492.407" width="797.78" height="360.407" fill="#F8F8F8"/>
<path d="M1041.52 493.147V852.814H246.7L1041.52 493.147Z" fill="#2A2828"/>
<rect x="243.74" y="1216.92" width="797.78" height="360.407" fill="#F8F8F8"/>
<path d="M1041.52 1217.66V1577.33H246.7L1041.52 1217.66Z" fill="#DBD1D1"/>
</svg>
