<svg width="202" height="203" viewBox="0 0 202 203" fill="none" xmlns="http://www.w3.org/2000/svg">
<path d="M201.565 101.535C201.565 157.097 156.524 202.139 100.962 202.139C45.3999 202.139 0.358154 157.097 0.358154 101.535C0.358154 45.9734 45.3999 0.931641 100.962 0.931641C156.524 0.931641 201.565 45.9734 201.565 101.535Z" fill="#A9BBCA"/>
<path d="M201.565 101.535C201.565 157.097 156.524 202.139 100.962 202.139C45.3999 202.139 0.358154 157.097 0.358154 101.535C0.358154 45.9734 45.3999 0.931641 100.962 0.931641C156.524 0.931641 201.565 45.9734 201.565 101.535Z" fill="#A9BBCA"/>
<path d="M201.565 101.535C201.565 157.097 156.524 202.139 100.962 202.139C45.3999 202.139 0.358154 157.097 0.358154 101.535C0.358154 45.9734 45.3999 0.931641 100.962 0.931641C156.524 0.931641 201.565 45.9734 201.565 101.535Z" fill="white"/>
<path d="M73.8429 106.599L88.7209 99.3562C90.2106 98.631 92.0061 99.2507 92.7314 100.74L116.609 149.789C119.334 155.387 117.005 162.134 111.407 164.859C105.809 167.585 99.0612 165.256 96.3359 159.658L72.4586 110.609C71.7334 109.12 72.3532 107.324 73.8429 106.599Z" fill="#E9D5CD" stroke="black" stroke-width="2"/>
<path d="M73.8429 106.599L88.7209 99.3562C90.2106 98.631 92.0061 99.2507 92.7314 100.74L116.609 149.789C119.334 155.387 117.005 162.134 111.407 164.859C105.809 167.585 99.0612 165.256 96.3359 159.658L72.4586 110.609C71.7334 109.12 72.3532 107.324 73.8429 106.599Z" fill="#E9D5CD" stroke="black" stroke-width="2"/>
<rect x="91.5391" y="118.136" width="4.82897" height="43.0583" rx="2.41449" transform="rotate(-25.96 91.5391 118.136)" fill="white"/>
<circle cx="91.1367" cy="113.608" r="2.41449" fill="white"/>
<mask id="path-6-inside-1" fill="white">
<path fill-rule="evenodd" clip-rule="evenodd" d="M138.525 38.3777C145.022 36.1822 149.293 36.2023 156.965 38.8732C157.682 39.8212 158.438 40.5282 159.179 41.2205C161.694 43.5726 164.029 45.7558 164.029 56.6423C164.029 58.3446 163.409 59.5937 162.334 60.4799C163.459 62.3072 164.107 64.4589 164.107 66.7621V160.815C164.107 168.143 158.824 174.564 151.526 175.234C147.506 175.602 144.035 175.676 140.692 175.449C133.851 174.985 129.216 168.714 129.216 161.857V66.7621C129.216 63.2954 130.686 60.1721 133.037 57.9814C132.906 57.94 132.778 57.8991 132.652 57.859C130.505 57.1716 129.15 55.0798 129.443 52.8444C130.209 47.0059 131.667 43.4007 135.955 39.8002C136.71 39.1655 137.59 38.6937 138.525 38.3777Z"/>
</mask>
<path fill-rule="evenodd" clip-rule="evenodd" d="M138.525 38.3777C145.022 36.1822 149.293 36.2023 156.965 38.8732C157.682 39.8212 158.438 40.5282 159.179 41.2205C161.694 43.5726 164.029 45.7558 164.029 56.6423C164.029 58.3446 163.409 59.5937 162.334 60.4799C163.459 62.3072 164.107 64.4589 164.107 66.7621V160.815C164.107 168.143 158.824 174.564 151.526 175.234C147.506 175.602 144.035 175.676 140.692 175.449C133.851 174.985 129.216 168.714 129.216 161.857V66.7621C129.216 63.2954 130.686 60.1721 133.037 57.9814C132.906 57.94 132.778 57.8991 132.652 57.859C130.505 57.1716 129.15 55.0798 129.443 52.8444C130.209 47.0059 131.667 43.4007 135.955 39.8002C136.71 39.1655 137.59 38.6937 138.525 38.3777Z" fill="#A9BBCA"/>
<path d="M156.965 38.8732L157.623 36.9844L158.195 37.1836L158.561 37.667L156.965 38.8732ZM138.525 38.3777L137.885 36.4829L137.885 36.4829L138.525 38.3777ZM159.179 41.2205L160.545 39.7597L160.545 39.7597L159.179 41.2205ZM164.029 56.6423L162.029 56.6423L164.029 56.6423ZM162.334 60.4799L160.63 61.5284L159.717 60.045L161.061 58.9368L162.334 60.4799ZM151.526 175.234L151.343 173.242L151.344 173.242L151.526 175.234ZM140.692 175.449L140.828 173.454L140.828 173.454L140.692 175.449ZM133.037 57.9814L133.641 56.0748L136.906 57.1095L134.4 59.4445L133.037 57.9814ZM132.652 57.859L133.262 55.9542L133.262 55.9542L132.652 57.859ZM129.443 52.8444L127.46 52.5841L127.46 52.5841L129.443 52.8444ZM135.955 39.8002L137.241 41.3319L137.241 41.3319L135.955 39.8002ZM156.308 40.7621C152.57 39.4608 149.805 38.8579 147.259 38.8C144.73 38.7426 142.28 39.2198 139.166 40.2724L137.885 36.4829C141.267 35.3401 144.201 34.7296 147.35 34.8011C150.481 34.8722 153.688 35.6148 157.623 36.9844L156.308 40.7621ZM157.813 42.6814C157.08 41.996 156.204 41.182 155.37 40.0795L158.561 37.667C159.16 38.4603 159.797 39.0604 160.545 39.7597L157.813 42.6814ZM162.029 56.6423C162.029 51.3082 161.451 48.3394 160.695 46.4867C159.973 44.7162 159.044 43.8327 157.813 42.6814L160.545 39.7597C161.829 40.9604 163.325 42.3446 164.399 44.9753C165.439 47.5239 166.029 51.09 166.029 56.6423L162.029 56.6423ZM161.061 58.9368C161.645 58.4555 162.029 57.7879 162.029 56.6423L166.029 56.6423C166.029 58.9013 165.172 60.7318 163.606 62.0231L161.061 58.9368ZM162.107 66.7621C162.107 64.8396 161.567 63.0495 160.63 61.5284L164.037 59.4314C165.35 61.5649 166.107 64.0782 166.107 66.7621H162.107ZM162.107 160.815V66.7621H166.107V160.815H162.107ZM151.344 173.242C157.502 172.677 162.107 167.223 162.107 160.815H166.107C166.107 169.063 160.146 176.452 151.709 177.225L151.344 173.242ZM140.828 173.454C144.043 173.672 147.405 173.603 151.343 173.242L151.709 177.225C147.606 177.602 144.027 177.68 140.557 177.445L140.828 173.454ZM131.216 161.857C131.216 167.927 135.281 173.078 140.828 173.454L140.557 177.445C132.421 176.893 127.216 169.501 127.216 161.857H131.216ZM131.216 66.7621V161.857H127.216V66.7621H131.216ZM134.4 59.4445C132.439 61.2727 131.216 63.8731 131.216 66.7621H127.216C127.216 62.7177 128.934 59.0714 131.673 56.5182L134.4 59.4445ZM133.262 55.9542C133.386 55.9938 133.512 56.034 133.641 56.0748L132.433 59.888C132.3 59.8459 132.17 59.8045 132.043 59.7637L133.262 55.9542ZM131.426 53.1046C131.261 54.3616 132.017 55.5555 133.262 55.9542L132.043 59.7637C128.994 58.7876 127.038 55.798 127.46 52.5841L131.426 53.1046ZM137.241 41.3319C135.277 42.9806 134.036 44.5636 133.182 46.3465C132.316 48.1565 131.796 50.282 131.426 53.1046L127.46 52.5841C127.856 49.5683 128.448 46.9719 129.574 44.6196C130.713 42.2401 132.344 40.2203 134.668 38.2686L137.241 41.3319ZM139.166 40.2724C138.44 40.5177 137.785 40.8745 137.241 41.3319L134.668 38.2686C135.636 37.4566 136.741 36.8697 137.885 36.4829L139.166 40.2724Z" fill="black" mask="url(#path-6-inside-1)"/>
<path d="M156.407 21.9386C154.179 20.2197 150.443 19.5274 146.682 19.6624C144.828 19.7289 143.025 19.9952 141.483 20.4056C139.923 20.8207 138.704 21.3637 137.959 21.9386C137.719 22.1232 137.472 22.4706 137.263 23.0574C137.056 23.6375 136.914 24.3777 136.835 25.2484C136.676 26.9898 136.78 29.1055 137.001 31.1841C137.221 33.2537 137.551 35.2442 137.828 36.7204C137.942 37.3305 138.047 37.8512 138.13 38.2514C145.081 37.3665 149.369 37.454 156.321 38.272C156.44 37.8942 156.592 37.3903 156.758 36.7917C157.143 35.4096 157.602 33.5357 157.907 31.5518C158.213 29.5583 158.356 27.505 158.137 25.7465C157.916 23.9683 157.35 22.6664 156.407 21.9386Z" fill="#99B5CC" stroke="black" stroke-width="2"/>
<g filter="url(#filter0_i)">
<rect width="18.1499" height="88.7329" rx="2" transform="matrix(-1 0 0 1 155.674 70.896)" fill="#E9D5CD"/>
</g>
<rect x="-1" y="1" width="16.1499" height="86.7329" rx="1" transform="matrix(-1 0 0 1 153.674 70.896)" stroke="black" stroke-width="2"/>
<rect x="-0.452775" y="0.452775" width="8.73123" height="0.905551" rx="0.452775" transform="matrix(-1 0 0 1 128.143 28.2788)" fill="#E9D5CD" stroke="black" stroke-width="0.905551"/>
<rect x="-0.452775" y="0.452775" width="8.73123" height="0.905551" rx="0.452775" transform="matrix(-1 0 0 1 97.8559 28.2788)" fill="#E9D5CD" stroke="black" stroke-width="0.905551"/>
<rect x="-0.452775" y="0.452775" width="8.73123" height="0.905551" rx="0.452775" transform="matrix(-1 0 0 1 112.999 28.2788)" fill="#E9D5CD" stroke="black" stroke-width="0.905551"/>
<rect x="-0.505405" y="0.356213" width="8.79353" height="0.901691" rx="0.450846" transform="matrix(-0.97982 -0.199883 -0.141196 0.989982 127.96 22.5441)" fill="#E9D5CD" stroke="black" stroke-width="0.901691"/>
<rect x="-0.505405" y="0.356213" width="8.79353" height="0.901691" rx="0.450846" transform="matrix(-0.97982 -0.199883 -0.141196 0.989982 98.1046 16.4538)" fill="#E9D5CD" stroke="black" stroke-width="0.901691"/>
<rect x="-0.505405" y="0.356213" width="8.79353" height="0.901691" rx="0.450846" transform="matrix(-0.97982 -0.199883 -0.141196 0.989982 113.033 19.4992)" fill="#E9D5CD" stroke="black" stroke-width="0.901691"/>
<rect x="-0.378108" y="0.536429" width="8.7935" height="0.901693" rx="0.450846" transform="matrix(-0.979828 0.199841 0.141166 0.989986 127.832 33.9574)" fill="#E9D5CD" stroke="black" stroke-width="0.901693"/>
<rect x="-0.378108" y="0.536429" width="8.7935" height="0.901693" rx="0.450846" transform="matrix(-0.979828 0.199841 0.141166 0.989986 97.9759 40.0468)" fill="#E9D5CD" stroke="black" stroke-width="0.901693"/>
<rect x="-0.378108" y="0.536429" width="8.7935" height="0.901693" rx="0.450846" transform="matrix(-0.979828 0.199841 0.141166 0.989986 112.904 37.0023)" fill="#E9D5CD" stroke="black" stroke-width="0.901693"/>
<rect x="-0.378108" y="0.536429" width="8.7935" height="0.901693" rx="0.450846" transform="matrix(-0.979828 0.199841 0.141166 0.989986 112.904 37.0023)" fill="#E9D5CD" stroke="black" stroke-width="0.901693"/>
<mask id="path-21-inside-2" fill="white">
<path fill-rule="evenodd" clip-rule="evenodd" d="M43.0392 28.6502C38.0436 31.0824 35.9656 37.1038 38.3977 42.0993L68.344 103.607L86.4345 94.7994L56.4883 33.2916C56.0619 32.4159 55.5252 31.6298 54.9031 30.9419L85.617 94.0264L77.6982 97.8818L50.7266 42.4836C48.6088 38.1338 50.397 32.8956 54.7194 30.7442C51.7778 27.6635 47.0739 26.6858 43.0392 28.6502Z"/>
</mask>
<path fill-rule="evenodd" clip-rule="evenodd" d="M43.0392 28.6502C38.0436 31.0824 35.9656 37.1038 38.3977 42.0993L68.344 103.607L86.4345 94.7994L56.4883 33.2916C56.0619 32.4159 55.5252 31.6298 54.9031 30.9419L85.617 94.0264L77.6982 97.8818L50.7266 42.4836C48.6088 38.1338 50.397 32.8956 54.7194 30.7442C51.7778 27.6635 47.0739 26.6858 43.0392 28.6502Z" fill="#E9D5CD"/>
<path d="M38.3977 42.0993L36.5995 42.9748L38.3977 42.0993ZM43.0392 28.6502L43.9146 30.4484L43.9146 30.4484L43.0392 28.6502ZM68.344 103.607L66.5458 104.483L67.4213 106.281L69.2195 105.405L68.344 103.607ZM86.4345 94.7994L87.31 96.5976L89.1082 95.7222L88.2327 93.924L86.4345 94.7994ZM56.4883 33.2916L54.6901 34.1671L54.6901 34.1671L56.4883 33.2916ZM54.9031 30.9419L56.3864 29.6004L53.1049 31.8174L54.9031 30.9419ZM85.617 94.0264L86.4925 95.8246L88.2907 94.9491L87.4152 93.1509L85.617 94.0264ZM77.6982 97.8818L75.9 98.7573L76.7755 100.555L78.5737 99.68L77.6982 97.8818ZM50.7266 42.4836L52.5248 41.6082L52.5248 41.6082L50.7266 42.4836ZM54.7194 30.7442L55.6106 32.5347L58.0398 31.3256L56.1659 29.363L54.7194 30.7442ZM40.1959 41.2238C38.2473 37.2214 39.9122 32.3971 43.9146 30.4484L42.1637 26.852C36.175 29.7677 33.6838 36.9861 36.5995 42.9748L40.1959 41.2238ZM70.1422 102.732L40.1959 41.2238L36.5995 42.9748L66.5458 104.483L70.1422 102.732ZM85.559 93.0012L67.4685 101.809L69.2195 105.405L87.31 96.5976L85.559 93.0012ZM54.6901 34.1671L84.6363 95.6749L88.2327 93.924L58.2865 32.4161L54.6901 34.1671ZM53.4198 32.2835C53.9168 32.833 54.347 33.4625 54.6901 34.1671L58.2865 32.4161C57.7768 31.3692 57.1337 30.4265 56.3864 29.6004L53.4198 32.2835ZM53.1049 31.8174L83.8188 94.9018L87.4152 93.1509L56.7013 30.0665L53.1049 31.8174ZM84.7415 92.2282L76.8227 96.0836L78.5737 99.68L86.4925 95.8246L84.7415 92.2282ZM79.4964 97.0063L52.5248 41.6082L48.9284 43.3591L75.9 98.7573L79.4964 97.0063ZM52.5248 41.6082C50.8879 38.2462 52.2701 34.1974 55.6106 32.5347L53.8282 28.9537C48.524 31.5939 46.3296 38.0215 48.9284 43.3591L52.5248 41.6082ZM43.9146 30.4484C47.1445 28.8759 50.9147 29.6557 53.2729 32.1254L56.1659 29.363C52.6409 25.6714 47.0032 24.4958 42.1637 26.852L43.9146 30.4484Z" fill="black" mask="url(#path-21-inside-2)"/>
<path d="M57.6039 38.5922L83.4519 91.6824L80.5465 93.0969L56.4988 43.7043C55.6266 41.9129 56.1334 39.8079 57.6039 38.5922Z" fill="#E9D5CD" stroke="black" stroke-width="2"/>
<mask id="path-24-inside-3" fill="white">
<path fill-rule="evenodd" clip-rule="evenodd" d="M88.3227 94.1347L81.1075 97.6457L79.2313 93.7901L88.2775 89.3881L88.3212 89.478L90.8314 88.2559L95.2352 97.3011L90.8935 99.415L88.3227 94.1347Z"/>
</mask>
<path fill-rule="evenodd" clip-rule="evenodd" d="M88.3227 94.1347L81.1075 97.6457L79.2313 93.7901L88.2775 89.3881L88.3212 89.478L90.8314 88.2559L95.2352 97.3011L90.8935 99.415L88.3227 94.1347Z" fill="#DBD1D1"/>
<path d="M88.3227 94.1347L90.1209 93.2592L89.2456 91.4614L87.4476 92.3363L88.3227 94.1347ZM81.1075 97.6457L79.3091 98.5208L80.1842 100.319L81.9826 99.4441L81.1075 97.6457ZM79.2313 93.7901L78.3562 91.9917L76.5578 92.8669L77.4329 94.6652L79.2313 93.7901ZM88.2775 89.3881L90.0759 88.513L89.2008 86.7147L87.4024 87.5898L88.2775 89.3881ZM88.3212 89.478L86.5228 90.3531L87.3981 92.1518L89.1967 91.2762L88.3212 89.478ZM90.8314 88.2559L92.6296 87.3804L91.7541 85.5822L89.9559 86.4577L90.8314 88.2559ZM95.2352 97.3011L96.1107 99.0993L97.9089 98.2238L97.0334 96.4256L95.2352 97.3011ZM90.8935 99.415L89.0953 100.29L89.9708 102.089L91.769 101.213L90.8935 99.415ZM87.4476 92.3363L80.2324 95.8473L81.9826 99.4441L89.1978 95.9331L87.4476 92.3363ZM82.9059 96.7706L81.0297 92.915L77.4329 94.6652L79.3091 98.5208L82.9059 96.7706ZM80.1064 95.5885L89.1526 91.1865L87.4024 87.5898L78.3562 91.9917L80.1064 95.5885ZM86.4791 90.2633L86.5228 90.3531L90.1196 88.6029L90.0759 88.513L86.4791 90.2633ZM89.1967 91.2762L91.7068 90.0541L89.9559 86.4577L87.4457 87.6798L89.1967 91.2762ZM89.0332 89.1313L93.437 98.1766L97.0334 96.4256L92.6296 87.3804L89.0332 89.1313ZM94.3597 95.5029L90.018 97.6168L91.769 101.213L96.1107 99.0993L94.3597 95.5029ZM92.6917 98.5395L90.1209 93.2592L86.5245 95.0102L89.0953 100.29L92.6917 98.5395Z" fill="black" mask="url(#path-24-inside-3)"/>
<rect x="53.4768" y="30.3076" width="10.8652" height="6.84105" fill="white"/>
<mask id="path-27-inside-4" fill="white">
<path fill-rule="evenodd" clip-rule="evenodd" d="M117.658 160.252C123.032 165.149 125.569 173.669 123.384 180.672C120.89 188.665 113.189 191.656 106.183 187.352C103.495 185.7 101.299 183.214 99.7553 180.326L103.586 176.031C104.528 178.205 106.078 180.128 108.057 181.344C112.29 183.945 116.885 182.324 118.32 177.724C119.723 173.229 117.589 167.552 113.54 164.869L117.658 160.252Z"/>
</mask>
<path fill-rule="evenodd" clip-rule="evenodd" d="M117.658 160.252C123.032 165.149 125.569 173.669 123.384 180.672C120.89 188.665 113.189 191.656 106.183 187.352C103.495 185.7 101.299 183.214 99.7553 180.326L103.586 176.031C104.528 178.205 106.078 180.128 108.057 181.344C112.29 183.945 116.885 182.324 118.32 177.724C119.723 173.229 117.589 167.552 113.54 164.869L117.658 160.252Z" fill="#DBD1D1"/>
<path d="M117.658 160.252L116.317 158.547L117.312 157.432L118.586 158.593L117.658 160.252ZM99.7553 180.326L98.2844 181.279L97.445 179.709L98.4145 178.622L99.7553 180.326ZM103.586 176.031L102.245 174.326L103.926 172.442L105.159 175.287L103.586 176.031ZM113.54 164.869L112.884 166.74L110.45 165.127L112.199 163.165L113.54 164.869ZM118.586 158.593C124.699 164.164 127.554 173.816 125.088 181.719L121.68 179.626C123.584 173.522 121.365 166.134 116.73 161.91L118.586 158.593ZM125.088 181.719C122.275 190.734 113.563 194.161 105.587 189.261L106.779 185.443C112.814 189.151 119.505 186.597 121.68 179.626L125.088 181.719ZM105.587 189.261C102.533 187.384 100.036 184.557 98.2844 181.279L101.226 179.373C102.562 181.872 104.457 184.016 106.779 185.443L105.587 189.261ZM98.4145 178.622L102.245 174.326L104.927 177.735L101.096 182.03L98.4145 178.622ZM107.462 183.254C105.059 181.777 103.167 179.433 102.014 176.774L105.159 175.287C105.89 176.976 107.098 178.479 108.653 179.435L107.462 183.254ZM120.024 178.771C118.243 184.48 112.586 186.402 107.462 183.254L108.653 179.435C111.994 181.488 115.527 180.168 116.616 176.677L120.024 178.771ZM114.196 162.998C119.101 166.248 121.765 173.192 120.024 178.771L116.616 176.677C117.681 173.265 116.077 168.855 112.884 166.74L114.196 162.998ZM112.199 163.165L116.317 158.547L118.999 161.956L114.881 166.573L112.199 163.165Z" fill="black" mask="url(#path-27-inside-4)"/>
<defs>
<filter id="filter0_i" x="137.524" y="70.896" width="22.1499" height="92.7329" filterUnits="userSpaceOnUse" color-interpolation-filters="sRGB">
<feFlood flood-opacity="0" result="BackgroundImageFix"/>
<feBlend mode="normal" in="SourceGraphic" in2="BackgroundImageFix" result="shape"/>
<feColorMatrix in="SourceAlpha" type="matrix" values="0 0 0 0 0 0 0 0 0 0 0 0 0 0 0 0 0 0 127 0" result="hardAlpha"/>
<feOffset dx="4" dy="4"/>
<feGaussianBlur stdDeviation="2"/>
<feComposite in2="hardAlpha" operator="arithmetic" k2="-1" k3="1"/>
<feColorMatrix type="matrix" values="0 0 0 0 0.956863 0 0 0 0 0.956863 0 0 0 0 0.956863 0 0 0 1 0"/>
<feBlend mode="normal" in2="shape" result="effect1_innerShadow"/>
</filter>
</defs>
</svg>
